<svg width="368" height="424" viewBox="0 0 368 424" fill="none" xmlns="http://www.w3.org/2000/svg">
<path fill-rule="evenodd" clip-rule="evenodd" d="M48.6572 182.039C58.9344 182.764 72.8785 189.967 83.1074 191.563C89.9589 193.061 91.3099 205.001 84.9409 206.935C76.642 207.225 61.7328 205.436 55.2191 204.566C41.854 202.778 35.4368 198.62 35.871 192.143C36.257 186.148 41.1785 181.556 48.6572 182.039Z" fill="#093A60"/>
<path fill-rule="evenodd" clip-rule="evenodd" d="M115.917 180.734C115.386 181.121 114.325 182.039 113.794 182.474C113.07 183.055 112.877 184.456 112.202 185.182C110.417 187.164 104.144 193.448 98.5473 198.234C96.8103 199.684 91.7441 203.551 87.9807 205.34C84.6514 206.935 82.2872 206.838 80.7432 203.793C79.1992 200.699 78.2825 195.817 81.66 192.143C86.1472 187.26 97.8718 180.637 104.675 176.045C105.737 175.32 107.136 175.562 108.294 175.368C109.114 174.885 109.886 174.45 110.561 173.821C111.43 173.773 115.386 177.785 115.917 180.686V180.734Z" fill="#093A60"/>
<path fill-rule="evenodd" clip-rule="evenodd" d="M287.396 69.5979C282.427 75.3505 272.68 84.5837 266.36 94.2035C267.952 96.3305 269.882 99.376 273.983 100.585C284.694 93.4784 296.95 81.1998 300.231 77.0424C305.828 59.9297 313.306 33.3904 302.788 28.7013C295.213 25.3174 291.112 31.8435 288.892 41.2217C287.252 48.1828 288.265 62.2501 287.396 69.6462V69.5979Z" fill="#B4CCE5"/>
<path fill-rule="evenodd" clip-rule="evenodd" d="M362.811 238.937L308.144 207.805C302.209 205.098 293.669 202.923 287.589 206.113C282.041 209.014 272.97 214.911 268.917 217.232C265.877 218.972 255.262 225.353 261.872 228.979C281.317 239.565 300.617 251.457 320.351 262.189C324.066 264.219 329.567 264.944 335.308 264.461C341.002 263.978 346.888 262.286 351.472 259.627C354.753 257.693 357.986 255.808 361.17 253.971C365.464 251.457 367.732 248.508 367.925 245.753C368.166 243.094 366.429 240.629 362.762 238.937H362.811Z" fill="#B4CCE5"/>
<path fill-rule="evenodd" clip-rule="evenodd" d="M341.34 226.078C341.629 227.093 341.484 227.963 341.967 229.317C342.498 230.671 343.077 232.169 343.656 234.538C344.524 238.163 343.318 243.046 344.476 248.218C345.055 250.297 345.007 251.941 343.656 253.729C342.305 255.518 339.796 258.37 336.515 258.273C335.743 258.273 334.247 257.935 333.041 256.581C331.786 255.131 330.773 253.052 330.966 250.49C331.014 249.524 331.593 246.333 331.497 243.481C331.4 240.967 330.966 239.565 331.014 236.81C331.062 233.909 331.304 229.849 331.352 227.963L341.34 226.078Z" fill="#04304F"/>
<path fill-rule="evenodd" clip-rule="evenodd" d="M312.39 211.092C313.355 213.703 313.982 214.766 314.03 218.392C313.451 220.277 312.1 221.099 310.605 222.404L309.543 222.646C306.938 224.048 305.973 229.027 303.56 231.299C301.871 232.894 298.446 233.764 295.068 234.393C291.449 235.07 288.024 234.054 288.989 231.202C291.305 224.144 301.437 216.168 301.63 208.24L312.39 211.044V211.092Z" fill="#04304F"/>
<path fill-rule="evenodd" clip-rule="evenodd" d="M297.239 160.721C297.481 174.256 301.196 198.862 300.713 212.204C304.815 215.056 310.363 214.38 312.583 210.851C313.982 198.572 315.622 182.088 315.767 175.368C315.912 169.761 315.381 164.588 313.982 159.561C316.008 144.768 324.549 124.513 322.474 110.591C321.557 104.452 317.552 97.8775 316.394 92.85C306.31 105.274 298.639 99.3277 294.489 98.2642C294.489 102.567 294.2 101.986 294.344 106.482C294.827 121.758 295.502 138.049 296.371 153.905C296.371 156.274 296.564 158.884 297.239 160.769V160.721Z" fill="#0D4D7A"/>
<path fill-rule="evenodd" clip-rule="evenodd" d="M319.675 170.583C322.088 184.118 328.988 215.105 330.676 228.447C335.019 230.864 340.616 229.607 342.16 226.078C342.208 213.799 342.353 193.593 341.436 186.873C340.664 181.266 338.059 172.806 335.839 167.779C335.453 152.986 340.133 132.345 335.887 118.422C334.006 112.283 328.939 105.709 326.961 100.681C324.259 104.839 320.978 106.579 312.052 105.854C311.183 105.805 303.753 100.44 301.292 99.8595C304.429 118.664 313.403 143.27 317.745 163.766C318.083 166.135 318.71 168.746 319.675 170.631V170.583Z" fill="#1466A0"/>
<path fill-rule="evenodd" clip-rule="evenodd" d="M325.465 35.8558C331.786 39.7714 335.308 43.3003 338.589 47.6027C343.173 53.5487 343.463 57.2226 342.932 64.9088C342.305 73.5619 336.659 84.1002 334.778 93.8652C333.861 98.5542 334.826 107.256 335.115 113.395C335.405 120.066 331.255 122.435 322.715 121.903C312.631 121.275 299.99 115.715 294.151 105.66C292.511 102.857 295.599 74.6737 290.822 58.3344C288.265 49.5363 289.133 35.8075 294.103 30.1032C303.029 19.8065 313.644 28.508 325.465 35.8558Z" fill="#C2D6EB"/>
<path fill-rule="evenodd" clip-rule="evenodd" d="M307.613 49.6814C304.429 58.5278 307.131 61.815 310.846 67.8576C314.899 74.432 313.885 82.3116 313.596 90.7713C312.004 93.2851 309.012 96.0405 306.31 97.6841C305.201 92.3666 304.236 90.2879 302.885 87.3391C304.815 83.0851 305.394 77.8159 304.477 73.9969C302.643 66.5041 297.674 60.3648 305.152 48.8596C304.38 45.7174 304.236 44.7506 304.911 44.3638C305.683 43.9288 305.49 44.3638 307.854 44.5572C309.254 44.7022 311.521 45.089 311.135 46.6359C310.846 47.8444 309.881 49.1013 307.613 49.633V49.6814Z" fill="#1989A5"/>
<path fill-rule="evenodd" clip-rule="evenodd" d="M306.31 40.0615C306.069 39.5781 305.828 39.0947 305.587 38.5629C304.863 37.0643 304.477 33.8738 303.126 30.3449L316.346 24.2539L319.145 22.6587C318.662 27.9279 320.447 32.2786 322.329 36.0008C323.053 41.0283 313.113 43.3487 307.854 44.6055C307.227 43.397 306.986 41.6084 306.31 40.0615Z" fill="#E7A376"/>
<path fill-rule="evenodd" clip-rule="evenodd" d="M307.854 44.6055C307.565 43.8804 307.42 42.3819 307.131 41.0766C306.841 39.9165 305.828 37.0643 305.828 36.3392C304.67 36.6293 303.898 43.3487 302.547 46.2008C304.622 44.7506 305.538 44.6055 307.854 44.6055Z" fill="#D1E3F6"/>
<path fill-rule="evenodd" clip-rule="evenodd" d="M321.991 34.9373C321.798 39.9165 313.403 43.397 307.806 44.6055C309.157 46.2491 310.942 48.3278 310.846 49.9714C314.754 48.9079 321.364 47.0709 324.066 42.0435C325.9 38.6112 324.163 36.0975 321.991 34.9373Z" fill="#D1E3F6"/>
<path fill-rule="evenodd" clip-rule="evenodd" d="M307.758 38.0795C309.253 36.9193 312.92 34.5506 314.223 33.3904C317.118 30.925 316.539 28.0729 317.07 23.4805C319.772 21.2084 320.64 19.5165 320.737 17.6312C321.026 13.2322 318.18 8.68809 314.657 6.36772C311.569 4.33739 308.192 3.95066 304.477 5.06251C297.288 7.23786 294.441 11.3469 294.537 17.7279C294.537 18.2596 294.923 20.3866 295.116 20.9184C295.599 22.1753 295.985 22.3203 296.226 23.2388C296.371 23.8189 296.419 24.4956 296.226 25.4625C295.695 27.6378 299.169 37.306 300.713 38.2729C302.45 39.3364 305.249 39.6264 307.806 38.0795H307.758Z" fill="#F0B186"/>
<path fill-rule="evenodd" clip-rule="evenodd" d="M300.665 16.2776C302.257 15.1175 308.24 10.6701 310.846 8.59141C313.499 6.4644 316.346 4.19237 319.048 5.6426C321.557 7.91463 322.908 12.5554 322.908 15.2625C322.908 19.1298 320.93 22.8037 318.18 26.816C317.166 28.3146 316.443 22.9487 315.864 21.8852C315.478 23.9155 314.947 24.7857 314.368 25.0274C313.934 25.1724 313.499 25.5108 313.113 23.0938C312.486 19.3715 310.653 19.0814 311.087 16.5194C311.425 14.4407 310.218 14.9241 309.639 14.199C306.938 14.7791 304.67 16.5677 300.665 16.2293V16.2776Z" fill="#642E40"/>
<path fill-rule="evenodd" clip-rule="evenodd" d="M316.925 19.5165C319.579 18.0663 320.206 21.3051 320.11 23.3838C320.061 24.7857 318.903 24.8824 318.662 26.0426C318.421 27.3961 317.504 28.1696 316.636 28.3146C314.899 28.5563 315.526 25.8008 315.526 24.7373C315.043 23.0937 315.188 20.3866 316.877 19.4682L316.925 19.5165Z" fill="#F0B186"/>
<path fill-rule="evenodd" clip-rule="evenodd" d="M319.289 5.83597C317.215 6.80279 314.947 9.50989 312.148 11.7336C308.24 14.7791 303.608 17.2445 299.748 16.9061C297.529 16.7127 295.068 15.5042 294.586 14.5857C287.445 1.2919 313.885 -5.71756 319.289 5.83597Z" fill="#642E40"/>
<path fill-rule="evenodd" clip-rule="evenodd" d="M299.555 33.6805C299.845 33.6805 299.99 33.7771 300.327 33.8255C300.858 33.8255 301.051 33.8255 301.437 33.9222C302.161 34.1155 302.257 34.5506 303.367 34.7923C303.705 34.8406 303.657 34.9373 303.319 35.0823C302.788 35.3241 300.906 35.3241 300.086 35.0823C299.555 34.889 299.7 34.6473 299.459 34.3572C299.266 34.1639 298.976 33.7771 299.555 33.6805Z" fill="#EA9F6F"/>
<path fill-rule="evenodd" clip-rule="evenodd" d="M303.271 24.544C304.863 24.9307 306.069 24.9307 307.758 23.9155C306.214 25.3174 304.67 25.3174 303.271 24.544Z" fill="#AA6F48"/>
<path fill-rule="evenodd" clip-rule="evenodd" d="M298.783 23.8189C297.384 23.7705 297.336 23.8189 296.178 23.1904C296.95 24.0122 297.577 24.1089 298.783 24.0606V23.8189Z" fill="#AA6F48"/>
<path fill-rule="evenodd" clip-rule="evenodd" d="M299.362 25.2208C299.121 26.7193 299.169 27.4928 298.494 28.6046C297.336 30.4899 297.963 31.1667 299.893 31.3601C297.867 30.8283 298.06 30.2482 298.832 28.6046C299.314 27.5895 299.314 26.9127 299.362 25.2208Z" fill="#AA6F48"/>
<path fill-rule="evenodd" clip-rule="evenodd" d="M296.902 23.7222C297.191 24.399 297.915 24.5923 298.349 23.9639C297.867 23.9639 297.432 23.9639 296.902 23.7222Z" fill="#AA6F48"/>
<path fill-rule="evenodd" clip-rule="evenodd" d="M306.407 24.6407C306.117 25.3174 305.394 25.5108 304.959 24.8824C305.442 24.8824 305.876 24.8824 306.407 24.6407Z" fill="#AA6F48"/>
<path fill-rule="evenodd" clip-rule="evenodd" d="M251.016 144.817C251.016 129.589 244.502 130.653 241.077 121.323C237.362 110.108 250.196 97.249 258.929 91.9315L241.27 73.4652L216.18 67.0358C211.21 70.033 205.131 74.3353 201.367 78.6377C201.174 78.8794 200.885 79.1695 200.692 79.3628C196.446 84.3903 193.889 89.7562 196.205 96.4272C199.679 105.805 206.337 104.5 206.385 119.728C206.53 127.994 203.635 136.985 200.065 144.333C197.604 149.506 193.647 155.355 189.787 159.561C183.804 166.377 174.01 173.87 164.505 173.773C161.851 173.773 158.956 173.193 156.929 171.839L198.81 198.959C199.196 199.2 199.823 199.491 200.209 199.684C200.258 199.684 200.354 199.732 200.402 199.781C200.451 199.781 200.499 199.781 200.595 199.829C210.438 203.89 228.484 194.27 235.914 183.345C242.235 174.015 250.823 161.784 251.064 144.865L251.016 144.817Z" fill="#1989A5"/>
<path fill-rule="evenodd" clip-rule="evenodd" d="M252.271 259.143C252.801 250.974 249.617 238.163 241.222 234.489L198.231 211.527C207.688 217.038 207.881 231.782 205.227 241.692C205.179 241.886 205.131 242.079 205.083 242.224C203.732 247.058 190.849 272.147 198.135 276.256L240.884 301.152C237.892 299.508 251.836 263.736 252.222 259.143H252.271Z" fill="#147890"/>
<path fill-rule="evenodd" clip-rule="evenodd" d="M304.139 191.563L261.39 166.667C259.701 165.942 258.447 165.99 256.758 166.764C256.372 166.909 256.034 167.102 255.648 167.344C252.174 169.326 248.411 173.531 245.853 176.722C240.208 183.828 236.638 189.967 228.242 195.72C224.479 198.234 220.185 200.361 215.697 201.086C212.223 201.618 208.605 201.231 205.469 199.539C205.372 199.491 205.227 199.442 205.131 199.345L248.121 227.625C248.121 227.625 248.218 227.673 248.266 227.722C248.314 227.722 248.411 227.77 248.459 227.818C261.679 235.118 273.742 222.888 281.606 215.491C287.927 209.787 299.314 190.209 304.236 191.611L304.139 191.563Z" fill="#1989A5"/>
<path fill-rule="evenodd" clip-rule="evenodd" d="M304.139 191.563L261.39 166.667C259.701 165.942 258.447 165.99 256.758 166.764C256.372 166.909 256.034 167.102 255.648 167.344C253.38 168.649 251.016 170.873 248.941 173.145L293.186 199.974C296.95 195.333 302.064 190.982 304.236 191.611L304.139 191.563Z" fill="#239BB8"/>
<path fill-rule="evenodd" clip-rule="evenodd" d="M266.022 38.1278L216.18 66.9875L258.929 91.8832L278.277 87.7742L308.771 63.0235L266.022 38.1278Z" fill="#239BB8"/>
<path fill-rule="evenodd" clip-rule="evenodd" d="M134.252 311.594C133.914 300.378 132.033 294.819 129.186 293.176L83.8794 269.343C86.7262 270.987 88.6079 276.546 88.9456 287.761L89.1386 345.191L131.888 370.086L134.252 311.594Z" fill="#147890"/>
<path fill-rule="evenodd" clip-rule="evenodd" d="M132.515 222.598L110.561 202.633L88.6562 198.234C88.3667 206.645 87.4499 218.199 82.0942 224.87C82.046 224.918 81.9977 224.966 81.9494 225.063C79.7782 227.77 76.6902 229.704 73.2163 230.235C72.8785 230.284 72.589 230.332 72.2513 230.38C68.5361 230.912 66.0753 230.139 62.6013 229.655C59.1274 229.027 55.6051 229.655 52.3724 231.009C49.8152 232.072 47.4027 233.474 45.135 235.021C44.8455 235.215 44.556 235.456 44.2665 235.65C33.2173 243.578 24.9666 256.823 21.1067 269.585C19.8522 274.274 19.0319 278.48 19.0319 283.362C19.0319 287.955 19.8522 291.822 21.2997 294.964C22.7471 298.106 24.8701 300.475 27.4756 301.974L70.2248 326.869C54.8332 317.926 70.5143 279.978 83.3969 268.473C87.5947 264.703 92.3714 261.415 97.7271 259.53C97.9201 259.482 98.0648 259.434 98.2096 259.385C101.346 258.418 103.035 258.563 106.219 258.853C135.603 264.364 131.984 236.326 132.467 222.646L132.515 222.598Z" fill="#FFFBE3"/>
<path fill-rule="evenodd" clip-rule="evenodd" d="M132.515 222.598L110.561 202.633L88.6562 198.234C88.3667 206.645 87.4499 218.199 82.0942 224.87C82.046 224.918 81.9977 224.966 81.9494 225.063C79.7782 227.77 76.6902 229.704 73.2163 230.235C72.8785 230.284 72.589 230.332 72.2513 230.38C68.5361 230.912 66.0753 230.139 62.6013 229.655C59.1274 229.027 55.6051 229.655 52.3724 231.009C49.8152 232.072 47.4027 233.474 45.135 235.021C44.8455 235.215 44.556 235.456 44.2665 235.65C33.2173 243.578 24.9666 256.823 21.1067 269.585C19.8522 274.274 19.0319 278.48 19.0319 283.362C19.0319 287.955 19.8522 291.822 21.2997 294.964C22.7471 298.106 24.8701 300.475 27.4756 301.974L70.2248 326.869C54.8332 317.926 70.5143 279.978 83.3969 268.473C87.5947 264.703 92.3714 261.415 97.7271 259.53C97.9201 259.482 98.0648 259.434 98.2096 259.385C101.346 258.418 103.035 258.563 106.219 258.853C135.603 264.364 131.984 236.326 132.467 222.646L132.515 222.598Z" fill="#239BB8"/>
<path fill-rule="evenodd" clip-rule="evenodd" d="M19.1767 280.269C19.0802 281.284 19.0802 282.299 19.0802 283.362C19.0802 287.955 19.9004 291.822 21.3479 294.964C22.7954 298.106 24.9184 300.475 27.5239 301.974L70.273 326.869C64.4831 323.486 63.0838 315.993 64.2901 307.34L63.5181 306.759L19.1767 280.269Z" fill="#147890"/>
<path fill-rule="evenodd" clip-rule="evenodd" d="M131.261 165.7L110.272 148.201L88.5114 140.804L88.7044 198.234C88.4149 206.645 87.4982 218.199 82.1425 224.87C82.0942 224.918 82.046 224.966 81.9977 225.063L125.133 255.76C136.906 245.801 133.432 206.645 133.673 191.369L131.261 165.748V165.7Z" fill="#1989A5"/>
<path fill-rule="evenodd" clip-rule="evenodd" d="M199.727 131.958L156.978 107.062C154.083 105.757 150.753 106.627 147.858 107.642C144.529 108.899 141.538 110.301 138.402 111.993L88.5114 140.853L131.261 165.748L181.971 143.318C184.673 141.771 195.095 129.251 199.727 132.006V131.958Z" fill="#239BB8"/>
<path fill-rule="evenodd" clip-rule="evenodd" d="M87.1604 212.833C86.1954 217.377 84.6514 221.679 82.0942 224.87C82.046 224.918 81.9977 224.966 81.9494 225.063C79.7782 227.77 76.6902 229.704 73.2163 230.235C72.8785 230.284 72.589 230.332 72.2513 230.38C68.5361 230.912 66.0753 230.139 62.6013 229.655C61.5881 229.462 60.5749 229.365 59.5616 229.414L103.179 254.793L102.697 258.612C103.758 258.612 104.868 258.708 106.219 258.805C127.208 262.769 131.357 249.572 132.226 236.762L130.778 238.212L87.1604 212.833Z" fill="#1989A5"/>
<path fill-rule="evenodd" clip-rule="evenodd" d="M309.205 209.981C308.723 192.336 304.332 188.71 298.349 192.191C297.432 192.723 296.516 193.351 295.551 194.173C285.08 202.971 282.523 213.944 268.386 222.162C252.415 231.396 239.388 223.999 239.34 205.581C239.292 187.164 252.174 164.733 268.193 155.5C281.413 147.862 283.681 154.243 293.572 152.455C295.213 152.165 296.757 151.633 298.253 150.763C304.284 147.282 308.578 138.629 309.012 120.404L308.819 62.9752L258.977 91.8348C239.581 103.678 236.107 113.298 238.954 121.226C242.428 130.604 249.086 129.299 249.134 144.527C249.183 162.945 236.252 185.327 220.281 194.608C204.262 203.841 191.283 196.445 191.235 178.027C191.187 161.736 199.389 153.953 201.753 140.563C203.442 131.039 199.051 127.076 181.151 136.792L131.261 165.652L131.454 223.081C131.019 241.257 126.725 249.959 120.694 253.391C119.246 254.261 117.654 254.793 116.014 255.083C106.123 256.823 103.903 250.442 90.6344 258.128C74.6638 267.361 61.7329 289.84 61.7811 308.21C61.8294 326.628 74.8568 334.024 90.8274 324.791C104.965 316.621 107.57 305.599 117.992 296.801C118.957 295.979 119.874 295.303 120.79 294.819C126.773 291.339 131.164 294.964 131.647 312.609L131.84 370.038L181.681 341.178C199.582 330.205 203.925 321.165 202.236 313.624C199.775 302.989 191.573 304.777 191.524 288.438C191.476 270.02 204.359 247.638 220.378 238.357C236.397 229.124 249.376 236.52 249.424 254.938C249.424 270.165 242.814 276.595 239.436 289.888C236.59 301.152 240.16 306.663 259.508 296.124L309.35 267.265L309.157 209.836L309.205 209.981Z" fill="#31ACCB"/>
<path fill-rule="evenodd" clip-rule="evenodd" d="M5.32902 397.737L61.2986 365.784C67.3781 362.98 76.1112 360.757 82.3354 363.995C87.9807 366.944 97.3411 372.987 101.442 375.356C104.579 377.144 115.435 383.67 108.68 387.344C88.7527 398.221 69.0185 410.403 48.8019 421.425C44.9902 423.503 39.3933 424.277 33.5068 423.793C27.6686 423.31 21.6374 421.618 16.9089 418.863C13.5315 416.881 10.2505 414.995 6.96951 413.062C2.57879 410.5 0.262809 407.454 0.0215604 404.65C-0.219688 401.895 1.56555 399.381 5.28077 397.689L5.32902 397.737Z" fill="#B4CCE5"/>
<path fill-rule="evenodd" clip-rule="evenodd" d="M123.203 212.929C122.19 213.364 121.08 213.799 119.922 214.186C119.584 217.28 121.611 221.437 122.286 222.453C123.444 222.066 124.602 221.776 125.808 221.582C126.629 221.534 127.401 221.437 128.124 221.292C132.515 220.374 134.542 219.262 137.871 212.156C138.209 211.431 138.739 210.271 139.27 209.981C141.007 209.11 146.942 206.79 147.858 206.113C148.293 205.34 148.003 203.164 147.472 199.732C147.328 198.62 146.652 197.992 145.108 198.137C142.358 198.379 137.967 198.814 136.761 198.91C130.103 199.829 132.322 198.862 129.572 204.325C127.256 208.965 124.65 211.963 123.203 213.026V212.929Z" fill="#F0B186"/>
<path fill-rule="evenodd" clip-rule="evenodd" d="M124.795 222.114C124.168 222.404 122.865 223.226 122.238 223.564C121.369 224.096 120.935 225.498 120.067 226.175C117.799 227.963 109.982 233.523 103.083 237.583C100.96 238.84 94.8321 242.031 90.4896 243.239C86.6297 244.303 84.1207 243.771 83.0592 240.242C81.9494 236.665 81.9012 231.251 86.1954 227.963C91.8406 223.613 105.592 218.634 113.698 215.008C114.952 214.428 116.448 214.911 117.702 215.008C118.619 214.67 119.584 214.331 120.404 213.751C121.369 213.848 124.843 218.875 124.843 222.066L124.795 222.114Z" fill="#0D4D7A"/>
<path fill-rule="evenodd" clip-rule="evenodd" d="M55.9911 380.818C57.1491 380.383 59.7064 375.21 64.1453 375.694C69.4528 376.274 75.1463 372.648 79.8265 372.117C80.6467 372.02 81.7082 371.682 82.239 372.02C84.6514 373.519 85.0857 375.259 83.3969 377.676C82.1425 379.464 79.8265 381.882 77.7517 383.573C75.5805 385.362 73.8918 386.861 71.1898 388.359C69.1633 389.471 67.7641 389.519 65.9306 390.39V392.082C64.5796 393.58 62.9873 394.547 61.9741 394.789C59.3204 395.32 55.9911 393.87 53.4822 391.646C52.9514 388.843 51.6487 386.136 52.6619 381.882L55.9911 380.818Z" fill="#090701"/>
<path fill-rule="evenodd" clip-rule="evenodd" d="M59.8029 263.929C60.8161 275.289 66.9438 316.766 65.3516 326.724C62.9873 341.758 66.0271 363.222 66.0271 379.126C65.9306 381.011 64.9173 383.622 62.7461 385.41C59.3686 388.214 54.1577 389.519 52.5172 386.909C50.3942 372.697 46.2447 355.004 44.9902 347.124C43.591 338.278 43.8322 329.286 46.1 323.437C45.1832 317.056 40.6478 293.804 37.029 282.444C35.7263 278.335 27.4274 264.848 33.3138 253.923L59.8029 263.929Z" fill="#093A60"/>
<path fill-rule="evenodd" clip-rule="evenodd" d="M25.8834 393.097C27.1379 393.097 31.3356 389.133 35.292 391.115C40.0688 393.532 46.679 392.033 51.2144 393.145C52.0347 393.338 53.0962 393.387 53.4822 393.918C55.2191 396.142 55.0744 397.931 52.6137 399.623C50.8284 400.88 47.7887 402.33 45.328 403.2C42.6742 404.167 40.5995 404.989 37.5115 405.424C35.2438 405.762 33.8928 405.327 31.8663 405.52L31.3356 407.164C29.5503 408.082 27.6686 408.469 26.6071 408.276C23.9534 407.841 21.2997 405.375 19.7557 402.378C20.1899 399.574 19.9487 396.577 22.3129 392.903L25.7869 393.048L25.8834 393.097Z" fill="#090701"/>
<path fill-rule="evenodd" clip-rule="evenodd" d="M55.9911 340.212C49.0914 355.874 43.6392 378.884 38.0905 394.789C36.0158 399.236 23.6156 400.783 20.4794 395.03C23.1814 380.915 26.8001 359.79 29.4056 352.345C31.5768 346.109 32.6383 342.484 36.45 337.504C37.7528 331.413 45.4245 302.505 47.4027 290.855C46.0035 283.266 42.8672 269.972 52.7584 258.805C57.4869 262.189 70.6108 264.316 77.2692 260.545C77.607 269.682 75.7735 282.734 71.9618 296.414C67.1368 313.721 59.7064 331.752 55.9911 340.212Z" fill="#0D4D7A"/>
<path fill-rule="evenodd" clip-rule="evenodd" d="M32.4453 222.839C32.8796 232.653 32.2041 237.922 34.5201 252.472C36.3535 263.156 59.2239 275.724 77.993 264.799C76.6902 256.195 74.712 251.844 75.9182 243.143C77.6552 230.139 85.9059 213.364 81.9012 203.164C81.0327 200.989 79.537 199.926 77.8482 198.524C73.4575 194.995 50.7319 183.393 43.8322 182.571C23.8569 179.961 31.9628 213.123 32.3971 222.839H32.4453Z" fill="#EAF4FF"/>
<path fill-rule="evenodd" clip-rule="evenodd" d="M79.8265 228.06C81.9495 221.099 84.9409 208.047 82.046 202.729C80.9845 200.796 79.4405 199.684 77.8482 198.427C73.7953 195.14 50.9249 183.345 44.556 182.571C31.8663 180.928 29.8881 190.161 29.3091 201.666C28.0546 225.981 30.1293 253.101 5.28077 264.509C3.35079 268.908 5.28077 273.404 9.09249 277.175C14.6895 276.981 21.3962 274.371 26.3659 269.972C20.3829 275.724 16.9572 278.045 12.1805 279.737C15.9922 282.541 20.9137 284.813 25.8834 286.166C53.0479 293.466 73.3128 249.524 79.8265 228.012V228.06Z" fill="#0D4D7A"/>
<path fill-rule="evenodd" clip-rule="evenodd" d="M65.1586 176.722C64.6761 179.671 64.7243 185.617 65.4481 189.532C58.9344 189.339 49.9117 187.599 48.8984 182.764C49.0914 180.009 49.2362 177.109 48.4642 175.9C57.9694 176.142 57.2939 171.308 65.1103 176.722H65.1586Z" fill="#E7A376"/>
<path fill-rule="evenodd" clip-rule="evenodd" d="M70.273 184.843C69.308 185.955 65.3516 185.278 63.7111 184.94C63.1803 184.843 60.8161 183.2 60.2371 183.006C55.3156 181.653 48.6572 179.767 48.9949 178.414C49.2844 177.302 49.3809 176.287 49.1879 175.658C48.4159 172.951 46.2447 169.567 46.2447 165.797C46.2447 159.754 48.609 153.76 54.9297 151.149C66.5578 146.364 77.0762 155.21 76.9797 167.102C76.9797 169.422 74.9533 170.099 74.4708 171.936C74.3743 172.323 74.7603 172.806 74.905 173.725C75.098 174.982 72.6855 182.184 70.273 184.891V184.843Z" fill="#E7A376"/>
<path fill-rule="evenodd" clip-rule="evenodd" d="M65.3033 176.867C66.2201 175.61 65.9306 174.982 65.3033 174.933C64.5796 174.933 63.3251 175.61 62.4083 176.915C60.9126 179.042 61.2021 182.329 63.8076 181.846C61.8294 181.411 62.6978 179.091 63.7111 177.834C64.3866 176.964 65.2068 176.432 65.3516 176.915L65.3033 176.867Z" fill="#F0B186"/>
<path fill-rule="evenodd" clip-rule="evenodd" d="M64.2418 177.254C64.4831 178.414 64.5313 179.091 64.2418 179.381C64.0488 179.574 63.6146 179.767 63.1321 178.994C63.3251 178.269 63.7593 177.689 64.2418 177.254Z" fill="#DA9569"/>
<path fill-rule="evenodd" clip-rule="evenodd" d="M48.4642 176.432C48.3195 172.951 46.293 169.277 46.2447 165.362C46.2447 161.494 47.258 157.627 49.7669 154.727C50.0082 151.826 55.7499 149.167 57.7764 149.071C57.5351 149.264 57.3421 149.409 57.0526 149.699C63.3733 148.394 64.7243 149.409 70.466 151.875C69.7905 151.778 69.1633 151.778 68.4396 151.729C71.7688 152.648 79.0545 159.029 76.8832 164.975C76.5455 161.929 75.0498 161.881 73.6505 162.268C73.6988 165.748 71.431 168.31 70.7073 168.891C67.8606 171.163 67.7158 171.549 66.5578 175.948L65.1586 176.528C65.6893 172.951 64.0971 172.806 62.2636 173.531C60.0924 174.401 59.9959 178.027 58.1624 180.009C54.7367 183.78 48.416 178.365 48.3195 176.432H48.4642Z" fill="#471F2C"/>
<path fill-rule="evenodd" clip-rule="evenodd" d="M48.8019 182.571C46.872 183.151 45.0867 185.133 45.4245 186.438C47.3545 194.27 61.6846 196.058 70.659 194.173C70.7555 194.173 67.3298 189.581 65.5928 189C59.9476 189.532 50.5389 187.212 48.8019 182.571Z" fill="#EAF4FF"/>
<path fill-rule="evenodd" clip-rule="evenodd" d="M82.0459 201.956C87.0157 207.805 89.0421 218.44 92.3231 229.704C94.6874 237.873 92.5644 242.369 89.2351 243.578C79.344 247.203 71.6723 224.386 69.887 219.987C63.7593 204.953 75.7252 194.56 82.0459 201.956Z" fill="#0D4D7A"/>
<path fill-rule="evenodd" clip-rule="evenodd" d="M325.707 56.2558C322.57 65.2472 322.04 80.2813 319.338 89.4661C317.89 95.7988 327.299 101.6 331.4 97.0557C334.922 90.2396 339.265 77.0908 341.147 71.2898C344.91 59.3979 343.028 52.1951 337.431 49.9714C332.269 47.9411 328.119 49.343 325.707 56.2558Z" fill="#D1E3F6"/>
<path fill-rule="evenodd" clip-rule="evenodd" d="M291.594 107.352C292.414 106.869 293.235 106.337 294.103 105.709C296.419 107.014 298.301 110.494 298.639 111.461C297.818 112.09 296.998 112.718 296.274 113.492C295.84 114.023 295.358 114.507 294.923 114.942C292.125 117.552 288.265 119.679 281.703 118.471C278.277 117.842 278.374 119.051 275.141 120.308C272.825 121.178 268.965 113.25 270.22 112.138C271.329 111.171 272.632 110.108 273.066 109.769C276.444 107.352 275.238 107.497 280.4 108.319C284.791 108.996 290.195 107.884 291.642 107.401L291.594 107.352Z" fill="#F0B186"/>
<path fill-rule="evenodd" clip-rule="evenodd" d="M296.805 113.588C297.288 113.298 298.59 112.67 299.169 112.428C300.279 112.186 301.341 112.573 302.209 112.331C304.573 111.655 312.39 108.416 318.662 105.66C320.544 104.839 325.851 102.18 328.843 99.7628C331.497 97.6358 332.365 95.6054 330.483 93.14C328.553 90.6263 324.838 87.8709 320.447 89.1761C314.609 90.9164 303.174 98.5542 296.66 102.325C295.647 102.905 295.261 104.162 294.634 105.08C293.91 105.564 293.235 106.047 292.463 106.337C292.028 107.062 294.682 111.993 296.853 113.588H296.805Z" fill="#D1E3F6"/>
</svg>
