<svg width="371" height="355" viewBox="0 0 371 355" fill="none" xmlns="http://www.w3.org/2000/svg">
<path d="M111.74 85.7178C110.715 84.9817 109.545 84.3957 108.234 83.969C106.942 83.5424 105.608 83.1767 104.255 82.8579C104.058 82.811 103.861 82.7735 103.679 82.7219C102.532 82.4547 101.394 82.1968 100.271 81.9624C100.187 81.9483 100.098 81.9249 100.013 81.9014C98.815 81.6436 97.7289 81.3248 96.7786 80.9356C95.7394 80.5324 94.9108 79.9933 94.2882 79.3463C93.6796 78.6852 93.3613 77.8413 93.3613 76.7911C93.3613 75.6799 93.5813 74.747 94.0073 73.9921C94.4333 73.2467 95.0091 72.6466 95.73 72.2059C96.4369 71.7651 97.2561 71.437 98.183 71.2541C98.7822 71.1322 99.3908 71.0338 100.013 70.9962C100.332 70.9728 100.659 70.9587 100.992 70.9587C101.956 70.9587 102.86 71.0572 103.679 71.24C104.863 71.5073 105.888 71.9621 106.778 72.6091C108.29 73.7108 109.17 75.483 109.428 77.9304H113.716C113.655 76.0597 113.299 74.4469 112.653 73.0873C111.993 71.7417 111.103 70.6165 109.98 69.7257C108.842 68.8349 107.536 68.1832 106.048 67.7706C105.289 67.5644 104.498 67.4049 103.679 67.3065V59.2237H100.018V67.1846C98.8712 67.2596 97.7336 67.4425 96.6382 67.7472C95.1589 68.1504 93.8434 68.7505 92.6825 69.5569C91.5215 70.3774 90.5946 71.4041 89.8877 72.6606C89.1902 73.9218 88.8485 75.4127 88.8485 77.124C88.8485 78.6899 89.1528 79.9839 89.7754 81.0106C90.384 82.0515 91.2172 82.8954 92.2565 83.5424C93.2817 84.2034 94.452 84.7145 95.7628 85.1177C97.0548 85.5209 98.389 85.8631 99.7419 86.1679C99.8402 86.1913 99.9245 86.2148 100.023 86.2288C101.268 86.5101 102.49 86.7774 103.684 87.0493H103.707C105.013 87.3306 106.188 87.7104 107.213 88.1745C108.252 88.6387 109.081 89.2247 109.69 89.9608C110.312 90.6969 110.631 91.6486 110.631 92.8348C110.631 94.0209 110.373 95.0852 109.863 95.8822C109.348 96.6792 108.693 97.3122 107.859 97.7763C107.031 98.2311 106.099 98.5593 105.074 98.7562C104.61 98.8406 104.147 98.9015 103.684 98.9531C103.122 99.0141 102.56 99.0375 101.998 99.0375C101.324 99.0375 100.669 98.9906 100.018 98.9015C99.4189 98.8265 98.8478 98.7046 98.272 98.5593C97.0735 98.2405 96.0156 97.7529 95.1121 97.0777C94.2086 96.4073 93.4783 95.5634 92.9165 94.5226C92.3688 93.4958 92.088 92.2581 92.088 90.8281H87.7999C87.7999 92.8957 88.165 94.682 88.9094 96.1963C89.6537 97.7013 90.6789 98.9484 91.9616 99.9142C93.2536 100.894 94.7469 101.616 96.4416 102.09C97.5885 102.408 98.7729 102.615 100.018 102.713V110.219H103.679V102.713C104.629 102.629 105.584 102.479 106.548 102.258C108.121 101.893 109.54 101.293 110.808 100.486C112.077 99.6798 113.13 98.6296 113.936 97.3309C114.741 96.0463 115.157 94.4945 115.157 92.6847C115.157 90.9969 114.839 89.5904 114.216 88.4792C113.608 87.3681 112.775 86.4492 111.74 85.7178Z" fill="url(#paint0_linear_42_71)"/>
<path d="M221.133 59.008V51.5019C222.083 51.4175 223.038 51.2675 224.002 51.0472C225.575 50.6815 226.994 50.0814 228.262 49.2749C229.531 48.4685 230.584 47.4183 231.39 46.1197C232.195 44.835 232.611 43.2832 232.611 41.4735C232.611 39.7857 232.293 38.3791 231.67 37.268C231.062 36.1568 230.229 35.2379 229.194 34.5065C228.169 33.7705 226.998 33.1844 225.688 32.7578C224.396 32.3311 223.061 31.9607 221.709 31.6466C221.512 31.5997 221.315 31.5622 221.133 31.5106C219.986 31.2434 218.848 30.9856 217.725 30.7511C217.641 30.7371 217.552 30.7136 217.467 30.6902C216.269 30.4323 215.183 30.1135 214.233 29.7244C213.193 29.3212 212.365 28.782 211.742 28.135C211.133 27.4739 210.815 26.63 210.815 25.5798C210.815 24.4687 211.035 23.5357 211.461 22.7809C211.887 22.0354 212.463 21.4353 213.184 20.9946C213.891 20.5539 214.71 20.2257 215.637 20.0429C216.236 19.921 216.845 19.8225 217.467 19.785C217.786 19.7616 218.113 19.7475 218.446 19.7475C219.41 19.7475 220.314 19.8459 221.133 20.0288C222.317 20.296 223.342 20.7508 224.232 21.3978C225.744 22.4996 226.624 24.2718 226.881 26.7191H231.169C231.109 24.8485 230.753 23.2356 230.107 21.876C229.447 20.5304 228.557 19.4052 227.434 18.5144C226.296 17.6236 224.99 16.972 223.502 16.5594C222.743 16.3531 221.952 16.1937 221.133 16.0952V8.01245H217.472V15.9733C216.325 16.0483 215.188 16.2312 214.092 16.5359C212.613 16.9391 211.297 17.5393 210.136 18.3457C208.975 19.1661 208.049 20.1929 207.342 21.4494C206.644 22.7105 206.302 24.2015 206.302 25.9127C206.302 27.4786 206.607 28.7726 207.229 29.7994C207.838 30.8402 208.671 31.6841 209.71 32.3311C210.736 32.9922 211.906 33.5032 213.217 33.9064C214.509 34.3096 215.843 34.6519 217.196 34.9566C217.294 34.9801 217.378 35.0035 217.477 35.0176C218.722 35.2989 219.944 35.5661 221.137 35.838H221.161C222.467 36.1193 223.642 36.4991 224.667 36.9632C225.706 37.4274 226.535 38.0134 227.144 38.7495C227.766 39.4809 228.085 40.4373 228.085 41.6235C228.085 42.8097 227.827 43.8739 227.317 44.671C226.802 45.4633 226.146 46.1009 225.313 46.5651C224.485 47.0198 223.553 47.348 222.528 47.5449C222.064 47.6293 221.601 47.6903 221.137 47.7418C220.576 47.8028 220.014 47.8262 219.452 47.8262C218.778 47.8262 218.123 47.7794 217.472 47.6903C216.873 47.6153 216.302 47.4934 215.726 47.348C214.527 47.0292 213.469 46.5416 212.566 45.8665C211.662 45.1961 210.932 44.3521 210.37 43.3113C209.823 42.2846 209.542 41.0468 209.542 39.6169H205.254C205.254 41.6845 205.619 43.4707 206.363 44.9851C207.108 46.49 208.133 47.7372 209.415 48.703C210.708 49.6828 212.201 50.4048 213.895 50.8784C215.042 51.1972 216.227 51.4035 217.472 51.5019V59.008H221.133Z" fill="url(#paint1_linear_42_71)"/>
<path d="M139.299 123.961C121.018 123.961 106.141 138.856 106.141 157.169C106.141 175.482 121.014 190.377 139.299 190.377C157.584 190.377 172.457 175.482 172.457 157.169C172.457 138.856 157.584 123.961 139.299 123.961ZM139.299 184.976C123.986 184.976 111.529 172.5 111.529 157.164C111.529 141.828 123.986 129.353 139.299 129.353C154.611 129.353 167.068 141.828 167.068 157.164C167.068 172.5 154.611 184.976 139.299 184.976Z" fill="url(#paint2_linear_42_71)"/>
<path d="M149.382 158.463C148.357 157.727 147.187 157.141 145.876 156.714C144.584 156.287 143.25 155.922 141.897 155.603C141.7 155.556 141.504 155.519 141.321 155.467C140.174 155.2 139.037 154.942 137.913 154.707C137.829 154.693 137.74 154.67 137.656 154.646C136.457 154.389 135.371 154.07 134.421 153.681C133.382 153.277 132.553 152.738 131.931 152.091C131.322 151.43 131.004 150.586 131.004 149.536C131.004 148.425 131.224 147.492 131.65 146.737C132.076 145.992 132.651 145.392 133.372 144.951C134.079 144.51 134.898 144.182 135.825 143.999C136.425 143.877 137.033 143.779 137.656 143.741C137.974 143.718 138.302 143.704 138.634 143.704C139.599 143.704 140.502 143.802 141.321 143.985C142.506 144.252 143.531 144.707 144.42 145.354C145.932 146.456 146.812 148.228 147.07 150.675H151.358C151.297 148.805 150.941 147.192 150.295 145.832C149.635 144.487 148.746 143.362 147.622 142.471C146.485 141.58 145.179 140.928 143.69 140.516C142.932 140.309 142.14 140.15 141.321 140.052V131.969H137.66V139.93C136.514 140.005 135.376 140.187 134.281 140.492C132.801 140.895 131.486 141.496 130.325 142.302C129.164 143.122 128.237 144.149 127.53 145.406C126.833 146.667 126.491 148.158 126.491 149.869C126.491 151.435 126.795 152.729 127.418 153.756C128.026 154.796 128.86 155.64 129.899 156.287C130.924 156.948 132.094 157.459 133.405 157.863C134.697 158.266 136.031 158.608 137.384 158.913C137.483 158.936 137.567 158.96 137.665 158.974C138.91 159.255 140.132 159.522 141.326 159.794H141.349C142.655 160.076 143.83 160.455 144.856 160.92C145.895 161.384 146.723 161.97 147.332 162.706C147.955 163.442 148.273 164.394 148.273 165.58C148.273 166.766 148.015 167.83 147.505 168.627C146.99 169.42 146.335 170.057 145.502 170.521C144.673 170.976 143.741 171.304 142.716 171.501C142.253 171.586 141.789 171.647 141.326 171.698C140.764 171.759 140.202 171.783 139.641 171.783C138.967 171.783 138.311 171.736 137.66 171.647C137.061 171.572 136.49 171.45 135.914 171.304C134.716 170.985 133.658 170.498 132.754 169.823C131.851 169.152 131.121 168.308 130.559 167.268C130.011 166.241 129.73 165.003 129.73 163.573H125.442C125.442 165.641 125.807 167.427 126.552 168.941C127.296 170.446 128.321 171.693 129.604 172.659C130.896 173.639 132.389 174.361 134.084 174.835C135.231 175.153 136.415 175.36 137.66 175.458V182.964H141.321V175.458C142.272 175.374 143.227 175.224 144.191 175.003C145.764 174.638 147.182 174.038 148.451 173.231C149.719 172.425 150.773 171.375 151.578 170.076C152.383 168.791 152.8 167.239 152.8 165.43C152.8 163.742 152.481 162.335 151.859 161.224C151.25 160.113 150.417 159.194 149.382 158.463Z" fill="url(#paint3_linear_42_71)"/>
<path d="M269.125 66.9736C250.845 66.9736 235.968 81.8686 235.968 100.181C235.968 104.321 236.736 108.288 238.126 111.945C211.494 120.417 196.247 137.06 188.13 149.635C185.606 153.54 183.603 157.277 182.025 160.643V145.799C182.02 145.696 181.997 145.106 181.908 144.13C181.894 143.596 180.948 90.6265 207.786 64.4184C211.321 65.7077 215.131 66.4157 219.106 66.4157C237.386 66.4157 252.263 51.5207 252.263 33.2078C252.263 14.895 237.391 0 219.11 0C200.83 0 185.953 14.895 185.953 33.2078C185.953 45.754 192.937 56.6967 203.217 62.3415C189.375 76.7161 183.036 97.5325 180.148 112.803C179.202 117.814 178.556 122.526 178.116 126.699C177.278 124.233 176.258 121.64 175.022 118.996C169.301 106.778 157.72 91.3063 134.8 85.0848C134.8 84.8598 134.819 84.6395 134.819 84.4191C134.819 66.1109 119.946 51.2113 101.661 51.2113C83.376 51.2113 68.5036 66.1063 68.5036 84.4191C68.5036 102.732 83.376 117.627 101.661 117.627C117.859 117.627 131.373 105.929 134.248 90.5281C150.642 95.1883 162.682 105.456 170.064 121.115C175.963 133.624 176.6 145.209 176.637 145.949V226.374H182.025V173.77C183.256 169.588 186.168 161.341 192.081 152.194C199.838 140.183 214.462 124.247 240.125 116.253C245.789 126.46 256.664 133.389 269.125 133.389C287.406 133.389 302.283 118.494 302.283 100.181C302.283 81.8686 287.411 66.9736 269.125 66.9736ZM191.346 33.2078C191.346 17.8721 203.803 5.39633 219.11 5.39633C234.418 5.39633 246.88 17.8721 246.88 33.2078C246.88 48.5436 234.423 61.0194 219.11 61.0194C203.798 61.0194 191.346 48.5436 191.346 33.2078ZM101.661 112.231C86.3487 112.231 73.8917 99.7548 73.8917 84.4191C73.8917 69.0834 86.3487 56.6076 101.661 56.6076C116.974 56.6076 129.431 69.0834 129.431 84.4191C129.431 99.7548 116.974 112.231 101.661 112.231ZM269.125 127.988C253.813 127.988 241.356 115.512 241.356 100.177C241.356 84.8411 253.813 72.3653 269.125 72.3653C284.438 72.3653 296.895 84.8411 296.895 100.177C296.895 115.512 284.438 127.988 269.125 127.988Z" fill="url(#paint4_linear_42_71)"/>
<path d="M279.204 101.475C278.179 100.744 277.009 100.153 275.698 99.7267C274.406 99.3 273.072 98.9343 271.719 98.6155C271.522 98.5687 271.326 98.5311 271.143 98.4796C269.996 98.2123 268.859 97.9545 267.735 97.7201C267.651 97.706 267.562 97.6826 267.478 97.6591C266.279 97.4012 265.193 97.0824 264.243 96.6933C263.204 96.2901 262.375 95.7509 261.752 95.1039C261.144 94.4429 260.826 93.599 260.826 92.5488C260.826 91.4376 261.046 90.5046 261.472 89.7498C261.898 89.0043 262.473 88.4042 263.194 87.9635C263.901 87.5228 264.72 87.1946 265.647 87.0118C266.246 86.8899 266.855 86.7914 267.478 86.7539C267.796 86.7305 268.124 86.7164 268.456 86.7164C269.42 86.7164 270.324 86.8149 271.143 86.9977C272.327 87.2649 273.353 87.7197 274.242 88.3667C275.754 89.4685 276.634 91.2407 276.892 93.688H281.18C281.119 91.8174 280.763 90.2046 280.117 88.8449C279.457 87.4994 278.568 86.3742 277.444 85.4834C276.307 84.5926 275.001 83.9409 273.512 83.5283C272.754 83.322 271.962 83.1626 271.143 83.0642V74.9814H267.482V82.9423C266.335 83.0173 265.198 83.2001 264.102 83.5049C262.623 83.9081 261.308 84.5082 260.147 85.3146C258.986 86.1351 258.059 87.1618 257.352 88.4183C256.655 89.6795 256.313 91.1704 256.313 92.8816C256.313 94.4476 256.617 95.7416 257.24 96.7683C257.848 97.8091 258.681 98.653 259.721 99.3C260.746 99.9611 261.916 100.472 263.227 100.875C264.519 101.279 265.853 101.621 267.206 101.926C267.304 101.949 267.389 101.972 267.487 101.986C268.732 102.268 269.954 102.535 271.148 102.807H271.171C272.477 103.088 273.652 103.468 274.678 103.932C275.717 104.396 276.545 104.982 277.154 105.718C277.777 106.455 278.095 107.406 278.095 108.592C278.095 109.779 277.837 110.843 277.327 111.64C276.812 112.432 276.157 113.07 275.324 113.534C274.495 113.989 273.563 114.317 272.538 114.514C272.075 114.598 271.611 114.659 271.148 114.711C270.586 114.772 270.024 114.795 269.463 114.795C268.788 114.795 268.133 114.748 267.482 114.659C266.883 114.584 266.312 114.462 265.736 114.317C264.538 113.998 263.48 113.511 262.576 112.835C261.673 112.165 260.943 111.321 260.381 110.28C259.833 109.253 259.552 108.016 259.552 106.586H255.264C255.264 108.653 255.629 110.44 256.374 111.954C257.118 113.459 258.143 114.706 259.426 115.672C260.718 116.652 262.211 117.374 263.906 117.847C265.053 118.166 266.237 118.372 267.482 118.471V125.977H271.143V118.471C272.093 118.386 273.048 118.236 274.013 118.016C275.586 117.65 277.004 117.05 278.273 116.244C279.541 115.437 280.595 114.387 281.4 113.089C282.205 111.804 282.622 110.252 282.622 108.442C282.622 106.755 282.303 105.348 281.681 104.237C281.072 103.126 280.239 102.207 279.204 101.475Z" fill="url(#paint5_linear_42_71)"/>
<path d="M326.088 208.197L319.524 220.767C307.943 203.523 288.501 193.016 267.52 193.016C254.609 193.016 242.217 196.926 231.68 204.325C221.938 211.165 214.41 220.504 209.818 231.428H151.47C143.812 231.428 136.883 233.041 131.008 235.995L46.2674 190.817L46.0895 190.728C28.8389 183.025 8.54541 190.813 0.854027 208.089C-0.21331 210.49 -0.28353 213.167 0.662094 215.633C1.56559 218.001 3.29767 219.89 5.55874 220.982L142.44 318.735L143.184 319.27H268.091L263.705 327.676L315.307 355L317.984 349.927L271.419 325.271L328.484 215.975L368.313 237.167L371 232.103L326.078 208.202L326.088 208.197ZM145.024 313.531L8.6718 216.153L8.43774 215.985L8.17559 215.867C7.17847 215.422 6.41073 214.606 6.01282 213.575C5.61959 212.539 5.643 211.423 6.08772 210.424C9.17738 203.485 14.809 198.155 21.948 195.417C29.0589 192.688 36.769 192.871 43.6692 195.928L125.363 239.483C117.933 245.057 112.953 253.276 111.431 263.351L111.337 265.522V265.625C111.337 271.401 116.028 276.099 121.796 276.099H230.453V270.365H121.796C119.202 270.365 117.091 268.265 117.063 265.672L117.119 264.05C118.406 255.784 122.385 248.921 128.63 244.19C134.702 239.595 142.604 237.162 151.475 237.162H213.722L214.429 235.324C218.521 224.677 225.622 215.581 234.971 209.018C244.539 202.299 255.793 198.75 267.52 198.75C287.64 198.75 306.211 209.383 316.463 226.627L271.092 313.527H145.019L145.024 313.531Z" fill="url(#paint6_linear_42_71)"/>
<path d="M335.759 245.582C333.222 245.582 331.167 247.641 331.167 250.182C331.167 252.723 333.222 254.781 335.759 254.781C338.296 254.781 340.352 252.723 340.352 250.182C340.352 247.641 338.296 245.582 335.759 245.582Z" fill="url(#paint7_linear_42_71)"/>
<defs>
<linearGradient id="paint0_linear_42_71" x1="22" y1="67" x2="306" y2="355" gradientUnits="userSpaceOnUse">
<stop offset="0.0863081" stop-color="#26BF8C"/>
<stop offset="1" stop-color="#0591DF"/>
</linearGradient>
<linearGradient id="paint1_linear_42_71" x1="22" y1="67" x2="306" y2="355" gradientUnits="userSpaceOnUse">
<stop offset="0.0863081" stop-color="#26BF8C"/>
<stop offset="1" stop-color="#0591DF"/>
</linearGradient>
<linearGradient id="paint2_linear_42_71" x1="22" y1="67" x2="306" y2="355" gradientUnits="userSpaceOnUse">
<stop offset="0.0863081" stop-color="#26BF8C"/>
<stop offset="1" stop-color="#0591DF"/>
</linearGradient>
<linearGradient id="paint3_linear_42_71" x1="22" y1="67" x2="306" y2="355" gradientUnits="userSpaceOnUse">
<stop offset="0.0863081" stop-color="#26BF8C"/>
<stop offset="1" stop-color="#0591DF"/>
</linearGradient>
<linearGradient id="paint4_linear_42_71" x1="22" y1="67" x2="306" y2="355" gradientUnits="userSpaceOnUse">
<stop offset="0.0863081" stop-color="#26BF8C"/>
<stop offset="1" stop-color="#0591DF"/>
</linearGradient>
<linearGradient id="paint5_linear_42_71" x1="22" y1="67" x2="306" y2="355" gradientUnits="userSpaceOnUse">
<stop offset="0.0863081" stop-color="#26BF8C"/>
<stop offset="1" stop-color="#0591DF"/>
</linearGradient>
<linearGradient id="paint6_linear_42_71" x1="22" y1="67" x2="306" y2="355" gradientUnits="userSpaceOnUse">
<stop offset="0.0863081" stop-color="#26BF8C"/>
<stop offset="1" stop-color="#0591DF"/>
</linearGradient>
<linearGradient id="paint7_linear_42_71" x1="22" y1="67" x2="306" y2="355" gradientUnits="userSpaceOnUse">
<stop offset="0.0863081" stop-color="#26BF8C"/>
<stop offset="1" stop-color="#0591DF"/>
</linearGradient>
</defs>
</svg>
