<svg width="156" height="120" viewBox="0 0 156 120" fill="none" xmlns="http://www.w3.org/2000/svg">
<path d="M96.5407 83.4801L95.6383 84.3845L96.5414 85.2883L97.4439 84.3839L96.5407 83.4801Z" fill="white"/>
<path d="M97.7549 84.6962L96.8524 85.6007L97.7556 86.5044L98.6581 85.6L97.7549 84.6962Z" fill="white"/>
<path d="M95.3021 84.6954L94.3996 85.5998L95.3027 86.5036L96.2052 85.5992L95.3021 84.6954Z" fill="white"/>
<path d="M96.5445 85.9555L95.6414 86.8593L96.5439 87.7637L97.447 86.8599L96.5445 85.9555Z" fill="white"/>
<path d="M17.1492 97.2902C17.1318 99.3679 17.1057 100.731 17.0651 101.335C17.0245 102.021 16.8707 102.326 16.7517 102.463C16.5834 102.655 16.2323 102.797 15.739 102.875C14.6712 103.047 12.6748 103.134 9.80205 103.134C7.7012 103.134 6.07913 103.067 4.97647 102.933C4.30617 102.849 4.00439 102.678 3.87091 102.55C3.6852 102.373 3.56043 102.021 3.5111 101.533C3.46467 101.071 3.44145 99.644 3.44145 97.2931V88.6713H0V97.299C0.0232139 99.6556 0.0667398 101.138 0.127676 101.829C0.191514 102.559 0.362717 103.204 0.635479 103.738C1.21583 104.883 2.15889 105.607 3.43855 105.883C4.11175 106.022 4.74433 106.11 5.31887 106.139C5.87891 106.168 7.55901 106.203 10.3302 106.24C13.4756 106.168 15.4923 106.086 16.3251 105.99C17.2044 105.892 17.9762 105.648 18.6291 105.261C19.6941 104.601 20.3121 103.459 20.4717 101.852C20.5356 101.016 20.5762 99.4813 20.5936 97.2931V88.6713H17.1521V97.2902H17.1492Z" fill="white"/>
<path d="M41.1785 89.5344C40.6649 89.1799 40.0903 88.9561 39.4636 88.866C38.8687 88.7905 37.2321 88.7265 34.4552 88.6713H26.458C24.804 88.6713 23.4634 90.0138 23.4634 91.6702V106.194H26.9049V100.025H34.4581C36.1266 100.016 37.1625 100.007 37.5397 100.001C38.6017 99.9695 39.3794 99.8794 39.9191 99.7283C40.4792 99.5714 41.0218 99.272 41.5354 98.8391C42.049 98.4003 42.4175 97.8075 42.6322 97.0781C42.8383 96.3836 42.9398 95.4769 42.9398 94.3088C42.9398 92.8093 42.7483 91.6877 42.3566 90.8856C42.0983 90.3538 41.7037 89.9005 41.1814 89.5402L41.1785 89.5344ZM39.449 94.3756C39.449 95.0875 39.4084 95.6106 39.3243 95.9332C39.2546 96.2005 39.1444 96.401 39.0051 96.5202C38.7584 96.7178 38.4538 96.834 38.0765 96.8747C37.6355 96.9241 36.4138 96.9531 34.4523 96.9619H26.902V91.7254H34.4436C36.4545 91.7661 37.6993 91.8126 38.1462 91.8649C38.5263 91.9114 38.831 92.0189 39.0457 92.1816C39.1879 92.295 39.2836 92.4664 39.3417 92.7105C39.391 92.9227 39.449 93.3847 39.449 94.3727V94.3756Z" fill="white"/>
<path d="M48.4125 88.6684H44.971V103.151C44.971 104.828 46.329 106.188 48.0033 106.188H61.3397V103.128H48.4096V88.6655L48.4125 88.6684Z" fill="white"/>
<path d="M67.4972 88.6684H64.0557V106.191H67.4972V88.6684Z" fill="white"/>
<path d="M81.2514 103.053L73.6198 88.6684H70.0217L78.4541 104.572C78.9822 105.572 79.9804 106.191 81.0599 106.191H81.4516C82.5398 106.191 83.5438 105.56 84.069 104.549L92.3157 88.6713H88.6972L81.2485 103.056L81.2514 103.053Z" fill="white"/>
<path d="M98.2933 88.6684H94.8518V106.191H98.2933V88.6684Z" fill="white"/>
<path d="M119.711 102.628L105.774 88.6684H101.23V106.191H104.671V92.2921L118.547 106.191H123.152V88.6684H119.711V102.628Z" fill="white"/>
<path d="M136.596 96.7468V99.8067H145.124C145.075 101.466 144.91 102.053 144.808 102.256C144.654 102.573 144.251 102.785 143.613 102.887C142.698 103.041 141.248 103.119 139.298 103.119C135.74 103.119 133.41 103.035 132.377 102.872C131.959 102.806 131.643 102.692 131.46 102.547C131.289 102.408 131.152 102.166 131.063 101.835C130.874 101.109 130.778 99.522 130.778 97.1246C130.778 95.506 130.836 94.3262 130.946 93.6172C131.077 92.789 131.289 92.481 131.411 92.3676C131.535 92.2456 131.916 92.0218 133.065 91.8852C134.022 91.7719 135.653 91.7138 137.911 91.7138C139.626 91.7138 141.085 91.7545 142.243 91.8329C143.055 91.894 143.642 91.9666 143.984 92.0509C144.271 92.1206 144.486 92.2194 144.608 92.3357C144.686 92.417 144.941 92.8064 144.973 94.4918L144.982 94.9335H148.493L148.487 94.4773C148.47 93.3614 148.377 92.5304 148.197 91.9405C148.014 91.3302 147.689 90.781 147.231 90.3044C146.482 89.5373 145.502 89.0665 144.309 88.9009C143.772 88.8253 142.809 88.7585 141.369 88.6975C139.956 88.6364 138.668 88.6074 137.542 88.6074C134.008 88.6074 131.675 88.805 130.407 89.2118C129.046 89.6477 128.169 90.5834 127.801 91.9928C127.464 93.2946 127.296 95.1253 127.296 97.4355C127.296 100.844 127.618 103.006 128.277 104.046C128.907 105.055 129.931 105.677 131.324 105.898C132.722 106.115 135.128 106.226 138.468 106.226C142.101 106.226 144.393 106.054 145.478 105.7C146.337 105.418 146.99 105.02 147.42 104.514C147.843 104.012 148.151 103.294 148.334 102.373C148.493 101.568 148.577 99.8765 148.595 97.2001V96.7497H136.602L136.596 96.7468Z" fill="white"/>
<path d="M152.1 84.5769V85.8032H151.63V82.7404H153.49C153.832 82.7404 154.073 82.8014 154.213 82.9205C154.363 83.0513 154.442 83.2867 154.442 83.6267C154.442 83.8795 154.413 84.0596 154.358 84.173C154.282 84.3241 154.067 84.5624 153.806 84.5624C153.96 84.8007 154.627 85.8032 154.627 85.8032H154.041L153.223 84.5769H152.1ZM152.1 84.1585H153.441C153.667 84.1585 153.815 84.112 153.885 84.0219C153.943 83.9492 153.972 83.8301 153.972 83.5918C153.972 83.4058 153.943 83.3099 153.888 83.2518C153.818 83.1792 153.67 83.1443 153.441 83.1443H152.1V84.1585Z" fill="white"/>
<path d="M152.95 87.3404C151.27 87.3404 149.903 85.9717 149.903 84.2892C149.903 82.6067 151.27 81.238 152.95 81.238C154.63 81.238 155.997 82.6067 155.997 84.2892C155.997 85.9717 154.63 87.3404 152.95 87.3404ZM152.95 81.7233C151.537 81.7233 150.388 82.874 150.388 84.2892C150.388 85.7044 151.537 86.8551 152.95 86.8551C154.363 86.8551 155.513 85.7044 155.513 84.2892C155.513 82.874 154.363 81.7233 152.95 81.7233Z" fill="white"/>
<path d="M24.9607 119C24.6531 119 24.3571 118.951 24.0757 118.852C23.7942 118.753 23.5766 118.628 23.4228 118.474L23.5969 118.146C23.742 118.285 23.9393 118.402 24.1859 118.495C24.4326 118.588 24.6908 118.637 24.9636 118.637C25.2364 118.637 25.4366 118.605 25.602 118.541C25.7674 118.477 25.8864 118.393 25.9647 118.285C26.043 118.178 26.0808 118.059 26.0808 117.928C26.0808 117.771 26.0343 117.643 25.9444 117.547C25.8515 117.451 25.7297 117.376 25.5817 117.321C25.4308 117.265 25.2654 117.216 25.0855 117.172C24.9027 117.132 24.7228 117.085 24.5399 117.036C24.3571 116.986 24.1917 116.923 24.0408 116.841C23.89 116.76 23.7681 116.652 23.6752 116.521C23.5824 116.388 23.5359 116.213 23.5388 115.998C23.5388 115.798 23.594 115.615 23.7042 115.446C23.8145 115.278 23.9799 115.144 24.2062 115.042C24.4326 114.941 24.7199 114.888 25.071 114.888C25.3031 114.888 25.5352 114.92 25.7645 114.984C25.9937 115.048 26.191 115.135 26.3564 115.246L26.2084 115.586C26.0314 115.47 25.8428 115.385 25.6426 115.333C25.4424 115.278 25.2509 115.252 25.0652 115.252C24.8156 115.252 24.6125 115.284 24.45 115.35C24.2875 115.414 24.1685 115.504 24.0902 115.612C24.0118 115.722 23.9741 115.844 23.9741 115.984C23.9741 116.141 24.0205 116.269 24.1105 116.365C24.2033 116.46 24.3252 116.536 24.4761 116.591C24.627 116.646 24.7953 116.693 24.9752 116.737C25.1551 116.78 25.3379 116.824 25.5178 116.876C25.6977 116.925 25.8631 116.989 26.014 117.071C26.1649 117.149 26.2868 117.254 26.3796 117.385C26.4725 117.515 26.5189 117.687 26.516 117.899C26.516 118.096 26.458 118.277 26.3477 118.445C26.2375 118.614 26.0663 118.747 25.8399 118.849C25.6136 118.951 25.3205 119.003 24.9665 119.003L24.9607 119Z" fill="white"/>
<path d="M31.5215 119C31.2081 119 30.9209 118.948 30.6539 118.846C30.3869 118.744 30.1577 118.599 29.9633 118.413C29.7689 118.227 29.618 118.009 29.5106 117.762C29.4032 117.515 29.351 117.242 29.351 116.946C29.351 116.649 29.4062 116.376 29.5164 116.129C29.6267 115.882 29.7776 115.664 29.9749 115.478C30.1722 115.292 30.4014 115.147 30.6655 115.045C30.9296 114.944 31.2197 114.891 31.536 114.891C31.8523 114.891 32.1367 114.944 32.4007 115.045C32.6648 115.147 32.894 115.289 33.0884 115.475C33.2829 115.661 33.4338 115.876 33.5411 116.126C33.6485 116.376 33.7007 116.649 33.7007 116.946C33.7007 117.242 33.6456 117.515 33.5353 117.765C33.425 118.015 33.2742 118.233 33.0768 118.416C32.8795 118.602 32.6503 118.744 32.3862 118.846C32.1222 118.948 31.832 119 31.5215 119ZM31.5215 118.62C31.7711 118.62 32.0003 118.579 32.2121 118.495C32.424 118.413 32.6068 118.294 32.7635 118.143C32.9201 117.992 33.042 117.815 33.1291 117.611C33.2161 117.408 33.2626 117.187 33.2626 116.946C33.2626 116.705 33.2219 116.481 33.1349 116.28C33.0478 116.077 32.9289 115.903 32.7722 115.749C32.6155 115.597 32.4327 115.478 32.2237 115.397C32.0119 115.316 31.7827 115.272 31.5331 115.272C31.2836 115.272 31.0543 115.313 30.8396 115.397C30.6249 115.481 30.4392 115.597 30.2825 115.749C30.1229 115.9 30.001 116.077 29.914 116.28C29.8269 116.484 29.7805 116.705 29.7805 116.946C29.7805 117.184 29.8211 117.405 29.9081 117.608C29.9952 117.812 30.1171 117.989 30.2738 118.143C30.4305 118.294 30.6162 118.413 30.828 118.495C31.0398 118.579 31.272 118.62 31.5215 118.62ZM30.561 114.598L31.3329 114.054H31.7478L32.5168 114.598H32.1135L31.3735 114.159H31.7043L30.9615 114.598H30.5581H30.561ZM32.0786 114.118L32.7983 113.496H33.309L32.453 114.118H32.0786Z" fill="white"/>
<path d="M36.9274 118.965L36.9419 114.926H37.3018L40.1484 118.434H39.9598L39.9743 114.926H40.4066L40.3921 118.965H40.0294L37.1886 115.458H37.3772L37.3627 118.965H36.9245H36.9274Z" fill="white"/>
<path d="M45.8125 119C45.4963 119 45.2061 118.948 44.9391 118.846C44.6722 118.745 44.4429 118.602 44.2485 118.416C44.0541 118.23 43.9032 118.015 43.7958 117.765C43.6885 117.515 43.6362 117.242 43.6362 116.946C43.6362 116.649 43.6914 116.376 43.8016 116.126C43.9119 115.876 44.0657 115.658 44.263 115.475C44.4603 115.289 44.6925 115.147 44.9594 115.045C45.2264 114.944 45.5166 114.891 45.8329 114.891C46.1491 114.891 46.4364 114.941 46.7005 115.037C46.9616 115.132 47.1851 115.278 47.3708 115.475L47.098 115.746C46.9239 115.577 46.7353 115.455 46.5264 115.382C46.3174 115.31 46.0911 115.272 45.8503 115.272C45.5949 115.272 45.357 115.313 45.1422 115.397C44.9275 115.481 44.7389 115.597 44.5793 115.749C44.4197 115.9 44.2949 116.077 44.205 116.28C44.115 116.484 44.0715 116.705 44.0686 116.946C44.0686 117.184 44.1121 117.405 44.1992 117.608C44.2862 117.812 44.411 117.989 44.5706 118.143C44.7302 118.294 44.9159 118.413 45.1306 118.495C45.3454 118.579 45.5804 118.62 45.8329 118.62C46.0708 118.62 46.2942 118.585 46.5061 118.515C46.7179 118.445 46.9123 118.329 47.0893 118.163L47.336 118.486C47.1386 118.654 46.9065 118.782 46.6424 118.869C46.3784 118.957 46.0998 119 45.8125 119ZM46.9152 118.434L46.921 116.946H47.3418L47.336 118.486L46.9152 118.434Z" fill="white"/>
<path d="M55.8003 118.965L53.9809 114.926H54.4539L56.1572 118.73H55.8961L57.64 114.926H58.084L56.2327 118.965H55.8003Z" fill="white"/>
<path d="M62.6774 119C62.1493 119 61.7314 118.852 61.4297 118.556C61.1279 118.259 60.977 117.82 60.9799 117.239L60.9886 114.926H61.4268L61.4181 117.222C61.4181 117.698 61.5254 118.05 61.7459 118.277C61.9665 118.503 62.277 118.617 62.6803 118.617C63.0836 118.617 63.3999 118.503 63.6234 118.277C63.8468 118.05 63.9571 117.698 63.96 117.222L63.9687 114.926H64.3952L64.3865 117.239C64.3865 117.82 64.2327 118.259 63.9281 118.556C63.6263 118.852 63.2084 119 62.6803 119H62.6774Z" fill="white"/>
<path d="M67.947 118.965L67.9615 114.926H68.3996L68.3851 118.965H67.947Z" fill="white"/>
<path d="M75.2129 118.965L76.922 116.725V117.053L75.329 114.923H75.831L77.1687 116.702L76.9742 116.707L78.3264 114.923H78.7994L77.2093 117.024V116.725L78.8952 118.965H78.3874L76.9626 117.068H77.1454L75.7178 118.965H75.2129Z" fill="white"/>
<path d="M83.6511 119C83.123 119 82.7052 118.852 82.4034 118.556C82.1016 118.259 81.9507 117.82 81.9536 117.239L81.9623 114.926H82.4005L82.3918 117.222C82.3918 117.698 82.4991 118.05 82.7197 118.277C82.9402 118.503 83.2507 118.617 83.654 118.617C84.0574 118.617 84.3737 118.503 84.5971 118.277C84.8176 118.05 84.9308 117.698 84.9337 117.222L84.9424 114.926H85.3689L85.3602 117.239C85.3602 117.82 85.2065 118.259 84.9018 118.556C84.5971 118.852 84.1821 119 83.654 119H83.6511ZM83.2826 114.598L84.0951 113.883H84.658L83.6946 114.598H83.2797H83.2826ZM85.1629 115.237V114.926H85.2529C85.3922 114.926 85.4908 114.888 85.5518 114.81C85.6127 114.731 85.6446 114.641 85.6446 114.534C85.6446 114.461 85.633 114.394 85.6127 114.33C85.5924 114.269 85.5634 114.214 85.5285 114.162L85.8071 114.057C85.8535 114.121 85.8913 114.197 85.9174 114.278C85.9435 114.359 85.958 114.45 85.958 114.54C85.958 114.743 85.8971 114.909 85.7781 115.039C85.6591 115.17 85.4821 115.231 85.25 115.231H85.16L85.1629 115.237Z" fill="white"/>
<path d="M88.9497 118.965L88.9642 114.926H89.324L92.1706 118.434H91.982L91.9965 114.926H92.4289L92.4144 118.965H92.0516L89.2108 115.458H89.3995L89.3849 118.965H88.9468H88.9497Z" fill="white"/>
<path d="M97.7129 119C97.3966 119 97.1065 118.948 96.8395 118.846C96.5725 118.745 96.3433 118.602 96.1489 118.416C95.9545 118.23 95.8036 118.015 95.6962 117.765C95.5889 117.515 95.5366 117.242 95.5366 116.946C95.5366 116.649 95.5917 116.376 95.702 116.126C95.8123 115.876 95.9661 115.658 96.1634 115.475C96.3607 115.292 96.5928 115.147 96.8598 115.045C97.1268 114.944 97.4169 114.891 97.7332 114.891C98.0495 114.891 98.3368 114.941 98.6008 115.037C98.862 115.132 99.0854 115.278 99.2711 115.475L98.9984 115.746C98.8243 115.577 98.6357 115.455 98.4267 115.382C98.2178 115.31 97.9944 115.272 97.7506 115.272C97.4953 115.272 97.2573 115.313 97.0426 115.397C96.8279 115.481 96.6393 115.597 96.4797 115.749C96.3201 115.9 96.1953 116.077 96.1054 116.28C96.0154 116.484 95.9719 116.705 95.969 116.946C95.969 117.184 96.0125 117.405 96.0995 117.608C96.1866 117.812 96.3114 117.989 96.471 118.143C96.6306 118.297 96.8163 118.413 97.031 118.495C97.2457 118.579 97.4808 118.62 97.7332 118.62C97.9712 118.62 98.1946 118.585 98.4064 118.515C98.6183 118.445 98.8127 118.329 98.9897 118.163L99.2363 118.486C99.039 118.654 98.8069 118.782 98.5428 118.869C98.2787 118.957 98.0002 119 97.7129 119ZM98.8156 118.434L98.8214 116.946H99.2421L99.2363 118.486L98.8156 118.434Z" fill="white"/>
<path d="M107.448 118.965L107.463 115.295H106.006V114.926H109.36V115.295H107.901L107.886 118.965H107.448Z" fill="white"/>
<path d="M111.659 118.965L113.568 114.926H114L115.881 118.965H115.419L113.693 115.173H113.87L112.114 118.965H111.659ZM112.41 117.887L112.541 117.541H114.952L115.08 117.887H112.41ZM112.814 114.598L113.585 114.054H114L114.769 114.598H114.366L113.626 114.159H113.957L113.214 114.598H112.811H112.814ZM114.685 114.118L113.829 113.496H114.346L115.054 114.118H114.685Z" fill="white"/>
<path d="M118.82 118.965L118.835 114.926H119.197L121.081 118.076H120.892L122.781 114.926H123.144L123.129 118.965H122.708L122.723 115.565H122.825L121.083 118.451H120.877L119.148 115.565H119.261L119.247 118.965H118.82Z" fill="white"/>
<path d="M71.1476 38.8903C71.1476 38.8903 68.7478 36.4871 68.7478 33.2267V4.46116L70.7065 2.49967C72.7058 0.497505 75.947 0.497505 77.9463 2.49967L88.2562 12.9377L88.1691 13.0336L80.6275 20.4523C79.815 21.4258 79.757 21.8036 79.7396 23.1171V47.5179C76.8785 44.5946 71.1505 38.8874 71.1505 38.8874L71.1476 38.8903Z" fill="white"/>
<path d="M107.039 40.4479C107.039 45.5419 105.263 50.2204 102.295 53.8993C101.941 54.3381 101.572 54.7623 101.186 55.1692C101.18 55.175 101.178 55.1779 101.172 55.1837L100.339 56.0148L99.245 57.1132L77.9492 78.4396C75.947 80.4418 72.7058 80.4418 70.7065 78.4396L47.3011 55.0006C43.7697 51.1794 41.6079 46.0679 41.6079 40.4508C41.6079 34.8337 43.6043 30.1116 46.9007 26.3426L54.1318 19.1011L54.7209 18.5083V39.178C54.7209 42.4413 57.1177 44.8445 57.1177 44.8445C57.1177 44.8445 67.4595 55.2011 70.3177 58.1187C70.9909 58.8044 71.6583 59.2985 72.3112 59.6326C72.3431 59.6501 72.3779 59.6646 72.4098 59.682C73.8752 60.394 75.2651 60.3039 76.4374 59.7837C76.4635 59.7721 76.4926 59.7605 76.5187 59.746C76.9829 59.528 77.4124 59.2461 77.8012 58.9178L78.2626 58.4528L79.6816 57.026L91.7673 44.8997C91.7673 44.8997 93.755 43.3305 93.7753 41.0523V18.9355L93.7637 18.1625L99.0042 23.5965C99.0042 23.5965 99.0071 23.5965 99.01 23.5994L101.682 26.2758C101.955 26.5838 102.219 26.9005 102.475 27.226H102.478C105.33 30.87 107.036 35.4613 107.036 40.4479H107.039Z" fill="white"/>
</svg>
