<svg width="527" height="192" viewBox="0 0 527 192" fill="none" xmlns="http://www.w3.org/2000/svg">
<rect x="133" y="133" width="195" height="5" fill="url(#paint0_linear_145_32)"/>
<path d="M449.125 60L448.402 60.6905L448.697 61H449.125V60ZM447.812 58.625L448.536 57.9345L447.887 57.2546L447.168 57.8604L447.812 58.625ZM437.359 49.0938L437.862 49.9585L437.863 49.9575L437.359 49.0938ZM438.531 48.4844L438.95 49.3923L440.246 48.7943L439.242 47.7806L438.531 48.4844ZM445.078 49.1094L444.588 48.2376L443.482 48.859L444.345 49.7892L445.078 49.1094ZM447.859 52.1094L447.126 52.7892L448.028 53.7625L448.715 52.6268L447.859 52.1094ZM448.344 48.1719V47.1719H447.344V48.1719H448.344ZM453.141 48.1719H454.141V47.1719H453.141V48.1719ZM451.281 55.6562L450.52 55.0081L449.93 55.7006L450.564 56.353L451.281 55.6562ZM455.5 60V61H457.865L456.217 59.3033L455.5 60ZM444.828 55.3906L445.583 56.0463L446.177 55.3625L445.555 54.704L444.828 55.3906ZM441.109 51.4531L441.836 50.7665L441.369 50.2721L440.738 50.5246L441.109 51.4531ZM442.484 46.5625L441.802 47.2932L442.324 47.7813L442.955 47.4449L442.484 46.5625ZM449.848 59.3095L448.536 57.9345L447.089 59.3155L448.402 60.6905L449.848 59.3095ZM447.168 57.8604C446.295 58.5961 444.37 59.4531 441.469 59.4531V61.4531C444.724 61.4531 447.142 60.4977 448.457 59.3896L447.168 57.8604ZM441.469 59.4531C439.098 59.4531 437.406 58.8888 436.329 58.0333C435.278 57.1988 434.719 56.0166 434.719 54.5312H432.719C432.719 56.5772 433.519 58.3559 435.085 59.5996C436.625 60.8221 438.808 61.4531 441.469 61.4531V59.4531ZM434.719 54.5312C434.719 53.4216 435.031 52.5792 435.547 51.8782C436.078 51.1572 436.86 50.5406 437.862 49.9585L436.857 48.229C435.734 48.8813 434.695 49.6631 433.937 50.6921C433.164 51.7411 432.719 53.0003 432.719 54.5312H434.719ZM437.863 49.9575C438.21 49.7553 438.572 49.5669 438.95 49.3923L438.112 47.5764C437.678 47.7769 437.259 47.9947 436.856 48.23L437.863 49.9575ZM439.242 47.7806C437.59 46.1132 436.891 45.0227 436.891 43.6719H434.891C434.891 45.8836 436.129 47.4806 437.821 49.1882L439.242 47.7806ZM436.891 43.6719C436.891 42.4289 437.483 41.4206 438.495 40.6899C439.528 39.9445 440.996 39.5 442.625 39.5V37.5C440.66 37.5 438.761 38.032 437.325 39.068C435.869 40.1185 434.891 41.6961 434.891 43.6719H436.891ZM442.625 39.5C444.017 39.5 445.439 39.825 446.477 40.4919C447.473 41.1313 448.125 42.0789 448.125 43.4844H450.125C450.125 41.3118 449.05 39.7671 447.558 38.8089C446.108 37.8781 444.279 37.5 442.625 37.5V39.5ZM448.125 43.4844C448.125 45.7268 446.426 47.2046 444.588 48.2376L445.568 49.9811C447.511 48.8892 450.125 46.8982 450.125 43.4844H448.125ZM444.345 49.7892L447.126 52.7892L448.593 51.4295L445.811 48.4295L444.345 49.7892ZM448.715 52.6268C449.274 51.7026 449.344 50.5527 449.344 49.7969H447.344C447.344 50.5098 447.257 51.1724 447.004 51.592L448.715 52.6268ZM449.344 49.7969V48.1719H447.344V49.7969H449.344ZM448.344 49.1719H453.141V47.1719H448.344V49.1719ZM452.141 48.1719V50.2969H454.141V48.1719H452.141ZM452.141 50.2969C452.141 51.8461 451.585 53.7565 450.52 55.0081L452.043 56.3044C453.478 54.6185 454.141 52.2164 454.141 50.2969H452.141ZM450.564 56.353L454.783 60.6967L456.217 59.3033L451.999 54.9595L450.564 56.353ZM455.5 59H449.125V61H455.5V59ZM440.126 50.83C439.239 51.3624 438.219 52.4528 438.219 54.0156H440.219C440.219 53.3909 440.636 52.8564 441.155 52.545L440.126 50.83ZM438.219 54.0156C438.219 55.0365 438.663 55.9088 439.411 56.5036C440.14 57.0829 441.102 57.3594 442.125 57.3594V55.3594C441.445 55.3594 440.954 55.175 440.655 54.9378C440.376 54.7162 440.219 54.4167 440.219 54.0156H438.219ZM442.125 57.3594C442.781 57.3594 443.441 57.2478 444.027 57.0404C444.601 56.837 445.175 56.5163 445.583 56.0463L444.073 54.7349C443.966 54.8587 443.734 55.0223 443.36 55.155C442.997 55.2834 442.563 55.3594 442.125 55.3594V57.3594ZM445.555 54.704L441.836 50.7665L440.382 52.1397L444.101 56.0772L445.555 54.704ZM440.738 50.5246C440.528 50.6085 440.324 50.7111 440.126 50.83L441.155 52.545C441.269 52.4764 441.378 52.4227 441.481 52.3816L440.738 50.5246ZM442.955 47.4449C444.259 46.7495 445.391 45.6872 445.391 44.0156H443.391C443.391 44.594 443.054 45.1255 442.014 45.6801L442.955 47.4449ZM445.391 44.0156C445.391 43.2034 445.111 42.479 444.582 41.9565C444.058 41.439 443.358 41.1875 442.641 41.1875V43.1875C442.892 43.1875 443.067 43.2719 443.176 43.3795C443.28 43.4819 443.391 43.6716 443.391 44.0156H445.391ZM442.641 41.1875C441.102 41.1875 439.828 42.3412 439.828 43.9844H441.828C441.828 43.5026 442.148 43.1875 442.641 43.1875V41.1875ZM439.828 43.9844C439.828 45.2905 440.632 46.2008 441.802 47.2932L443.167 45.8318C441.961 44.7055 441.828 44.3345 441.828 43.9844H439.828Z" fill="white"/>
<path d="M39 108.5C31 112.1 24.5848 115.35 18.9348 118.97C12.6848 122.97 7.99478 126.94 4.98478 130.79C1.97478 134.64 0.684777 138.31 1.06478 141.77C1.45478 145.24 3.50478 148.54 7.28478 151.64C11.0648 154.74 16.5048 157.59 23.4748 160.13C31.9548 163.23 42.6248 165.85 55.1548 167.95C63.2248 169.31 72.0648 170.46 81.5848 171.38C107.205 173.87 137.745 174.74 171.535 173.84C201.915 173.03 234.925 170.79 269.325 166.99M465.575 126.17C483.205 119.82 497.505 113.23 507.745 106.67C513.995 102.67 518.685 98.7 521.695 94.85C524.705 90.99 525.995 87.33 525.615 83.86C525.225 80.4 523.175 77.1 519.395 74C515.615 70.89 510.175 68.05 503.205 65.5C498.715 63.86 493.625 62.36 487.955 61" stroke="url(#paint1_linear_145_32)" stroke-width="2"/>
<path d="M73.8125 42.3438H84.4062C84.5625 44.875 87 47.3438 91.7188 47.3438C96.2188 47.3438 98.1875 45.4375 98.1875 42.9375C98.1875 40.4375 96.0625 39.3438 91.9688 38.5312L86.2188 37.375C79.6875 36.0938 74.6562 32.6562 74.6562 25.0625C74.6562 16.4375 81.75 11.5625 91.625 11.5625C102.5 11.5625 108.375 17.6562 108.406 24.75H98.1562C98.0312 22.375 95.9688 19.875 91.625 19.875C87.7812 19.875 85.7812 21.6562 85.7812 24.1562C85.7812 26.3125 87.8125 27.5625 91.4375 28.2188L97.4062 29.3438C103.469 30.4375 109.188 33.4688 109.188 41.7812C109.188 50.125 102.969 55.75 91.375 55.75C78.0312 55.75 73.875 48.625 73.8125 42.3438ZM128.219 62.9062C128.219 60.1562 130.312 58.0938 132.875 58.0938C135.656 58.0938 137.75 60.1562 137.75 62.9062C137.75 65.5938 135.656 67.5938 132.875 67.5938C130.312 67.5938 128.219 65.5938 128.219 62.9062ZM132.875 55.6875C121.719 55.6875 114.688 49.5625 114.688 40.125V12.3438H125.875V38.75C125.875 43.9688 128.75 46.4062 132.875 46.4062C137 46.4062 139.875 43.875 139.875 38.75V12.3438H151.125C153.312 12.3438 154.062 11.2812 154.062 9.15625V4.65625H162.344V10.6875C162.344 15.7812 159.25 19.9062 153.719 19.9062H151.094V40.1562C151.094 49.5625 144.062 55.6875 132.875 55.6875ZM210.438 26.625H199.625C199.219 23.1875 196.594 20.6875 192.469 20.6875C187.625 20.6875 184.625 24.1875 184.625 31.1562V35.9688C184.625 41.8125 186.5 46.6562 192.688 46.6562C197.375 46.6562 199.938 43.6875 199.938 40.4688V39.0625H193.188V31.3438H210.469V39.5625C210.469 47.2188 205.656 55.75 192.438 55.75C178.844 55.75 173.312 46.8438 173.312 36.0312V31.0312C173.312 19.5938 180.156 11.5938 192.562 11.5938C204.625 11.5938 210.312 19.1875 210.438 26.625ZM227.938 55H216.719V12.3438H227.938V55ZM243.219 55H232.094L245.594 12.3438H259.438L272.844 55H260.906L258.438 45.75H245.719L243.219 55ZM252.406 22.0938H251.875L247.719 37.7188H256.5L252.406 22.0938ZM257.594 8.1875H248.75L238.875 1.1875H249.188L257.594 8.1875ZM287.75 12.3438V38.8125C287.75 44.0312 290.625 46.4688 294.75 46.4688C298.875 46.4688 301.75 43.9688 301.75 38.8125V12.3438H312.969V40.25C312.969 49.6562 305.938 55.75 294.75 55.75C283.594 55.75 276.562 49.625 276.562 40.2188V12.3438H287.75ZM342.562 31.5625V35.9062C342.562 43.0312 345.406 46.5625 350.094 46.5625C354.656 46.5625 357.031 43.1875 357.031 38.9688H367.688V40.4375C367.688 49.1875 360.719 55.75 349.938 55.75C337.906 55.75 331.125 48.1562 331.125 35.8438V31.5625C331.125 19.2188 337.938 11.5938 349.938 11.5938C360.625 11.5938 367.688 18.125 367.688 27.1562V28.5625H357.031C357.031 24.3438 354.625 20.7812 350.031 20.7812C345.406 20.7812 342.562 24.4375 342.562 31.5625ZM385.125 8.1875L393.938 0.8125H404.844L394.469 8.1875H385.125ZM383.438 31.2812V36.1875C383.438 43.1875 386.594 46.75 391.375 46.75C396.125 46.75 399.281 43.1875 399.281 36.1875V31.2812C399.281 24.2812 396.125 20.625 391.375 20.625C386.594 20.625 383.438 24.2812 383.438 31.2812ZM372 36.125V31.4375C372 19.3125 379.031 11.5938 391.375 11.5938C403.75 11.5938 410.719 19.375 410.719 31.4375V36.125C410.719 48.125 403.75 55.75 391.344 55.75C379 55.75 372 48.125 372 36.125ZM94.875 120H83.6875V86.4375H72.3125V77.3438H106.25V86.4375H94.875V120ZM147.625 120H136.438V102.969H121.812V120H110.594V77.3438H121.812V93.9688H136.438V77.3438H147.625V120ZM162.906 120H151.781L165.281 77.3438H179.125L192.531 120H180.594L178.125 110.75H165.406L162.906 120ZM172.094 87.0938H171.562L167.406 102.719H176.188L172.094 87.0938ZM177.281 73.1875H168.438L158.562 66.1875H168.875L177.281 73.1875ZM207.094 120H196.719V77.3438H205.406L221.688 101.156H222.125V77.3438H232.469V120H223.844L207.5 95.9062H207.094V120ZM277.438 120H266.25V102.969H251.625V120H240.406V77.3438H251.625V93.9688H266.25V77.3438H277.438V120ZM307.5 96.5625V100.906C307.5 108.031 310.344 111.562 315.031 111.562C319.594 111.562 321.969 108.188 321.969 103.969H332.625V105.438C332.625 114.188 325.656 120.75 314.875 120.75C302.844 120.75 296.062 113.156 296.062 100.844V96.5625C296.062 84.2188 302.875 76.5938 314.875 76.5938C325.562 76.5938 332.625 83.125 332.625 92.1562V93.5625H321.969C321.969 89.3438 319.562 85.7812 314.969 85.7812C310.344 85.7812 307.5 89.4375 307.5 96.5625ZM344.406 73.5938L352.594 65.8438H360.312L368.188 73.5938H360.281L356.656 69.9062H356.062L352.281 73.5938H344.406ZM348.375 96.2812V101.188C348.375 108.188 351.531 111.75 356.312 111.75C361.062 111.75 364.219 108.188 364.219 101.188V96.2812C364.219 89.2812 361.062 85.625 356.312 85.625C351.531 85.625 348.375 89.2812 348.375 96.2812ZM336.938 101.125V96.4375C336.938 84.3125 343.969 76.5938 356.312 76.5938C368.688 76.5938 375.656 84.375 375.656 96.4375V101.125C375.656 113.125 368.688 120.75 356.281 120.75C343.938 120.75 336.938 113.125 336.938 101.125ZM392.281 120H381.906V77.3438H390.594L406.875 101.156H407.312V77.3438H417.656V120H409.031L392.688 95.9062H392.281V120ZM461 91.625H450.188C449.781 88.1875 447.156 85.6875 443.031 85.6875C438.188 85.6875 435.188 89.1875 435.188 96.1562V100.969C435.188 106.812 437.062 111.656 443.25 111.656C447.938 111.656 450.5 108.688 450.5 105.469V104.062H443.75V96.3438H461.031V104.562C461.031 112.219 456.219 120.75 443 120.75C429.406 120.75 423.875 111.844 423.875 101.031V96.0312C423.875 84.5938 430.719 76.5938 443.125 76.5938C455.188 76.5938 460.875 84.1875 461 91.625Z" fill="url(#paint2_linear_145_32)"/>
<path d="M324.906 158.062V159.062H325.914L325.906 158.054L324.906 158.062ZM315.188 158.062L314.189 158.111L314.235 159.062H315.188V158.062ZM315.25 166.688V165.688H314.336L314.254 166.598L315.25 166.688ZM324.969 166.688L325.969 166.698L325.979 165.688H324.969V166.688ZM295.375 163.312V160.875H293.375V163.312H295.375ZM295.375 160.875C295.375 156.378 296.769 152.652 299.261 150.056C301.746 147.466 305.416 145.906 310.156 145.906V143.906C304.959 143.906 300.738 145.628 297.818 148.671C294.903 151.708 293.375 155.965 293.375 160.875H295.375ZM310.156 145.906C314.565 145.906 317.978 147.226 320.286 149.359C322.59 151.488 323.877 154.504 323.906 158.071L325.906 158.054C325.873 153.996 324.395 150.433 321.644 147.891C318.897 145.352 314.966 143.906 310.156 143.906V145.906ZM324.906 157.062H315.188V159.062H324.906V157.062ZM316.186 158.014C316.044 155.097 314.039 152.125 310.531 152.125V154.125C312.648 154.125 314.081 155.903 314.189 158.111L316.186 158.014ZM310.531 152.125C308.488 152.125 306.875 153.122 305.815 154.747C304.78 156.333 304.281 158.49 304.281 160.906H306.281C306.281 158.729 306.736 156.995 307.49 155.839C308.219 154.722 309.231 154.125 310.531 154.125V152.125ZM304.281 160.906V163.188H306.281V160.906H304.281ZM304.281 163.188C304.281 165.854 304.782 168.108 305.823 169.728C306.895 171.397 308.516 172.344 310.531 172.344V170.344C309.234 170.344 308.23 169.775 307.505 168.647C306.749 167.47 306.281 165.646 306.281 163.188H304.281ZM310.531 172.344C312.46 172.344 313.885 171.697 314.836 170.577C315.754 169.497 316.127 168.099 316.246 166.777L314.254 166.598C314.154 167.713 313.855 168.644 313.312 169.282C312.803 169.881 311.977 170.344 310.531 170.344V172.344ZM315.25 167.688H324.969V165.688H315.25V167.688ZM323.969 166.677C323.925 170.814 322.391 173.753 319.981 175.68C317.541 177.631 314.098 178.625 310.125 178.625V180.625C314.402 180.625 318.334 179.557 321.23 177.242C324.156 174.903 325.919 171.373 325.969 166.698L323.969 166.677ZM310.125 178.625C305.532 178.625 301.874 177.23 299.363 174.691C296.853 172.152 295.375 168.351 295.375 163.312H293.375C293.375 168.743 294.975 173.098 297.941 176.098C300.908 179.098 305.124 180.625 310.125 180.625V178.625ZM361.75 145.531H362.75V144.531H361.75V145.531ZM361.75 179V180H362.75V179H361.75ZM351.25 179H350.25V180H351.25V179ZM351.25 173.688H352.25V172.688H351.25V173.688ZM350.719 173.688V172.688H350.012L349.776 173.354L350.719 173.688ZM330 145.531V144.531H329V145.531H330ZM340.844 145.531H341.844V144.531H340.844V145.531ZM350.906 145.531V144.531H349.906V145.531H350.906ZM341.188 134.344H340.188V135.795L341.543 135.278L341.188 134.344ZM341.188 130.156L340.803 129.233L340.188 129.49V130.156H341.188ZM346.688 142.219L345.919 142.859L346.429 143.47L347.139 143.111L346.688 142.219ZM344.031 139.031L343.542 138.159L342.493 138.748L343.263 139.671L344.031 139.031ZM360.75 145.531V179H362.75V145.531H360.75ZM361.75 178H351.25V180H361.75V178ZM352.25 179V173.688H350.25V179H352.25ZM351.25 172.688H350.719V174.688H351.25V172.688ZM349.776 173.354C349.01 175.521 346.384 178.469 341.062 178.469V180.469C347.241 180.469 350.615 176.979 351.662 174.021L349.776 173.354ZM341.062 178.469C337.9 178.469 335.423 177.539 333.732 175.783C332.037 174.023 331 171.295 331 167.438H329C329 171.642 330.135 174.93 332.291 177.17C334.452 179.414 337.507 180.469 341.062 180.469V178.469ZM331 167.438V145.531H329V167.438H331ZM330 146.531H340.844V144.531H330V146.531ZM339.844 145.531V164.656H341.844V145.531H339.844ZM339.844 164.656C339.844 167.261 340.571 169.047 341.8 170.165C343.01 171.267 344.536 171.562 345.812 171.562V169.562C344.808 169.562 343.85 169.327 343.146 168.686C342.46 168.062 341.844 166.895 341.844 164.656H339.844ZM345.812 171.562C347.391 171.562 348.94 171.008 350.091 169.799C351.244 168.589 351.906 166.821 351.906 164.562H349.906C349.906 166.429 349.366 167.661 348.643 168.42C347.92 169.179 346.922 169.562 345.812 169.562V171.562ZM351.906 164.562V145.531H349.906V164.562H351.906ZM350.906 146.531H361.75V144.531H350.906V146.531ZM342.188 134.344V130.156H340.188V134.344H342.188ZM341.572 131.079C342.168 130.831 343.248 130.594 344.719 130.594V128.594C343.065 128.594 341.707 128.856 340.803 129.233L341.572 131.079ZM344.719 130.594C346.828 130.594 348.383 131.125 349.392 131.956C350.378 132.768 350.938 133.942 350.938 135.469H352.938C352.938 133.402 352.153 131.639 350.663 130.412C349.195 129.203 347.141 128.594 344.719 128.594V130.594ZM350.938 135.469C350.938 137.016 350.445 138.098 349.659 138.972C348.84 139.882 347.668 140.603 346.236 141.326L347.139 143.111C348.613 142.366 350.066 141.509 351.146 140.31C352.258 139.074 352.938 137.516 352.938 135.469H350.938ZM347.456 141.579L344.799 138.391L343.263 139.671L345.919 142.859L347.456 141.579ZM344.521 139.903C346.282 138.914 347.625 137.878 347.625 136.094H345.625C345.625 136.622 345.343 137.148 343.542 138.159L344.521 139.903ZM347.625 136.094C347.625 135.167 347.23 134.334 346.489 133.758C345.771 133.199 344.806 132.938 343.719 132.938V134.938C344.507 134.938 344.994 135.129 345.261 135.336C345.504 135.525 345.625 135.77 345.625 136.094H347.625ZM343.719 132.938C342.69 132.938 341.627 133.106 340.832 133.409L341.543 135.278C342.061 135.081 342.872 134.938 343.719 134.938V132.938ZM386.719 174.938V173.938H386.069L385.805 174.531L386.719 174.938ZM386.719 159.25V160.25H387.719V159.25H386.719ZM378.406 156.375V157.375H379.348L379.404 156.435L378.406 156.375ZM368.281 156.375L367.282 156.346L367.252 157.375H368.281V156.375ZM397.375 179V180H398.375V179H397.375ZM387.25 179H386.25V180H387.25V179ZM387.25 174.938H388.25V173.938H387.25V174.938ZM386.719 164.938H387.719V163.938H386.719V164.938ZM385.805 174.531C384.985 176.375 382.719 178.469 378.125 178.469V180.469C383.406 180.469 386.452 178 387.633 175.344L385.805 174.531ZM378.125 178.469C375.043 178.469 372.534 177.592 370.808 176.061C369.098 174.542 368.062 172.296 368.062 169.344H366.062C366.062 172.798 367.293 175.614 369.481 177.556C371.654 179.486 374.676 180.469 378.125 180.469V178.469ZM368.062 169.344C368.062 166.509 369.032 164.281 370.816 162.746C372.62 161.195 375.376 160.25 379.125 160.25V158.25C375.061 158.25 371.786 159.274 369.512 161.23C367.218 163.203 366.062 166.022 366.062 169.344H368.062ZM379.125 160.25H386.719V158.25H379.125V160.25ZM387.719 159.25V156.406H385.719V159.25H387.719ZM387.719 156.406C387.719 154.998 387.239 153.804 386.267 152.982C385.32 152.182 384.036 151.844 382.625 151.844V153.844C383.745 153.844 384.508 154.115 384.976 154.51C385.417 154.883 385.719 155.471 385.719 156.406H387.719ZM382.625 151.844C381.119 151.844 379.84 152.253 378.906 153.073C377.967 153.898 377.484 155.048 377.408 156.315L379.404 156.435C379.454 155.608 379.752 154.992 380.226 154.576C380.707 154.153 381.475 153.844 382.625 153.844V151.844ZM378.406 155.375H368.281V157.375H378.406V155.375ZM369.281 156.404C369.354 153.883 370.144 151.323 372.127 149.392C374.106 147.466 377.41 146.031 382.781 146.031V144.031C377.059 144.031 373.191 145.566 370.732 147.959C368.278 150.349 367.365 153.461 367.282 156.346L369.281 156.404ZM382.781 146.031C386.823 146.031 390.231 146.799 392.604 148.487C394.918 150.133 396.375 152.747 396.375 156.781H398.375C398.375 152.191 396.675 148.929 393.763 146.857C390.909 144.826 387.021 144.031 382.781 144.031V146.031ZM396.375 156.781V179H398.375V156.781H396.375ZM397.375 178H387.25V180H397.375V178ZM388.25 179V174.938H386.25V179H388.25ZM387.25 173.938H386.719V175.938H387.25V173.938ZM381.969 173.094C384.811 173.094 387.719 171.21 387.719 168.062H385.719C385.719 169.728 384.126 171.094 381.969 171.094V173.094ZM387.719 168.062V164.938H385.719V168.062H387.719ZM386.719 163.938H382.219V165.938H386.719V163.938ZM382.219 163.938C380.643 163.938 379.275 164.326 378.279 165.12C377.259 165.933 376.719 167.102 376.719 168.438H378.719C378.719 167.679 379.007 167.098 379.526 166.684C380.068 166.252 380.95 165.938 382.219 165.938V163.938ZM376.719 168.438C376.719 169.961 377.387 171.162 378.41 171.958C379.407 172.733 380.698 173.094 381.969 173.094V171.094C381.052 171.094 380.218 170.83 379.637 170.378C379.082 169.947 378.719 169.32 378.719 168.438H376.719ZM427.812 173.719L428.757 173.389L428.523 172.719H427.812V173.719ZM427.312 173.719V172.719H426.312V173.719H427.312ZM427.312 179V180H428.312V179H427.312ZM416.5 179H415.5V180H416.5V179ZM416.5 134.094V133.094H415.5V134.094H416.5ZM427.375 134.094H428.375V133.094H427.375V134.094ZM427.375 150.656H426.375V151.656H427.375V150.656ZM427.875 150.656V151.656H428.561L428.808 151.016L427.875 150.656ZM437.25 178.344C432.72 178.344 429.739 176.204 428.757 173.389L426.868 174.048C428.198 177.858 432.092 180.344 437.25 180.344V178.344ZM427.812 172.719H427.312V174.719H427.812V172.719ZM426.312 173.719V179H428.312V173.719H426.312ZM427.312 178H416.5V180H427.312V178ZM417.5 179V134.094H415.5V179H417.5ZM416.5 135.094H427.375V133.094H416.5V135.094ZM426.375 134.094V150.656H428.375V134.094H426.375ZM427.375 151.656H427.875V149.656H427.375V151.656ZM428.808 151.016C429.85 148.318 432.642 146.188 437.312 146.188V144.188C431.983 144.188 428.338 146.682 426.942 150.296L428.808 151.016ZM437.312 146.188C440.846 146.188 443.587 147.454 445.471 149.825C447.38 152.229 448.5 155.885 448.5 160.812H450.5C450.5 155.615 449.323 151.459 447.037 148.581C444.725 145.671 441.373 144.188 437.312 144.188V146.188ZM448.5 160.812V163.656H450.5V160.812H448.5ZM448.5 163.656C448.5 168.645 447.358 172.315 445.431 174.718C443.529 177.091 440.771 178.344 437.25 178.344V180.344C441.292 180.344 444.659 178.878 446.991 175.969C449.299 173.091 450.5 168.917 450.5 163.656H448.5ZM432.844 172.062C434.749 172.062 436.413 171.289 437.571 169.739C438.701 168.225 439.281 166.064 439.281 163.375H437.281C437.281 165.811 436.752 167.493 435.968 168.542C435.212 169.555 434.158 170.062 432.844 170.062V172.062ZM439.281 163.375V161.25H437.281V163.375H439.281ZM439.281 161.25C439.281 158.552 438.72 156.376 437.599 154.85C436.448 153.282 434.78 152.5 432.844 152.5V154.5C434.189 154.5 435.239 155.015 435.987 156.033C436.764 157.092 437.281 158.792 437.281 161.25H439.281ZM432.844 152.5C430.917 152.5 429.253 153.338 428.1 154.887C426.968 156.409 426.375 158.547 426.375 161.125H428.375C428.375 158.828 428.907 157.154 429.705 156.081C430.481 155.037 431.552 154.5 432.844 154.5V152.5ZM426.375 161.125V163.438H428.375V161.125H426.375ZM426.375 163.438C426.375 165.928 426.925 168.063 428.031 169.603C429.163 171.178 430.831 172.062 432.844 172.062V170.062C431.482 170.062 430.416 169.494 429.656 168.436C428.871 167.344 428.375 165.665 428.375 163.438H426.375ZM473.094 174.938V173.938H472.444L472.18 174.531L473.094 174.938ZM473.094 159.25V160.25H474.094V159.25H473.094ZM464.781 156.375V157.375H465.723L465.779 156.435L464.781 156.375ZM454.656 156.375L453.657 156.346L453.627 157.375H454.656V156.375ZM483.75 179V180H484.75V179H483.75ZM473.625 179H472.625V180H473.625V179ZM473.625 174.938H474.625V173.938H473.625V174.938ZM473.094 164.938H474.094V163.938H473.094V164.938ZM472.18 174.531C471.36 176.375 469.094 178.469 464.5 178.469V180.469C469.781 180.469 472.827 178 474.008 175.344L472.18 174.531ZM464.5 178.469C461.418 178.469 458.909 177.592 457.183 176.061C455.473 174.542 454.438 172.296 454.438 169.344H452.438C452.438 172.798 453.668 175.614 455.856 177.556C458.029 179.486 461.051 180.469 464.5 180.469V178.469ZM454.438 169.344C454.438 166.509 455.407 164.281 457.191 162.746C458.995 161.195 461.751 160.25 465.5 160.25V158.25C461.436 158.25 458.161 159.274 455.887 161.23C453.593 163.203 452.438 166.022 452.438 169.344H454.438ZM465.5 160.25H473.094V158.25H465.5V160.25ZM474.094 159.25V156.406H472.094V159.25H474.094ZM474.094 156.406C474.094 154.998 473.614 153.804 472.642 152.982C471.695 152.182 470.411 151.844 469 151.844V153.844C470.12 153.844 470.883 154.115 471.351 154.51C471.792 154.883 472.094 155.471 472.094 156.406H474.094ZM469 151.844C467.494 151.844 466.215 152.253 465.281 153.073C464.342 153.898 463.859 155.048 463.783 156.315L465.779 156.435C465.829 155.608 466.127 154.992 466.601 154.576C467.082 154.153 467.85 153.844 469 153.844V151.844ZM464.781 155.375H454.656V157.375H464.781V155.375ZM455.656 156.404C455.729 153.883 456.519 151.323 458.502 149.392C460.481 147.466 463.785 146.031 469.156 146.031V144.031C463.434 144.031 459.566 145.566 457.107 147.959C454.653 150.349 453.74 153.461 453.657 156.346L455.656 156.404ZM469.156 146.031C473.198 146.031 476.606 146.799 478.979 148.487C481.293 150.133 482.75 152.747 482.75 156.781H484.75C484.75 152.191 483.05 148.929 480.138 146.857C477.284 144.826 473.395 144.031 469.156 144.031V146.031ZM482.75 156.781V179H484.75V156.781H482.75ZM483.75 178H473.625V180H483.75V178ZM474.625 179V174.938H472.625V179H474.625ZM473.625 173.938H473.094V175.938H473.625V173.938ZM468.344 173.094C471.186 173.094 474.094 171.21 474.094 168.062H472.094C472.094 169.728 470.501 171.094 468.344 171.094V173.094ZM474.094 168.062V164.938H472.094V168.062H474.094ZM473.094 163.938H468.594V165.938H473.094V163.938ZM468.594 163.938C467.018 163.938 465.65 164.326 464.654 165.12C463.634 165.933 463.094 167.102 463.094 168.438H465.094C465.094 167.679 465.382 167.098 465.901 166.684C466.443 166.252 467.325 165.938 468.594 165.938V163.938ZM463.094 168.438C463.094 169.961 463.762 171.162 464.785 171.958C465.782 172.733 467.073 173.094 468.344 173.094V171.094C467.427 171.094 466.593 170.83 466.012 170.378C465.457 169.947 465.094 169.32 465.094 168.438H463.094ZM465.562 186.906C465.562 184.691 467.226 183.094 469.219 183.094V181.094C466.087 181.094 463.562 183.621 463.562 186.906H465.562ZM469.219 183.094C471.461 183.094 473.094 184.721 473.094 186.906H475.094C475.094 183.591 472.539 181.094 469.219 181.094V183.094ZM473.094 186.906C473.094 189.003 471.487 190.594 469.219 190.594V192.594C472.513 192.594 475.094 190.184 475.094 186.906H473.094ZM469.219 190.594C467.2 190.594 465.562 189.033 465.562 186.906H463.562C463.562 190.155 466.113 192.594 469.219 192.594V190.594ZM490.375 179H489.375V180H490.375V179ZM490.375 145.531V144.531H489.375V145.531H490.375ZM500.844 145.531H501.844V144.531H500.844V145.531ZM500.844 150.844H499.844V151.844H500.844V150.844ZM501.375 150.844V151.844H502.082L502.318 151.177L501.375 150.844ZM522.156 179V180H523.156V179H522.156ZM511.312 179H510.312V180H511.312V179ZM501.188 179V180H502.188V179H501.188ZM491.375 179V145.531H489.375V179H491.375ZM490.375 146.531H500.844V144.531H490.375V146.531ZM499.844 145.531V150.844H501.844V145.531H499.844ZM500.844 151.844H501.375V149.844H500.844V151.844ZM502.318 151.177C503.084 149.01 505.803 146.031 511.031 146.031V144.031C504.947 144.031 501.478 147.552 500.432 150.51L502.318 151.177ZM511.031 146.031C514.136 146.031 516.633 146.986 518.357 148.779C520.085 150.576 521.156 153.339 521.156 157.188H523.156C523.156 152.973 521.978 149.659 519.799 147.393C517.617 145.124 514.551 144.031 511.031 144.031V146.031ZM521.156 157.188V179H523.156V157.188H521.156ZM522.156 178H511.312V180H522.156V178ZM512.312 179V160.062H510.312V179H512.312ZM512.312 160.062C512.312 157.515 511.631 155.704 510.438 154.536C509.251 153.373 507.713 153 506.312 153V155C507.381 155 508.343 155.283 509.039 155.964C509.728 156.64 510.312 157.86 510.312 160.062H512.312ZM506.312 153C504.657 153 503.089 153.57 501.943 154.832C500.805 156.085 500.188 157.906 500.188 160.219H502.188C502.188 158.25 502.71 156.962 503.424 156.176C504.13 155.399 505.124 155 506.312 155V153ZM500.188 160.219V179H502.188V160.219H500.188ZM501.188 178H490.375V180H501.188V178Z" fill="white"/>
<defs>
<linearGradient id="paint0_linear_145_32" x1="133" y1="135.5" x2="328" y2="135.5" gradientUnits="userSpaceOnUse">
<stop stop-color="#FCEABB"/>
<stop offset="1" stop-color="#F8B500"/>
</linearGradient>
<linearGradient id="paint1_linear_145_32" x1="1" y1="61" x2="47.6621" y2="277.305" gradientUnits="userSpaceOnUse">
<stop stop-color="#05DF97"/>
<stop offset="1" stop-color="#0591DF"/>
</linearGradient>
<linearGradient id="paint2_linear_145_32" x1="72" y1="68" x2="464" y2="68" gradientUnits="userSpaceOnUse">
<stop stop-color="#FCEABB"/>
<stop offset="1" stop-color="#F8B500"/>
</linearGradient>
</defs>
</svg>
