<svg width="1001" height="158" viewBox="0 0 1001 158" fill="none" xmlns="http://www.w3.org/2000/svg">
<path d="M46.8906 3.03711L47.8906 3.03711V2.03711H46.8906V3.03711ZM87.8594 3.03711V2.03711L86.8594 2.03711V3.03711H87.8594ZM134.617 3.03711L135.617 3.03711V2.03711H134.617V3.03711ZM0.132812 3.03711V2.03711H-0.867188V3.03711H0.132812ZM45.8906 3.03711L45.8906 95.8848H47.8906L47.8906 3.03711L45.8906 3.03711ZM45.8906 95.8848C45.8906 104.453 48.1052 110.586 51.9912 114.576C55.8799 118.569 61.2946 120.264 67.375 120.264V118.264C61.6547 118.264 56.8271 116.675 53.4239 113.18C50.0179 109.683 47.8906 104.127 47.8906 95.8848H45.8906ZM67.375 120.264C73.4144 120.264 78.8241 118.477 82.7196 114.448C86.6126 110.422 88.8594 104.295 88.8594 95.8848H86.8594C86.8594 103.951 84.7087 109.514 81.2818 113.058C77.8575 116.599 73.0251 118.264 67.375 118.264V120.264ZM88.8594 95.8848L88.8594 3.03711H86.8594L86.8594 95.8848H88.8594ZM87.8594 4.03711L134.617 4.03711V2.03711L87.8594 2.03711V4.03711ZM133.617 3.03711L133.617 102.453H135.617L135.617 3.03711L133.617 3.03711ZM133.617 102.453C133.617 118.932 127.332 132.418 115.973 141.802C104.593 151.203 88.03 156.561 67.375 156.561V158.561C88.3568 158.561 105.415 153.119 117.247 143.344C129.099 133.552 135.617 119.484 135.617 102.453H133.617ZM67.375 156.561C46.7201 156.561 30.1569 151.203 18.777 141.802C7.41771 132.418 1.13281 118.932 1.13281 102.453H-0.867188C-0.867188 119.484 5.65065 133.552 17.5032 143.344C29.3353 153.119 46.3932 158.561 67.375 158.561V156.561ZM1.13281 102.453L1.13281 3.03711H-0.867188L-0.867188 102.453H1.13281ZM0.132812 4.03711L46.8906 4.03711V2.03711L0.132812 2.03711V4.03711ZM158.553 3.03711V2.03711H157.553V3.03711L158.553 3.03711ZM205.199 113.92V112.92H204.199V113.92H205.199ZM205.199 155V156H206.199V155H205.199ZM158.553 155H157.553V156H158.553V155ZM204.977 37.5488V36.5488H203.977V37.5488H204.977ZM204.977 80.2988H203.977V81.2988H204.977V80.2988ZM158.553 4.03711L227.91 4.03711V2.03711L158.553 2.03711V4.03711ZM227.91 4.03711C246.864 4.03711 260.578 10.6473 269.565 20.7489C278.569 30.8697 282.908 44.5881 282.908 58.9238H284.908C284.908 44.2029 280.453 29.978 271.059 19.4196C261.649 8.84193 247.365 2.03711 227.91 2.03711V4.03711ZM282.908 58.9238C282.908 73.5322 278.433 87.0196 269.288 96.8456C260.155 106.658 246.271 112.92 227.242 112.92V114.92C246.733 114.92 261.182 108.49 270.752 98.2082C280.31 87.9394 284.908 73.9288 284.908 58.9238H282.908ZM227.242 112.92L205.199 112.92V114.92L227.242 114.92V112.92ZM204.199 113.92V155H206.199V113.92H204.199ZM205.199 154H158.553V156H205.199V154ZM159.553 155L159.553 3.03711L157.553 3.03711L157.553 155H159.553ZM203.977 37.5488V80.2988H205.977V37.5488H203.977ZM204.977 81.2988L215.219 81.2988V79.2988L204.977 79.2988V81.2988ZM215.219 81.2988C221.872 81.2988 227.515 79.3172 231.5 75.4653C235.49 71.6083 237.705 65.9841 237.705 58.9238H235.705C235.705 65.5569 233.634 70.6202 230.11 74.0274C226.58 77.4397 221.479 79.2988 215.219 79.2988V81.2988ZM237.705 58.9238C237.705 51.7023 235.493 46.0729 231.496 42.2531C227.506 38.4405 221.861 36.5488 215.219 36.5488V38.5488C221.491 38.5488 226.589 40.331 230.114 43.6991C233.631 47.06 235.705 52.118 235.705 58.9238H237.705ZM215.219 36.5488H204.977V38.5488H215.219V36.5488ZM402.918 116.703H403.918V115.703H402.918V116.703ZM402.918 155V156H403.918V155H402.918ZM300.385 155H299.385V156H300.385V155ZM300.385 3.03711V2.03711L299.385 2.03711V3.03711L300.385 3.03711ZM347.143 3.03711H348.143V2.03711H347.143V3.03711ZM347.143 116.703H346.143V117.703H347.143V116.703ZM401.918 116.703V155H403.918V116.703H401.918ZM402.918 154H300.385V156H402.918V154ZM301.385 155V3.03711L299.385 3.03711V155H301.385ZM300.385 4.03711L347.143 4.03711V2.03711L300.385 2.03711V4.03711ZM346.143 3.03711V116.703H348.143V3.03711H346.143ZM347.143 117.703L402.918 117.703V115.703L347.143 115.703V117.703ZM465.818 155V156H466.818V155H465.818ZM419.061 155H418.061V156H419.061V155ZM419.061 3.03711V2.03711L418.061 2.03711V3.03711H419.061ZM465.818 3.03711L466.818 3.03711V2.03711H465.818V3.03711ZM465.818 154L419.061 154V156L465.818 156V154ZM420.061 155V3.03711H418.061V155H420.061ZM419.061 4.03711L465.818 4.03711V2.03711L419.061 2.03711V4.03711ZM464.818 3.03711V155H466.818V3.03711L464.818 3.03711ZM584.049 155V156H584.802L585.01 155.276L584.049 155ZM522.707 155L521.748 155.282L521.959 156H522.707V155ZM478.064 3.03711V2.03711H476.728L477.105 3.31897L478.064 3.03711ZM532.615 3.03711L533.595 2.83696L533.432 2.03711H532.615V3.03711ZM553.879 107.129L552.899 107.329L553.063 108.129H553.879V107.129ZM555.994 107.129V108.129H556.816L556.975 107.323L555.994 107.129ZM576.59 3.03711V2.03711L575.768 2.03711L575.609 2.84301L576.59 3.03711ZM627.689 3.03711L628.651 3.31313L629.017 2.03711L627.689 2.03711V3.03711ZM584.049 154H522.707V156H584.049V154ZM523.667 154.718L479.024 2.75525L477.105 3.31897L521.748 155.282L523.667 154.718ZM478.064 4.03711L532.615 4.03711V2.03711L478.064 2.03711V4.03711ZM531.635 3.23725L552.899 107.329L554.859 106.929L533.595 2.83696L531.635 3.23725ZM553.879 108.129H555.994V106.129H553.879V108.129ZM556.975 107.323L577.571 3.23121L575.609 2.84301L555.013 106.935L556.975 107.323ZM576.59 4.03711L627.689 4.03711V2.03711L576.59 2.03711V4.03711ZM626.728 2.76109L583.088 154.724L585.01 155.276L628.651 3.31313L626.728 2.76109ZM686.693 155V156H687.693V155H686.693ZM639.936 155H638.936V156H639.936V155ZM639.936 3.03711V2.03711L638.936 2.03711V3.03711H639.936ZM686.693 3.03711L687.693 3.03711V2.03711H686.693V3.03711ZM686.693 154H639.936V156H686.693V154ZM640.936 155V3.03711H638.936V155H640.936ZM639.936 4.03711L686.693 4.03711V2.03711L639.936 2.03711V4.03711ZM685.693 3.03711V155H687.693V3.03711L685.693 3.03711ZM755.16 155V156H756.16V155H755.16ZM712.299 155H711.299V156H712.299V155ZM712.299 3.03711V2.03711H711.299V3.03711H712.299ZM747.367 3.03711L748.185 2.46116L747.886 2.03711H747.367V3.03711ZM799.135 76.5137L798.317 77.0896L798.616 77.5137H799.135V76.5137ZM800.916 76.5137V77.5137H801.916V76.5137H800.916ZM800.916 3.03711V2.03711H799.916V3.03711H800.916ZM843.777 3.03711H844.777V2.03711H843.777V3.03711ZM843.777 155V156H844.777V155H843.777ZM809.043 155L808.222 155.571L808.521 156H809.043V155ZM756.941 80.1875L757.762 79.616L757.464 79.1875H756.941V80.1875ZM755.16 80.1875V79.1875H754.16V80.1875H755.16ZM755.16 154H712.299V156H755.16V154ZM713.299 155V3.03711H711.299V155H713.299ZM712.299 4.03711L747.367 4.03711V2.03711L712.299 2.03711V4.03711ZM746.55 3.61306L798.317 77.0896L799.952 75.9377L748.185 2.46116L746.55 3.61306ZM799.135 77.5137H800.916V75.5137H799.135V77.5137ZM801.916 76.5137V3.03711H799.916V76.5137H801.916ZM800.916 4.03711L843.777 4.03711V2.03711L800.916 2.03711V4.03711ZM842.777 3.03711V155H844.777V3.03711L842.777 3.03711ZM843.777 154H809.043V156H843.777V154ZM809.864 154.429L757.762 79.616L756.121 80.759L808.222 155.571L809.864 154.429ZM756.941 79.1875H755.16V81.1875H756.941V79.1875ZM754.16 80.1875V155H756.16V80.1875H754.16ZM1000.75 55.4727V56.4727H1001.75V55.4727H1000.75ZM955.662 55.4727L954.667 55.5722L954.757 56.4727H955.662V55.4727ZM956.998 100.004H957.998V99.0039H956.998V100.004ZM938.072 100.004H937.072V101.004H938.072V100.004ZM938.072 69.0547V68.0547H937.072V69.0547H938.072ZM1000.75 69.0547H1001.75V68.0547H1000.75V69.0547ZM1000.75 54.4727L955.662 54.4727V56.4727L1000.75 56.4727V54.4727ZM956.657 55.3732C955.716 45.9611 948.166 36.9941 934.176 36.9941V38.9941C947.127 38.9941 953.827 47.1717 954.667 55.5722L956.657 55.3732ZM934.176 36.9941C926.102 36.9941 919.88 40.0123 915.717 45.8315C911.593 51.5962 909.574 59.9915 909.574 70.6133H911.574C911.574 60.1941 913.563 52.2798 917.344 46.9951C921.085 41.765 926.664 38.9941 934.176 38.9941V36.9941ZM909.574 70.6133V86.6445H911.574V70.6133H909.574ZM909.574 86.6445C909.574 95.2086 910.659 103.807 914.442 110.291C918.281 116.87 924.83 121.154 935.4 121.154V119.154C925.486 119.154 919.623 115.201 916.169 109.283C912.661 103.27 911.574 95.1136 911.574 86.6445H909.574ZM935.4 121.154C942.975 121.154 948.637 118.681 952.41 114.982C956.172 111.293 957.998 106.44 957.998 101.785H955.998C955.998 105.925 954.372 110.257 951.01 113.554C947.658 116.84 942.521 119.154 935.4 119.154V121.154ZM957.998 101.785V100.004H955.998V101.785H957.998ZM956.998 99.0039H938.072V101.004H956.998V99.0039ZM939.072 100.004V69.0547H937.072V100.004H939.072ZM938.072 70.0547H1000.75V68.0547H938.072V70.0547ZM999.75 69.0547V97.5547H1001.75V69.0547H999.75ZM999.75 97.5547C999.75 112.278 995.246 127.013 984.84 138.06C974.448 149.093 958.061 156.561 934.064 156.561V158.561C958.495 158.561 975.452 150.943 986.296 139.432C997.125 127.935 1001.75 112.668 1001.75 97.5547H999.75ZM934.064 156.561C908.692 156.561 891.289 148.269 880.213 135.502C869.117 122.711 864.26 105.297 864.26 86.8672H862.26C862.26 105.62 867.2 123.554 878.703 136.813C890.227 150.097 908.226 158.561 934.064 158.561V156.561ZM864.26 86.8672V70.0566H862.26V86.8672H864.26ZM864.26 70.0566C864.26 50.3317 870.318 33.2331 882.07 21.0713C893.815 8.9164 911.349 1.58789 934.51 1.58789V-0.412109C910.913 -0.412109 892.822 7.06602 880.631 19.6816C868.448 32.2903 862.26 49.9261 862.26 70.0566H864.26ZM934.51 1.58789C957.063 1.58789 973.361 8.58598 984.014 18.7752C994.674 28.9714 999.75 42.4265 999.75 55.4727H1001.75C1001.75 41.9114 996.473 27.9241 985.396 17.3298C974.312 6.72847 957.49 -0.412109 934.51 -0.412109V1.58789Z" fill="white" fill-opacity="0.13"/>
</svg>
