<svg width="710" height="203" viewBox="0 0 710 203" fill="none" xmlns="http://www.w3.org/2000/svg">
<path d="M50.9395 101V102H51.6927L51.9006 101.276L50.9395 101ZM21.8828 101L20.9234 101.282L21.1343 102H21.8828V101ZM0.736328 29.0176V28.0176H-0.599703L-0.223127 29.2994L0.736328 29.0176ZM26.5762 29.0176L27.5559 28.8174L27.3925 28.0176H26.5762V29.0176ZM36.6484 78.3242L35.6687 78.5244L35.8321 79.3242H36.6484V78.3242ZM37.6504 78.3242V79.3242H38.4719L38.6314 78.5183L37.6504 78.3242ZM47.4062 29.0176V28.0176H46.5847L46.4253 28.8235L47.4062 29.0176ZM71.6113 29.0176L72.5725 29.2936L72.9389 28.0176H71.6113V29.0176ZM50.9395 100H21.8828V102H50.9395V100ZM22.8423 100.718L1.69578 28.7357L-0.223127 29.2994L20.9234 101.282L22.8423 100.718ZM0.736328 30.0176H26.5762V28.0176H0.736328V30.0176ZM25.5964 29.2177L35.6687 78.5244L37.6282 78.1241L27.5559 28.8174L25.5964 29.2177ZM36.6484 79.3242H37.6504V77.3242H36.6484V79.3242ZM38.6314 78.5183L48.3872 29.2117L46.4253 28.8235L36.6694 78.1301L38.6314 78.5183ZM47.4062 30.0176H71.6113V28.0176H47.4062V30.0176ZM70.6502 28.7416L49.9783 100.724L51.9006 101.276L72.5725 29.2936L70.6502 28.7416ZM87.9062 101V102H88.6974L88.8794 101.23L87.9062 101ZM66.0215 101L65.0645 100.71L64.6732 102H66.0215V101ZM87.8535 29.0176V28.0176H87.1118L86.8966 28.7273L87.8535 29.0176ZM115.908 29.0176L116.866 28.7299L116.652 28.0176H115.908V29.0176ZM137.529 101V102H138.874L138.487 100.712L137.529 101ZM113.904 101L112.929 101.223L113.107 102H113.904V101ZM110.793 87.3945L111.768 87.1716L111.59 86.3945H110.793V87.3945ZM91.123 87.3945V86.3945H90.3319L90.1499 87.1644L91.123 87.3945ZM101.67 47.3164L102.645 47.0942L102.468 46.3164H101.67V47.3164ZM100.562 47.3164V46.3164H99.7715L99.5894 47.0862L100.562 47.3164ZM94.7617 71.8379L93.7886 71.6077L93.4976 72.8379H94.7617V71.8379ZM107.26 71.8379V72.8379H108.513L108.235 71.6156L107.26 71.8379ZM80.8398 22.7949L80.1186 22.1022L78.4928 23.7949H80.8398V22.7949ZM93.6543 9.45312V8.45312H93.2282L92.9331 8.76042L93.6543 9.45312ZM109.369 9.45312L110.071 8.74049L109.779 8.45312H109.369V9.45312ZM122.922 22.7949V23.7949H125.363L123.623 22.0823L122.922 22.7949ZM107.998 22.7949L107.288 23.4988L107.581 23.7949H107.998V22.7949ZM102.303 17.0469L103.013 16.343L102.72 16.0469H102.303V17.0469ZM101.09 17.0469V16.0469H100.65L100.353 16.3708L101.09 17.0469ZM95.8164 22.7949V23.7949H96.2561L96.5533 23.471L95.8164 22.7949ZM113.746 8.50391L113.058 7.77856L112.286 8.51089L113.065 9.2358L113.746 8.50391ZM122.025 0.646484V-0.353516H121.626L121.337 -0.0788612L122.025 0.646484ZM135.578 0.646484L136.231 1.40376L138.269 -0.353516H135.578V0.646484ZM119.863 14.1992L119.182 14.9311L119.838 15.5418L120.516 14.9565L119.863 14.1992ZM87.9062 100H66.0215V102H87.9062V100ZM66.9784 101.29L88.8105 29.3078L86.8966 28.7273L65.0645 100.71L66.9784 101.29ZM87.8535 30.0176H115.908V28.0176H87.8535V30.0176ZM114.95 29.3052L136.572 101.288L138.487 100.712L116.866 28.7299L114.95 29.3052ZM137.529 100H113.904V102H137.529V100ZM114.879 100.777L111.768 87.1716L109.818 87.6175L112.929 101.223L114.879 100.777ZM110.793 86.3945H91.123V88.3945H110.793V86.3945ZM90.1499 87.1644L86.9331 100.77L88.8794 101.23L92.0962 87.6246L90.1499 87.1644ZM101.67 46.3164H100.562V48.3164H101.67V46.3164ZM99.5894 47.0862L93.7886 71.6077L95.7349 72.0681L101.536 47.5466L99.5894 47.0862ZM94.7617 72.8379H107.26V70.8379H94.7617V72.8379ZM108.235 71.6156L102.645 47.0942L100.695 47.5387L106.285 72.0601L108.235 71.6156ZM81.5611 23.4876L94.3755 10.1458L92.9331 8.76042L80.1186 22.1022L81.5611 23.4876ZM93.6543 10.4531H109.369V8.45312H93.6543V10.4531ZM108.668 10.1658L122.22 23.5076L123.623 22.0823L110.071 8.74049L108.668 10.1658ZM122.922 21.7949H107.998V23.7949H122.922V21.7949ZM108.708 22.0911L103.013 16.343L101.592 17.7507L107.288 23.4988L108.708 22.0911ZM102.303 16.0469H101.09V18.0469H102.303V16.0469ZM100.353 16.3708L95.0795 22.1189L96.5533 23.471L101.827 17.7229L100.353 16.3708ZM95.8164 21.7949H80.8398V23.7949H95.8164V21.7949ZM114.434 9.22925L122.714 1.37183L121.337 -0.0788612L113.058 7.77856L114.434 9.22925ZM122.025 1.64648H135.578V-0.353516H122.025V1.64648ZM134.925 -0.110796L119.21 13.4419L120.516 14.9565L136.231 1.40376L134.925 -0.110796ZM120.545 13.4673L114.428 7.77201L113.065 9.2358L119.182 14.9311L120.545 13.4673ZM163.844 101V102H164.844V101H163.844ZM143.541 101H142.541V102H143.541V101ZM143.541 29.0176V28.0176H142.541V29.0176H143.541ZM160.152 29.0176L160.97 28.4416L160.671 28.0176H160.152V29.0176ZM184.674 63.8223L183.856 64.3982L184.155 64.8223H184.674V63.8223ZM185.518 63.8223V64.8223H186.518V63.8223H185.518ZM185.518 29.0176V28.0176H184.518V29.0176H185.518ZM205.82 29.0176H206.82V28.0176H205.82V29.0176ZM205.82 101V102H206.82V101H205.82ZM189.367 101L188.547 101.571L188.845 102H189.367V101ZM164.688 65.5625L165.508 64.991L165.21 64.5625H164.688V65.5625ZM163.844 65.5625V64.5625H162.844V65.5625H163.844ZM163.844 100H143.541V102H163.844V100ZM144.541 101V29.0176H142.541V101H144.541ZM143.541 30.0176H160.152V28.0176H143.541V30.0176ZM159.335 29.5935L183.856 64.3982L185.491 63.2463L160.97 28.4416L159.335 29.5935ZM184.674 64.8223H185.518V62.8223H184.674V64.8223ZM186.518 63.8223V29.0176H184.518V63.8223H186.518ZM185.518 30.0176H205.82V28.0176H185.518V30.0176ZM204.82 29.0176V101H206.82V29.0176H204.82ZM205.82 100H189.367V102H205.82V100ZM190.188 100.429L165.508 64.991L163.867 66.134L188.547 101.571L190.188 100.429ZM164.688 64.5625H163.844V66.5625H164.688V64.5625ZM162.844 65.5625V101H164.844V65.5625H162.844ZM244.158 101H243.158V102H244.158V101ZM244.158 74.3691H245.158V73.3691H244.158V74.3691ZM235.141 74.3691H234.141V75.3691H235.141V74.3691ZM235.141 55.3848V54.3848H234.141V55.3848H235.141ZM244.158 55.3848V56.3848H245.158V55.3848H244.158ZM244.158 29.0176V28.0176H243.158V29.0176H244.158ZM266.254 83.3867H265.254V84.3867H266.254V83.3867ZM266.254 45.418V44.418H265.254V45.418H266.254ZM266.254 55.3848H265.254V56.3848H266.254V55.3848ZM274.27 55.3848H275.27V54.3848H274.27V55.3848ZM274.27 74.3691V75.3691H275.27V74.3691H274.27ZM266.254 74.3691V73.3691H265.254V74.3691H266.254ZM275.43 100H244.158V102H275.43V100ZM245.158 101V74.3691H243.158V101H245.158ZM244.158 73.3691H235.141V75.3691H244.158V73.3691ZM236.141 74.3691V55.3848H234.141V74.3691H236.141ZM235.141 56.3848H244.158V54.3848H235.141V56.3848ZM245.158 55.3848V29.0176H243.158V55.3848H245.158ZM244.158 30.0176H275.43V28.0176H244.158V30.0176ZM275.43 30.0176C286.902 30.0176 294.857 33.4796 299.965 39.4127C305.096 45.3729 307.494 53.987 307.494 64.5605H309.494C309.494 53.724 307.041 44.5666 301.48 38.1078C295.896 31.6219 287.319 28.0176 275.43 28.0176V30.0176ZM307.494 64.5605C307.494 75.3142 305.006 84.1595 299.82 90.3025C294.659 96.4164 286.701 100 275.43 100V102C287.15 102 295.725 98.2536 301.348 91.5926C306.947 84.9607 309.494 75.5862 309.494 64.5605H307.494ZM266.254 84.3867H271.211V82.3867H266.254V84.3867ZM271.211 84.3867C274.904 84.3867 278.873 83.9909 281.872 81.1534C284.869 78.3176 286.66 73.2769 286.66 64.6133H284.66C284.66 73.0883 282.892 77.4343 280.497 79.7006C278.104 81.9652 274.848 82.3867 271.211 82.3867V84.3867ZM286.66 64.6133C286.66 59.8926 286.178 54.8685 283.993 51.0034C282.888 49.0493 281.345 47.3872 279.223 46.2208C277.105 45.0573 274.467 44.418 271.211 44.418V46.418C274.204 46.418 276.496 47.0047 278.26 47.9736C280.018 48.9398 281.307 50.3164 282.252 51.9878C284.166 55.3737 284.66 59.9473 284.66 64.6133H286.66ZM271.211 44.418H266.254V46.418H271.211V44.418ZM265.254 45.418V55.3848H267.254V45.418H265.254ZM266.254 56.3848H274.27V54.3848H266.254V56.3848ZM273.27 55.3848V74.3691H275.27V55.3848H273.27ZM274.27 73.3691H266.254V75.3691H274.27V73.3691ZM265.254 74.3691V83.3867H267.254V74.3691H265.254ZM368.559 83.9668H369.559V82.9668H368.559V83.9668ZM368.559 101V102H369.559V101H368.559ZM317.248 101H316.248V102H317.248V101ZM317.248 29.0176V28.0176H316.248V29.0176H317.248ZM368.559 29.0176H369.559V28.0176H368.559V29.0176ZM368.559 46.0508V47.0508H369.559V46.0508H368.559ZM339.133 46.0508V45.0508H338.133V46.0508H339.133ZM339.133 57.3887H338.133V58.3887H339.133V57.3887ZM366.607 57.3887H367.607V56.3887H366.607V57.3887ZM366.607 72.7871V73.7871H367.607V72.7871H366.607ZM339.133 72.7871V71.7871H338.133V72.7871H339.133ZM339.133 83.9668H338.133V84.9668H339.133V83.9668ZM373.832 14.0938V15.0938H376.1L374.57 13.4192L373.832 14.0938ZM361.387 14.0938L360.666 14.7866L360.961 15.0938H361.387V14.0938ZM348.467 0.646484V-0.353516H346.119L347.746 1.33931L348.467 0.646484ZM361.545 0.646484L362.283 -0.028059L361.986 -0.353516H361.545V0.646484ZM363.285 22.7949V23.7949H365.726L363.987 22.0823L363.285 22.7949ZM348.361 22.7949L347.651 23.4988L347.944 23.7949H348.361V22.7949ZM342.666 17.0469L343.376 16.343L343.083 16.0469H342.666V17.0469ZM341.453 17.0469V16.0469H341.013L340.716 16.3708L341.453 17.0469ZM336.18 22.7949V23.7949H336.619L336.917 23.471L336.18 22.7949ZM321.203 22.7949L320.482 22.1022L318.856 23.7949H321.203V22.7949ZM334.018 9.45312V8.45312H333.591L333.296 8.76042L334.018 9.45312ZM349.732 9.45312L350.434 8.74049L350.142 8.45312H349.732V9.45312ZM367.559 83.9668V101H369.559V83.9668H367.559ZM368.559 100H317.248V102H368.559V100ZM318.248 101V29.0176H316.248V101H318.248ZM317.248 30.0176H368.559V28.0176H317.248V30.0176ZM367.559 29.0176V46.0508H369.559V29.0176H367.559ZM368.559 45.0508H339.133V47.0508H368.559V45.0508ZM338.133 46.0508V57.3887H340.133V46.0508H338.133ZM339.133 58.3887H366.607V56.3887H339.133V58.3887ZM365.607 57.3887V72.7871H367.607V57.3887H365.607ZM366.607 71.7871H339.133V73.7871H366.607V71.7871ZM338.133 72.7871V83.9668H340.133V72.7871H338.133ZM339.133 84.9668H368.559V82.9668H339.133V84.9668ZM373.832 13.0938H361.387V15.0938H373.832V13.0938ZM362.108 13.4009L349.188 -0.0463409L347.746 1.33931L360.666 14.7866L362.108 13.4009ZM348.467 1.64648H361.545V-0.353516H348.467V1.64648ZM360.807 1.32103L373.094 14.7683L374.57 13.4192L362.283 -0.028059L360.807 1.32103ZM363.285 21.7949H348.361V23.7949H363.285V21.7949ZM349.072 22.0911L343.376 16.343L341.956 17.7507L347.651 23.4988L349.072 22.0911ZM342.666 16.0469H341.453V18.0469H342.666V16.0469ZM340.716 16.3708L335.443 22.1189L336.917 23.471L342.19 17.7229L340.716 16.3708ZM336.18 21.7949H321.203V23.7949H336.18V21.7949ZM321.924 23.4876L334.739 10.1458L333.296 8.76042L320.482 22.1022L321.924 23.4876ZM334.018 10.4531H349.732V8.45312H334.018V10.4531ZM349.031 10.1658L362.584 23.5076L363.987 22.0823L350.434 8.74049L349.031 10.1658ZM448.398 82.8594H449.398V81.8594H448.398V82.8594ZM448.398 101V102H449.398V101H448.398ZM399.83 101H398.83V102H399.83V101ZM399.83 29.0176V28.0176H398.83V29.0176H399.83ZM421.979 29.0176H422.979V28.0176H421.979V29.0176ZM421.979 82.8594H420.979V83.8594H421.979V82.8594ZM447.398 82.8594V101H449.398V82.8594H447.398ZM448.398 100H399.83V102H448.398V100ZM400.83 101V29.0176H398.83V101H400.83ZM399.83 30.0176H421.979V28.0176H399.83V30.0176ZM420.979 29.0176V82.8594H422.979V29.0176H420.979ZM421.979 83.8594H448.398V81.8594H421.979V83.8594ZM474.449 101V102H475.24L475.422 101.23L474.449 101ZM452.564 101L451.608 100.71L451.216 102H452.564V101ZM474.396 29.0176V28.0176H473.655L473.44 28.7273L474.396 29.0176ZM502.451 29.0176L503.409 28.7299L503.195 28.0176H502.451V29.0176ZM524.072 101V102H525.417L525.03 100.712L524.072 101ZM500.447 101L499.472 101.223L499.65 102H500.447V101ZM497.336 87.3945L498.311 87.1716L498.133 86.3945H497.336V87.3945ZM477.666 87.3945V86.3945H476.875L476.693 87.1644L477.666 87.3945ZM488.213 47.3164L489.188 47.0942L489.011 46.3164H488.213V47.3164ZM487.105 47.3164V46.3164H486.314L486.132 47.0862L487.105 47.3164ZM481.305 71.8379L480.332 71.6077L480.041 72.8379H481.305V71.8379ZM493.803 71.8379V72.8379H495.056L494.778 71.6156L493.803 71.8379ZM497.969 22.2676V23.2676H500.696L498.615 21.5046L497.969 22.2676ZM480.725 22.2676L480.142 23.0803L480.403 23.2676H480.725V22.2676ZM463.586 9.98047V8.98047H460.475L463.003 10.7932L463.586 9.98047ZM483.467 9.98047L484.113 9.2175L483.833 8.98047H483.467V9.98047ZM474.449 100H452.564V102H474.449V100ZM453.521 101.29L475.353 29.3078L473.44 28.7273L451.608 100.71L453.521 101.29ZM474.396 30.0176H502.451V28.0176H474.396V30.0176ZM501.493 29.3052L523.115 101.288L525.03 100.712L503.409 28.7299L501.493 29.3052ZM524.072 100H500.447V102H524.072V100ZM501.422 100.777L498.311 87.1716L496.361 87.6175L499.472 101.223L501.422 100.777ZM497.336 86.3945H477.666V88.3945H497.336V86.3945ZM476.693 87.1644L473.476 100.77L475.422 101.23L478.639 87.6246L476.693 87.1644ZM488.213 46.3164H487.105V48.3164H488.213V46.3164ZM486.132 47.0862L480.332 71.6077L482.278 72.0681L488.079 47.5466L486.132 47.0862ZM481.305 72.8379H493.803V70.8379H481.305V72.8379ZM494.778 71.6156L489.188 47.0942L487.238 47.5387L492.828 72.0601L494.778 71.6156ZM497.969 21.2676H480.725V23.2676H497.969V21.2676ZM481.307 21.4549L464.169 9.16775L463.003 10.7932L480.142 23.0803L481.307 21.4549ZM463.586 10.9805H483.467V8.98047H463.586V10.9805ZM482.82 10.7434L497.322 23.0305L498.615 21.5046L484.113 9.2175L482.82 10.7434ZM27.3672 201V202H28.3672V201H27.3672ZM7.06445 201H6.06445V202H7.06445V201ZM7.06445 129.018V128.018H6.06445V129.018H7.06445ZM23.6758 129.018L24.4933 128.442L24.1945 128.018H23.6758V129.018ZM48.1973 163.822L47.3798 164.398L47.6785 164.822H48.1973V163.822ZM49.041 163.822V164.822H50.041V163.822H49.041ZM49.041 129.018V128.018H48.041V129.018H49.041ZM69.3438 129.018H70.3438V128.018H69.3438V129.018ZM69.3438 201V202H70.3438V201H69.3438ZM52.8906 201L52.07 201.571L52.3684 202H52.8906V201ZM28.2109 165.562L29.0315 164.991L28.7331 164.562H28.2109V165.562ZM27.3672 165.562V164.562H26.3672V165.562H27.3672ZM27.3672 200H7.06445V202H27.3672V200ZM8.06445 201V129.018H6.06445V201H8.06445ZM7.06445 130.018H23.6758V128.018H7.06445V130.018ZM22.8583 129.594L47.3798 164.398L49.0147 163.246L24.4933 128.442L22.8583 129.594ZM48.1973 164.822H49.041V162.822H48.1973V164.822ZM50.041 163.822V129.018H48.041V163.822H50.041ZM49.041 130.018H69.3438V128.018H49.041V130.018ZM68.3438 129.018V201H70.3438V129.018H68.3438ZM69.3438 200H52.8906V202H69.3438V200ZM53.7112 200.429L29.0315 164.991L27.3903 166.134L52.07 201.571L53.7112 200.429ZM28.2109 164.562H27.3672V166.562H28.2109V164.562ZM26.3672 165.562V201H28.3672V165.562H26.3672ZM146.652 201V202H147.652V201H146.652ZM124.504 201H123.504V202H124.504V201ZM124.504 173.736H125.504V172.736H124.504V173.736ZM103.674 173.736V172.736H102.674V173.736H103.674ZM103.674 201V202H104.674V201H103.674ZM81.5254 201H80.5254V202H81.5254V201ZM81.5254 129.018V128.018H80.5254V129.018H81.5254ZM103.674 129.018H104.674V128.018H103.674V129.018ZM103.674 156.176H102.674V157.176H103.674V156.176ZM124.504 156.176V157.176H125.504V156.176H124.504ZM124.504 129.018V128.018H123.504V129.018H124.504ZM146.652 129.018H147.652V128.018H146.652V129.018ZM146.652 200H124.504V202H146.652V200ZM125.504 201V173.736H123.504V201H125.504ZM124.504 172.736H103.674V174.736H124.504V172.736ZM102.674 173.736V201H104.674V173.736H102.674ZM103.674 200H81.5254V202H103.674V200ZM82.5254 201V129.018H80.5254V201H82.5254ZM81.5254 130.018H103.674V128.018H81.5254V130.018ZM102.674 129.018V156.176H104.674V129.018H102.674ZM103.674 157.176H124.504V155.176H103.674V157.176ZM125.504 156.176V129.018H123.504V156.176H125.504ZM124.504 130.018H146.652V128.018H124.504V130.018ZM145.652 129.018V201H147.652V129.018H145.652ZM158.043 129.018V128.018H157.043V129.018H158.043ZM180.191 129.018H181.191V128.018H180.191V129.018ZM199.598 129.018V128.018H198.598V129.018H199.598ZM226.07 116.203V115.203H225.07V116.203H226.07ZM242.049 116.203H243.049V115.203H242.049V116.203ZM221.746 143.889V142.889H220.746V143.889H221.746ZM189.895 201.055C180.197 201.055 172.481 198.539 167.21 194.184C161.959 189.846 159.043 183.612 159.043 175.951H157.043C157.043 184.164 160.192 190.981 165.936 195.726C171.66 200.455 179.87 203.055 189.895 203.055V201.055ZM159.043 175.951V129.018H157.043V175.951H159.043ZM158.043 130.018H180.191V128.018H158.043V130.018ZM179.191 129.018V172.84H181.191V129.018H179.191ZM179.191 172.84C179.191 176.985 180.263 180.041 182.23 182.061C184.2 184.083 186.92 184.914 189.895 184.914V182.914C187.28 182.914 185.147 182.189 183.663 180.665C182.176 179.139 181.191 176.658 181.191 172.84H179.191ZM189.895 184.914C192.858 184.914 195.572 184.035 197.541 181.999C199.508 179.965 200.598 176.914 200.598 172.84H198.598C198.598 176.57 197.604 179.057 196.104 180.609C194.606 182.158 192.468 182.914 189.895 182.914V184.914ZM200.598 172.84V129.018H198.598V172.84H200.598ZM199.598 130.018H221.799V128.018H199.598V130.018ZM221.799 130.018C223.434 130.018 224.837 129.684 225.802 128.683C226.757 127.691 227.07 126.26 227.07 124.588H225.07C225.07 126.08 224.777 126.864 224.361 127.296C223.954 127.718 223.222 128.018 221.799 128.018V130.018ZM227.07 124.588V116.203H225.07V124.588H227.07ZM226.07 117.203H242.049V115.203H226.07V117.203ZM241.049 116.203V128.016H243.049V116.203H241.049ZM241.049 128.016C241.049 132.154 239.708 135.874 237.31 138.547C234.923 141.208 231.44 142.889 227.02 142.889V144.889C231.986 144.889 236.018 142.983 238.799 139.883C241.569 136.795 243.049 132.578 243.049 128.016H241.049ZM227.02 142.889H221.746V144.889H227.02V142.889ZM220.746 143.889V175.951H222.746V143.889H220.746ZM220.746 175.951C220.746 183.612 217.83 189.846 212.579 194.184C207.308 198.539 199.592 201.055 189.895 201.055V203.055C199.919 203.055 208.13 200.455 213.853 195.726C219.597 190.981 222.746 184.164 222.746 175.951H220.746ZM296.629 201V202H297.629V201H296.629ZM274.48 201H273.48V202H274.48V201ZM274.48 146.736H275.48V145.736H274.48V146.736ZM256.182 146.736H255.182V147.736H256.182V146.736ZM256.182 129.018V128.018H255.182V129.018H256.182ZM314.928 129.018H315.928V128.018H314.928V129.018ZM314.928 146.736V147.736H315.928V146.736H314.928ZM296.629 146.736V145.736H295.629V146.736H296.629ZM296.629 200H274.48V202H296.629V200ZM275.48 201V146.736H273.48V201H275.48ZM274.48 145.736H256.182V147.736H274.48V145.736ZM257.182 146.736V129.018H255.182V146.736H257.182ZM256.182 130.018H314.928V128.018H256.182V130.018ZM313.928 129.018V146.736H315.928V129.018H313.928ZM314.928 145.736H296.629V147.736H314.928V145.736ZM295.629 146.736V201H297.629V146.736H295.629ZM386.488 201V202H387.488V201H386.488ZM364.34 201H363.34V202H364.34V201ZM364.34 173.736H365.34V172.736H364.34V173.736ZM343.51 173.736V172.736H342.51V173.736H343.51ZM343.51 201V202H344.51V201H343.51ZM321.361 201H320.361V202H321.361V201ZM321.361 129.018V128.018H320.361V129.018H321.361ZM343.51 129.018H344.51V128.018H343.51V129.018ZM343.51 156.176H342.51V157.176H343.51V156.176ZM364.34 156.176V157.176H365.34V156.176H364.34ZM364.34 129.018V128.018H363.34V129.018H364.34ZM386.488 129.018H387.488V128.018H386.488V129.018ZM386.488 200H364.34V202H386.488V200ZM365.34 201V173.736H363.34V201H365.34ZM364.34 172.736H343.51V174.736H364.34V172.736ZM342.51 173.736V201H344.51V173.736H342.51ZM343.51 200H321.361V202H343.51V200ZM322.361 201V129.018H320.361V201H322.361ZM321.361 130.018H343.51V128.018H321.361V130.018ZM342.51 129.018V156.176H344.51V129.018H342.51ZM343.51 157.176H364.34V155.176H343.51V157.176ZM365.34 156.176V129.018H363.34V156.176H365.34ZM364.34 130.018H386.488V128.018H364.34V130.018ZM385.488 129.018V201H387.488V129.018H385.488ZM449.98 183.967H450.98V182.967H449.98V183.967ZM449.98 201V202H450.98V201H449.98ZM398.67 201H397.67V202H398.67V201ZM398.67 129.018V128.018H397.67V129.018H398.67ZM449.98 129.018H450.98V128.018H449.98V129.018ZM449.98 146.051V147.051H450.98V146.051H449.98ZM420.555 146.051V145.051H419.555V146.051H420.555ZM420.555 157.389H419.555V158.389H420.555V157.389ZM448.029 157.389H449.029V156.389H448.029V157.389ZM448.029 172.787V173.787H449.029V172.787H448.029ZM420.555 172.787V171.787H419.555V172.787H420.555ZM420.555 183.967H419.555V184.967H420.555V183.967ZM402.625 122.795L401.904 122.102L400.278 123.795H402.625V122.795ZM415.439 109.453V108.453H415.013L414.718 108.76L415.439 109.453ZM431.154 109.453L431.856 108.74L431.564 108.453H431.154V109.453ZM444.707 122.795V123.795H447.148L445.409 122.082L444.707 122.795ZM429.783 122.795L429.073 123.499L429.366 123.795H429.783V122.795ZM424.088 117.047L424.798 116.343L424.505 116.047H424.088V117.047ZM422.875 117.047V116.047H422.435L422.138 116.371L422.875 117.047ZM417.602 122.795V123.795H418.041L418.338 123.471L417.602 122.795ZM435.531 108.504L434.843 107.779L434.071 108.511L434.85 109.236L435.531 108.504ZM443.811 100.646V99.6465H443.412L443.122 99.9211L443.811 100.646ZM457.363 100.646L458.016 101.404L460.054 99.6465H457.363V100.646ZM441.648 114.199L440.967 114.931L441.623 115.542L442.302 114.956L441.648 114.199ZM448.98 183.967V201H450.98V183.967H448.98ZM449.98 200H398.67V202H449.98V200ZM399.67 201V129.018H397.67V201H399.67ZM398.67 130.018H449.98V128.018H398.67V130.018ZM448.98 129.018V146.051H450.98V129.018H448.98ZM449.98 145.051H420.555V147.051H449.98V145.051ZM419.555 146.051V157.389H421.555V146.051H419.555ZM420.555 158.389H448.029V156.389H420.555V158.389ZM447.029 157.389V172.787H449.029V157.389H447.029ZM448.029 171.787H420.555V173.787H448.029V171.787ZM419.555 172.787V183.967H421.555V172.787H419.555ZM420.555 184.967H449.98V182.967H420.555V184.967ZM403.346 123.488L416.161 110.146L414.718 108.76L401.904 122.102L403.346 123.488ZM415.439 110.453H431.154V108.453H415.439V110.453ZM430.453 110.166L444.005 123.508L445.409 122.082L431.856 108.74L430.453 110.166ZM444.707 121.795H429.783V123.795H444.707V121.795ZM430.494 122.091L424.798 116.343L423.378 117.751L429.073 123.499L430.494 122.091ZM424.088 116.047H422.875V118.047H424.088V116.047ZM422.138 116.371L416.865 122.119L418.338 123.471L423.612 117.723L422.138 116.371ZM417.602 121.795H402.625V123.795H417.602V121.795ZM436.22 109.229L444.499 101.372L443.122 99.9211L434.843 107.779L436.22 109.229ZM443.811 101.646H457.363V99.6465H443.811V101.646ZM456.71 99.8892L440.995 113.442L442.302 114.956L458.016 101.404L456.71 99.8892ZM442.33 113.467L436.213 107.772L434.85 109.236L440.967 114.931L442.33 113.467ZM501.555 201V202H502.555V201H501.555ZM481.252 201H480.252V202H481.252V201ZM481.252 129.018V128.018H480.252V129.018H481.252ZM497.863 129.018L498.681 128.442L498.382 128.018H497.863V129.018ZM522.385 163.822L521.567 164.398L521.866 164.822H522.385V163.822ZM523.229 163.822V164.822H524.229V163.822H523.229ZM523.229 129.018V128.018H522.229V129.018H523.229ZM543.531 129.018H544.531V128.018H543.531V129.018ZM543.531 201V202H544.531V201H543.531ZM527.078 201L526.258 201.571L526.556 202H527.078V201ZM502.398 165.562L503.219 164.991L502.921 164.562H502.398V165.562ZM501.555 165.562V164.562H500.555V165.562H501.555ZM501.555 200H481.252V202H501.555V200ZM482.252 201V129.018H480.252V201H482.252ZM481.252 130.018H497.863V128.018H481.252V130.018ZM497.046 129.594L521.567 164.398L523.202 163.246L498.681 128.442L497.046 129.594ZM522.385 164.822H523.229V162.822H522.385V164.822ZM524.229 163.822V129.018H522.229V163.822H524.229ZM523.229 130.018H543.531V128.018H523.229V130.018ZM542.531 129.018V201H544.531V129.018H542.531ZM543.531 200H527.078V202H543.531V200ZM527.899 200.429L503.219 164.991L501.578 166.134L526.258 201.571L527.899 200.429ZM502.398 164.562H501.555V166.562H502.398V164.562ZM500.555 165.562V201H502.555V165.562H500.555ZM571.48 201V202H572.272L572.454 201.23L571.48 201ZM549.596 201L548.639 200.71L548.247 202H549.596V201ZM571.428 129.018V128.018H570.686L570.471 128.727L571.428 129.018ZM599.482 129.018L600.44 128.73L600.226 128.018H599.482V129.018ZM621.104 201V202H622.448L622.061 200.712L621.104 201ZM597.479 201L596.504 201.223L596.681 202H597.479V201ZM594.367 187.395L595.342 187.172L595.164 186.395H594.367V187.395ZM574.697 187.395V186.395H573.906L573.724 187.164L574.697 187.395ZM585.244 147.316L586.219 147.094L586.042 146.316H585.244V147.316ZM584.137 147.316V146.316H583.346L583.164 147.086L584.137 147.316ZM578.336 171.838L577.363 171.608L577.072 172.838H578.336V171.838ZM590.834 171.838V172.838H592.088L591.809 171.616L590.834 171.838ZM595 122.268V123.268H597.727L595.646 121.505L595 122.268ZM577.756 122.268L577.173 123.08L577.434 123.268H577.756V122.268ZM560.617 109.98V108.98H557.506L560.035 110.793L560.617 109.98ZM580.498 109.98L581.144 109.218L580.865 108.98H580.498V109.98ZM571.48 200H549.596V202H571.48V200ZM550.553 201.29L572.385 129.308L570.471 128.727L548.639 200.71L550.553 201.29ZM571.428 130.018H599.482V128.018H571.428V130.018ZM598.525 129.305L620.146 201.288L622.061 200.712L600.44 128.73L598.525 129.305ZM621.104 200H597.479V202H621.104V200ZM598.453 200.777L595.342 187.172L593.392 187.617L596.504 201.223L598.453 200.777ZM594.367 186.395H574.697V188.395H594.367V186.395ZM573.724 187.164L570.507 200.77L572.454 201.23L575.67 187.625L573.724 187.164ZM585.244 146.316H584.137V148.316H585.244V146.316ZM583.164 147.086L577.363 171.608L579.309 172.068L585.11 147.547L583.164 147.086ZM578.336 172.838H590.834V170.838H578.336V172.838ZM591.809 171.616L586.219 147.094L584.269 147.539L589.859 172.06L591.809 171.616ZM595 121.268H577.756V123.268H595V121.268ZM578.339 121.455L561.2 109.168L560.035 110.793L577.173 123.08L578.339 121.455ZM560.617 110.98H580.498V108.98H560.617V110.98ZM579.852 110.743L594.354 123.031L595.646 121.505L581.144 109.218L579.852 110.743ZM659.336 201V202H660.336V201H659.336ZM637.188 201H636.188V202H637.188V201ZM637.188 179.326H638.188V179.099L638.089 178.894L637.188 179.326ZM613.088 129.018V128.018H611.5L612.186 129.45L613.088 129.018ZM637.082 129.018L638.012 128.65L637.762 128.018H637.082V129.018ZM648.262 157.336L647.332 157.703L647.581 158.336H648.262V157.336ZM649.053 157.336V158.336H649.731L649.982 157.706L649.053 157.336ZM660.338 129.018V128.018H659.66L659.409 128.647L660.338 129.018ZM683.436 129.018L684.335 129.454L685.033 128.018H683.436V129.018ZM659.336 178.641L658.436 178.204L658.336 178.411V178.641H659.336ZM659.336 200H637.188V202H659.336V200ZM638.188 201V179.326H636.188V201H638.188ZM638.089 178.894L613.99 128.586L612.186 129.45L636.286 179.758L638.089 178.894ZM613.088 130.018H637.082V128.018H613.088V130.018ZM636.152 129.385L647.332 157.703L649.192 156.969L638.012 128.65L636.152 129.385ZM648.262 158.336H649.053V156.336H648.262V158.336ZM649.982 157.706L661.267 129.388L659.409 128.647L648.124 156.966L649.982 157.706ZM660.338 130.018H683.436V128.018H660.338V130.018ZM682.536 128.581L658.436 178.204L660.235 179.077L684.335 129.454L682.536 128.581ZM658.336 178.641V201H660.336V178.641H658.336ZM686.02 129.018V128.018H684.971L685.021 129.064L686.02 129.018ZM709.17 129.018L710.169 129.068L710.221 128.018H709.17V129.018ZM706.691 178.43V179.43H707.643L707.69 178.48L706.691 178.43ZM688.34 178.43L687.341 178.477L687.386 179.43H688.34V178.43ZM686.439 192.668C686.439 190.021 687.44 187.933 689.265 186.483C691.118 185.012 693.918 184.123 697.621 184.123V182.123C693.625 182.123 690.334 183.08 688.021 184.917C685.68 186.777 684.439 189.461 684.439 192.668H686.439ZM697.621 184.123C701.296 184.123 704.098 185.011 705.959 186.484C707.792 187.936 708.803 190.025 708.803 192.668H710.803C710.803 189.458 709.546 186.774 707.2 184.916C704.881 183.081 701.592 182.123 697.621 182.123V184.123ZM708.803 192.668C708.803 195.315 707.802 197.403 705.977 198.852C704.125 200.324 701.324 201.213 697.621 201.213V203.213C701.617 203.213 704.908 202.256 707.221 200.419C709.562 198.559 710.803 195.875 710.803 192.668H708.803ZM697.621 201.213C693.946 201.213 691.144 200.325 689.284 198.852C687.45 197.4 686.439 195.311 686.439 192.668H684.439C684.439 195.878 685.696 198.562 688.042 200.419C690.361 202.255 693.65 203.213 697.621 203.213V201.213ZM686.02 130.018H709.17V128.018H686.02V130.018ZM708.171 128.967L705.693 178.38L707.69 178.48L710.169 129.068L708.171 128.967ZM706.691 177.43H688.34V179.43H706.691V177.43ZM689.339 178.383L687.018 128.971L685.021 129.064L687.341 178.477L689.339 178.383Z" fill="white"/>
</svg>
