<svg width="186" height="43" viewBox="0 0 186 43" fill="none" xmlns="http://www.w3.org/2000/svg">
<rect x="0.5" y="0.5" width="185" height="42" rx="21" stroke="url(#paint0_linear_75_32)"/>
<path d="M27.7109 26V15.3438H31.5781C33.3438 15.3438 34.5312 16.3125 34.5312 17.9609C34.5312 19.2812 33.7891 20.0391 32.8203 20.3359V20.3906C34.3047 20.5859 35.1406 21.5859 35.1406 23.0312C35.1406 24.9531 33.6484 26 31.4453 26H27.7109ZM28.875 16.3984V19.9922H30.6719C32.3906 19.9922 33.3438 19.4766 33.3438 18.1562C33.3438 16.9297 32.5078 16.3984 31.4062 16.3984H28.875ZM28.875 21.0469V24.9375H30.8906C32.6562 24.9375 33.9531 24.6094 33.9531 23.0547C33.9531 21.6875 32.9609 21.0469 31.5859 21.0469H28.875ZM41.7344 24.8672C41.3438 25.5234 40.5625 26.1328 39.3125 26.1328C37.7266 26.1328 36.6406 25.1641 36.6406 23.6641C36.6406 22.25 37.625 21.3047 39.4922 21.3047H41.7188V20.2891C41.7188 19.1797 41.0547 18.7188 39.8984 18.7188C38.6953 18.7188 38.1797 19.2734 38.0781 20.0781H36.9609C37.0391 18.6641 38 17.6875 39.9609 17.6875C41.75 17.6875 42.8828 18.4688 42.8828 20.2734V26H41.7656V24.8672H41.7344ZM39.5859 25.1328C40.8047 25.1328 41.7188 24.3047 41.7188 23.2031V22.2656H39.5312C38.3359 22.2656 37.8281 22.8438 37.8281 23.6406C37.8281 24.6562 38.6641 25.1328 39.5859 25.1328ZM42.0781 15.1875C42.0781 15.9766 41.4453 16.8828 39.9766 16.8828C38.5078 16.8828 37.8203 16 37.8203 15.1875H38.6406C38.6406 15.7266 39.1328 16.1797 39.9766 16.1797C40.8203 16.1797 41.3281 15.7344 41.3281 15.1875H42.0781ZM39.2422 15.125L41.3516 13.1719H42.4844L40.2891 15.125H39.2422ZM45.6797 17.8203V15.7656H46.8281V17.8203H48.5234V18.7969H46.8281V23.8281C46.8281 24.8359 47.1641 25.0859 48.2031 25.0859C48.3438 25.0859 48.4766 25.0859 48.5938 25.0703V26.0156C48.4766 26.0391 48.1953 26.0703 47.9297 26.0703C46.0469 26.0703 45.6797 25.3438 45.6797 23.7578V18.7969H44.5312V17.8203H45.6797ZM56.5391 18.7031C55.2031 18.7031 54.3438 19.6797 54.3438 21.3516V22.4531C54.3438 24.1719 55.2344 25.1172 56.5859 25.1172C57.9688 25.1172 58.8594 24.1094 58.8594 22.5859V21.0703C58.8594 19.7344 57.9219 18.7031 56.5391 18.7031ZM58.8594 24.6562C58.6719 25.3281 57.8203 26.125 56.3594 26.125C54.4922 26.125 53.1953 24.8359 53.1953 22.75V21.0625C53.1953 19.0469 54.4531 17.6797 56.3984 17.6797C57.8047 17.6797 58.5547 18.4141 58.8047 19.0625H58.8594V16.7656H56.7891V15.8359H58.8594V14.4219H60.0078V15.8359H61.0469V16.7656H60.0078V26H58.9219V24.6562H58.8594ZM67.125 24.8672C66.7344 25.5234 65.9531 26.1328 64.7031 26.1328C63.1172 26.1328 62.0312 25.1641 62.0312 23.6641C62.0312 22.25 63.0156 21.3047 64.8828 21.3047H67.1094V20.2891C67.1094 19.1797 66.4453 18.7188 65.2891 18.7188C64.0859 18.7188 63.5703 19.2734 63.4688 20.0781H62.3516C62.4297 18.6641 63.3906 17.6875 65.3516 17.6875C67.1406 17.6875 68.2734 18.4688 68.2734 20.2734V26H67.1562V24.8672H67.125ZM64.9766 25.1328C66.1953 25.1328 67.1094 24.3047 67.1094 23.2031V22.2656H64.9219C63.7266 22.2656 63.2188 22.8438 63.2188 23.6406C63.2188 24.6562 64.0547 25.1328 64.9766 25.1328ZM68.7344 15.2812H67.875L65.75 13.5H67.0156L68.7344 15.2812ZM67.8594 16.5625H66.7188L65.3906 15.4141H65.3516L64.0312 16.5625H62.8906L65.0781 14.7578H65.6641L67.8594 16.5625ZM77.1484 17.8203V26H76V24.8828H75.9531C75.6562 25.5469 74.8828 26.1328 73.5547 26.1328C71.8672 26.1328 70.6484 25.1719 70.6484 23.3047V17.8203H71.8047V22.9766C71.8047 24.5234 72.7031 25.0781 73.8516 25.0781C75.1406 25.0781 75.9922 24.2344 75.9922 22.8906V17.8203H77.1484ZM86.4453 26.1328C85.0781 26.1328 84.3672 25.4922 84.0234 24.8594H83.9922V28.8359H82.8438V17.8125H83.9375V18.9922H83.9688C84.2734 18.3125 85.0938 17.6875 86.5 17.6875C88.3359 17.6875 89.6406 19.0391 89.6406 21.3125V22.5156C89.6406 24.8125 88.3359 26.1328 86.4453 26.1328ZM86.2891 25.1094C87.5625 25.1094 88.4922 24.1875 88.4922 22.3281V21.4688C88.4922 19.6875 87.6328 18.6953 86.2578 18.6953C84.8281 18.6953 83.9922 19.8281 83.9922 21.3438V22.4141C83.9922 23.8516 84.8281 25.1094 86.2891 25.1094ZM91.75 26V14.7734H92.8984V18.9297H92.9375C93.1875 18.375 93.9062 17.6875 95.2578 17.6875C97.0938 17.6875 98.3047 19.0078 98.3047 20.875V26H97.1484V21.1016C97.1484 19.7344 96.4609 18.7422 95.0859 18.7422C93.6953 18.7422 92.8984 19.6562 92.8984 21.1328V26H91.75ZM105.359 24.8672C104.969 25.5234 104.188 26.1328 102.938 26.1328C101.352 26.1328 100.266 25.1641 100.266 23.6641C100.266 22.25 101.25 21.3047 103.117 21.3047H105.344V20.2891C105.344 19.1797 104.68 18.7188 103.523 18.7188C102.32 18.7188 101.805 19.2734 101.703 20.0781H100.586C100.664 18.6641 101.625 17.6875 103.586 17.6875C105.375 17.6875 106.508 18.4688 106.508 20.2734V26H105.391V24.8672H105.359ZM103.211 25.1328C104.43 25.1328 105.344 24.3047 105.344 23.2031V22.2656H103.156C101.961 22.2656 101.453 22.8438 101.453 23.6406C101.453 24.6562 102.289 25.1328 103.211 25.1328ZM103.766 16.5547H102.859L104.328 14.4219H105.539L103.766 16.5547ZM109.305 17.8203V15.7656H110.453V17.8203H112.148V18.7969H110.453V23.8281C110.453 24.8359 110.789 25.0859 111.828 25.0859C111.969 25.0859 112.102 25.0859 112.219 25.0703V26.0156C112.102 26.0391 111.82 26.0703 111.555 26.0703C109.672 26.0703 109.305 25.3438 109.305 23.7578V18.7969H108.156V17.8203H109.305ZM117.57 17.8203V15.7656H118.719V17.8203H120.414V18.7969H118.719V23.8281C118.719 24.8359 119.055 25.0859 120.094 25.0859C120.234 25.0859 120.367 25.0859 120.484 25.0703V26.0156C120.367 26.0391 120.086 26.0703 119.82 26.0703C117.938 26.0703 117.57 25.3438 117.57 23.7578V18.7969H116.422V17.8203H117.57ZM122.391 26V17.8203H123.531V18.8359H123.562C123.805 18.3203 124.211 17.6953 125.641 17.6953C125.812 17.6953 125.984 17.7109 126.141 17.7266V18.7969C126.016 18.7734 125.758 18.7656 125.508 18.7656C124.062 18.7656 123.531 19.6484 123.531 20.8438V26H122.391ZM127.828 26V17.8203H128.977V26H127.828ZM127.617 15.8125C127.617 15.3672 127.969 15.0312 128.391 15.0312C128.844 15.0312 129.188 15.3672 129.188 15.8125C129.188 16.2656 128.844 16.6016 128.391 16.6016C127.969 16.6016 127.617 16.2656 127.617 15.8125ZM132.047 16.6328L134.242 14.9688H134.828L137.016 16.6328H135.875L134.547 15.5859H134.508L133.188 16.6328H132.047ZM135.547 13.4766C135.68 13.4531 135.93 13.4297 136.164 13.4297C136.891 13.4297 137.352 13.7812 137.352 14.3828C137.352 14.8594 137 15.2109 136.609 15.4297L136.211 15.0156C136.43 14.875 136.609 14.7109 136.609 14.4688C136.609 14.1797 136.328 14.0312 135.992 14.0312C135.875 14.0312 135.688 14.0391 135.547 14.0625V13.4766ZM134.664 26.1328C132.359 26.1328 131.25 24.5469 131.25 22.3438V21.5625C131.25 19.3281 132.336 17.6875 134.562 17.6875C136.789 17.6875 137.875 19.2734 137.875 21.5469V22.1953H132.406V22.4219C132.406 23.8359 133.078 25.1094 134.656 25.1094C135.891 25.1094 136.398 24.4375 136.547 23.8281H137.758C137.578 24.8438 136.742 26.1328 134.664 26.1328ZM132.406 21.2031H136.719V21.1797C136.719 19.7266 135.914 18.6953 134.562 18.6953C133.219 18.6953 132.406 19.7344 132.406 21.1797V21.2031ZM139.898 26V17.8203H141.047V18.9297H141.078C141.391 18.2812 142.234 17.6875 143.469 17.6875C145.094 17.6875 146.422 18.6953 146.422 20.5547V26H145.266V20.9844C145.266 19.5156 144.57 18.7422 143.195 18.7422C141.805 18.7422 141.047 19.6094 141.047 21.0859V26H139.898Z" fill="white"/>
<path d="M166.934 19.6562V18.3984C166.934 17.8242 167.645 17.5234 168.055 17.9336L170.406 20.3125C170.68 20.5586 170.68 20.9688 170.406 21.2148L168.055 23.5938C167.645 24.0039 166.934 23.7031 166.934 23.1289V21.8438H158.703C158.512 21.8438 158.375 21.707 158.375 21.5156V19.9844C158.375 19.8203 158.512 19.6562 158.703 19.6562H166.934Z" fill="#F2F2F2"/>
<defs>
<linearGradient id="paint0_linear_75_32" x1="93" y1="0" x2="93" y2="43" gradientUnits="userSpaceOnUse">
<stop stop-color="#26FDE6"/>
<stop offset="1" stop-color="#0591DF"/>
</linearGradient>
</defs>
</svg>
