<svg width="186" height="43" viewBox="0 0 186 43" fill="none" xmlns="http://www.w3.org/2000/svg">
<rect x="0.5" y="0.5" width="185" height="42" rx="21" stroke="url(#paint0_linear_75_42)"/>
<path d="M32.7422 26V15.3438H36.6094C38.375 15.3438 39.5625 16.3125 39.5625 17.9609C39.5625 19.2812 38.8203 20.0391 37.8516 20.3359V20.3906C39.3359 20.5859 40.1719 21.5859 40.1719 23.0312C40.1719 24.9531 38.6797 26 36.4766 26H32.7422ZM33.9062 16.3984V19.9922H35.7031C37.4219 19.9922 38.375 19.4766 38.375 18.1562C38.375 16.9297 37.5391 16.3984 36.4375 16.3984H33.9062ZM33.9062 21.0469V24.9375H35.9219C37.6875 24.9375 38.9844 24.6094 38.9844 23.0547C38.9844 21.6875 37.9922 21.0469 36.6172 21.0469H33.9062ZM46.7656 24.8672C46.375 25.5234 45.5938 26.1328 44.3438 26.1328C42.7578 26.1328 41.6719 25.1641 41.6719 23.6641C41.6719 22.25 42.6562 21.3047 44.5234 21.3047H46.75V20.2891C46.75 19.1797 46.0859 18.7188 44.9297 18.7188C43.7266 18.7188 43.2109 19.2734 43.1094 20.0781H41.9922C42.0703 18.6641 43.0312 17.6875 44.9922 17.6875C46.7812 17.6875 47.9141 18.4688 47.9141 20.2734V26H46.7969V24.8672H46.7656ZM44.6172 25.1328C45.8359 25.1328 46.75 24.3047 46.75 23.2031V22.2656H44.5625C43.3672 22.2656 42.8594 22.8438 42.8594 23.6406C42.8594 24.6562 43.6953 25.1328 44.6172 25.1328ZM47.1094 15.1875C47.1094 15.9766 46.4766 16.8828 45.0078 16.8828C43.5391 16.8828 42.8516 16 42.8516 15.1875H43.6719C43.6719 15.7266 44.1641 16.1797 45.0078 16.1797C45.8516 16.1797 46.3594 15.7344 46.3594 15.1875H47.1094ZM44.2734 15.125L46.3828 13.1719H47.5156L45.3203 15.125H44.2734ZM50.7109 17.8203V15.7656H51.8594V17.8203H53.5547V18.7969H51.8594V23.8281C51.8594 24.8359 52.1953 25.0859 53.2344 25.0859C53.375 25.0859 53.5078 25.0859 53.625 25.0703V26.0156C53.5078 26.0391 53.2266 26.0703 52.9609 26.0703C51.0781 26.0703 50.7109 25.3438 50.7109 23.7578V18.7969H49.5625V17.8203H50.7109ZM61.5703 18.7031C60.2344 18.7031 59.375 19.6797 59.375 21.3516V22.4531C59.375 24.1719 60.2656 25.1172 61.6172 25.1172C63 25.1172 63.8906 24.1094 63.8906 22.5859V21.0703C63.8906 19.7344 62.9531 18.7031 61.5703 18.7031ZM63.8906 24.6562C63.7031 25.3281 62.8516 26.125 61.3906 26.125C59.5234 26.125 58.2266 24.8359 58.2266 22.75V21.0625C58.2266 19.0469 59.4844 17.6797 61.4297 17.6797C62.8359 17.6797 63.5859 18.4141 63.8359 19.0625H63.8906V16.7656H61.8203V15.8359H63.8906V14.4219H65.0391V15.8359H66.0781V16.7656H65.0391V26H63.9531V24.6562H63.8906ZM72.1562 24.8672C71.7656 25.5234 70.9844 26.1328 69.7344 26.1328C68.1484 26.1328 67.0625 25.1641 67.0625 23.6641C67.0625 22.25 68.0469 21.3047 69.9141 21.3047H72.1406V20.2891C72.1406 19.1797 71.4766 18.7188 70.3203 18.7188C69.1172 18.7188 68.6016 19.2734 68.5 20.0781H67.3828C67.4609 18.6641 68.4219 17.6875 70.3828 17.6875C72.1719 17.6875 73.3047 18.4688 73.3047 20.2734V26H72.1875V24.8672H72.1562ZM70.0078 25.1328C71.2266 25.1328 72.1406 24.3047 72.1406 23.2031V22.2656H69.9531C68.7578 22.2656 68.25 22.8438 68.25 23.6406C68.25 24.6562 69.0859 25.1328 70.0078 25.1328ZM73.7656 15.2812H72.9062L70.7812 13.5H72.0469L73.7656 15.2812ZM72.8906 16.5625H71.75L70.4219 15.4141H70.3828L69.0625 16.5625H67.9219L70.1094 14.7578H70.6953L72.8906 16.5625ZM82.1797 17.8203V26H81.0312V24.8828H80.9844C80.6875 25.5469 79.9141 26.1328 78.5859 26.1328C76.8984 26.1328 75.6797 25.1719 75.6797 23.3047V17.8203H76.8359V22.9766C76.8359 24.5234 77.7344 25.0781 78.8828 25.0781C80.1719 25.0781 81.0234 24.2344 81.0234 22.8906V17.8203H82.1797ZM92.5859 26L90.5156 22.8281H90.4688L88.3906 26H87.0781L89.8672 21.9531L87.0781 17.8203H88.4609L90.4766 20.9766H90.5312L92.6016 17.8203H93.9297L91.1328 21.8203L93.9766 26H92.5859ZM102.086 17.8203V26H100.938V24.8828H100.891C100.594 25.5469 99.8203 26.1328 98.4922 26.1328C96.8047 26.1328 95.5859 25.1719 95.5859 23.3047V17.8203H96.7422V22.9766C96.7422 24.5234 97.6406 25.0781 98.7891 25.0781C100.078 25.0781 100.93 24.2344 100.93 22.8906V17.8203H102.086ZM109.172 24.8672C108.781 25.5234 108 26.1328 106.75 26.1328C105.164 26.1328 104.078 25.1641 104.078 23.6641C104.078 22.25 105.062 21.3047 106.93 21.3047H109.156V20.2891C109.156 19.1797 108.492 18.7188 107.336 18.7188C106.133 18.7188 105.617 19.2734 105.516 20.0781H104.398C104.477 18.6641 105.438 17.6875 107.398 17.6875C109.188 17.6875 110.32 18.4688 110.32 20.2734V26H109.203V24.8672H109.172ZM107.023 25.1328C108.242 25.1328 109.156 24.3047 109.156 23.2031V22.2656H106.969C105.773 22.2656 105.266 22.8438 105.266 23.6406C105.266 24.6562 106.102 25.1328 107.023 25.1328ZM104.938 16.5625L107.125 14.7578H107.711L109.906 16.5625H108.766L107.438 15.4141H107.398L106.078 16.5625H104.938ZM108.93 15.2578L110.484 13.5H111.742L109.758 15.2812L108.93 15.2578ZM113.117 17.8203V15.7656H114.266V17.8203H115.961V18.7969H114.266V23.8281C114.266 24.8359 114.602 25.0859 115.641 25.0859C115.781 25.0859 115.914 25.0859 116.031 25.0703V26.0156C115.914 26.0391 115.633 26.0703 115.367 26.0703C113.484 26.0703 113.117 25.3438 113.117 23.7578V18.7969H111.969V17.8203H113.117ZM120.625 20.1094C120.625 18.4375 122.031 17.6875 123.586 17.6875C125.516 17.6875 126.438 18.8203 126.438 20.1016H125.352C125.312 19.4609 124.898 18.6328 123.531 18.6328C122.516 18.6328 121.758 19.1172 121.758 19.9922C121.758 21 122.797 21.1641 123.789 21.3594C125.32 21.6406 126.641 22.0312 126.641 23.6328C126.641 25.25 125.32 26.1328 123.469 26.1328C121.672 26.1328 120.469 25.2344 120.469 23.8281H121.594C121.703 24.5781 122.305 25.1719 123.516 25.1719C124.875 25.1719 125.5 24.5703 125.5 23.7656C125.5 22.7891 124.57 22.5938 123.398 22.3594C121.859 22.0312 120.625 21.6953 120.625 20.1094ZM133.25 24.8672C132.859 25.5234 132.078 26.1328 130.828 26.1328C129.242 26.1328 128.156 25.1641 128.156 23.6641C128.156 22.25 129.141 21.3047 131.008 21.3047H133.234V20.2891C133.234 19.1797 132.57 18.7188 131.414 18.7188C130.211 18.7188 129.695 19.2734 129.594 20.0781H128.477C128.555 18.6641 129.516 17.6875 131.477 17.6875C133.266 17.6875 134.398 18.4688 134.398 20.2734V26H133.281V24.8672H133.25ZM131.102 25.1328C132.32 25.1328 133.234 24.3047 133.234 23.2031V22.2656H131.047C129.852 22.2656 129.344 22.8438 129.344 23.6406C129.344 24.6562 130.18 25.1328 131.102 25.1328ZM133.594 15.1875C133.594 15.9766 132.961 16.8828 131.492 16.8828C130.023 16.8828 129.336 16 129.336 15.1875H130.156C130.156 15.7266 130.648 16.1797 131.492 16.1797C132.336 16.1797 132.844 15.7344 132.844 15.1875H133.594ZM130.758 15.125L132.867 13.1719H134L131.805 15.125H130.758ZM136.438 22.3984V21.3984C136.438 19.2578 137.633 17.6875 139.773 17.6875C141.75 17.6875 142.82 18.9453 142.844 20.1406H141.695C141.602 19.5078 140.977 18.6953 139.789 18.6953C138.281 18.6953 137.578 19.9141 137.578 21.4531V22.4062C137.578 23.9219 138.391 25.0547 139.797 25.0547C140.992 25.0547 141.586 24.4688 141.75 23.8125H142.898C142.836 24.9062 141.758 26.1328 139.773 26.1328C137.602 26.1328 136.438 24.5703 136.438 22.3984Z" fill="white"/>
<path d="M166.934 19.6562V18.3984C166.934 17.8242 167.645 17.5234 168.055 17.9336L170.406 20.3125C170.68 20.5586 170.68 20.9688 170.406 21.2148L168.055 23.5938C167.645 24.0039 166.934 23.7031 166.934 23.1289V21.8438H158.703C158.512 21.8438 158.375 21.707 158.375 21.5156V19.9844C158.375 19.8203 158.512 19.6562 158.703 19.6562H166.934Z" fill="#F2F2F2"/>
<defs>
<linearGradient id="paint0_linear_75_42" x1="93" y1="0" x2="93" y2="43" gradientUnits="userSpaceOnUse">
<stop stop-color="#26FDE6"/>
<stop offset="1" stop-color="#0591DF"/>
</linearGradient>
</defs>
</svg>
