<svg width="186" height="43" viewBox="0 0 186 43" fill="none" xmlns="http://www.w3.org/2000/svg">
<rect x="0.5" y="0.5" width="185" height="42" rx="21" stroke="url(#paint0_linear_75_38)"/>
<path d="M29.7266 26V15.3438H33.5938C35.3594 15.3438 36.5469 16.3125 36.5469 17.9609C36.5469 19.2812 35.8047 20.0391 34.8359 20.3359V20.3906C36.3203 20.5859 37.1562 21.5859 37.1562 23.0312C37.1562 24.9531 35.6641 26 33.4609 26H29.7266ZM30.8906 16.3984V19.9922H32.6875C34.4062 19.9922 35.3594 19.4766 35.3594 18.1562C35.3594 16.9297 34.5234 16.3984 33.4219 16.3984H30.8906ZM30.8906 21.0469V24.9375H32.9062C34.6719 24.9375 35.9688 24.6094 35.9688 23.0547C35.9688 21.6875 34.9766 21.0469 33.6016 21.0469H30.8906ZM43.75 24.8672C43.3594 25.5234 42.5781 26.1328 41.3281 26.1328C39.7422 26.1328 38.6562 25.1641 38.6562 23.6641C38.6562 22.25 39.6406 21.3047 41.5078 21.3047H43.7344V20.2891C43.7344 19.1797 43.0703 18.7188 41.9141 18.7188C40.7109 18.7188 40.1953 19.2734 40.0938 20.0781H38.9766C39.0547 18.6641 40.0156 17.6875 41.9766 17.6875C43.7656 17.6875 44.8984 18.4688 44.8984 20.2734V26H43.7812V24.8672H43.75ZM41.6016 25.1328C42.8203 25.1328 43.7344 24.3047 43.7344 23.2031V22.2656H41.5469C40.3516 22.2656 39.8438 22.8438 39.8438 23.6406C39.8438 24.6562 40.6797 25.1328 41.6016 25.1328ZM44.0938 15.1875C44.0938 15.9766 43.4609 16.8828 41.9922 16.8828C40.5234 16.8828 39.8359 16 39.8359 15.1875H40.6562C40.6562 15.7266 41.1484 16.1797 41.9922 16.1797C42.8359 16.1797 43.3438 15.7344 43.3438 15.1875H44.0938ZM41.2578 15.125L43.3672 13.1719H44.5L42.3047 15.125H41.2578ZM47.6953 17.8203V15.7656H48.8438V17.8203H50.5391V18.7969H48.8438V23.8281C48.8438 24.8359 49.1797 25.0859 50.2188 25.0859C50.3594 25.0859 50.4922 25.0859 50.6094 25.0703V26.0156C50.4922 26.0391 50.2109 26.0703 49.9453 26.0703C48.0625 26.0703 47.6953 25.3438 47.6953 23.7578V18.7969H46.5469V17.8203H47.6953ZM58.5547 18.7031C57.2188 18.7031 56.3594 19.6797 56.3594 21.3516V22.4531C56.3594 24.1719 57.25 25.1172 58.6016 25.1172C59.9844 25.1172 60.875 24.1094 60.875 22.5859V21.0703C60.875 19.7344 59.9375 18.7031 58.5547 18.7031ZM60.875 24.6562C60.6875 25.3281 59.8359 26.125 58.375 26.125C56.5078 26.125 55.2109 24.8359 55.2109 22.75V21.0625C55.2109 19.0469 56.4688 17.6797 58.4141 17.6797C59.8203 17.6797 60.5703 18.4141 60.8203 19.0625H60.875V16.7656H58.8047V15.8359H60.875V14.4219H62.0234V15.8359H63.0625V16.7656H62.0234V26H60.9375V24.6562H60.875ZM69.1406 24.8672C68.75 25.5234 67.9688 26.1328 66.7188 26.1328C65.1328 26.1328 64.0469 25.1641 64.0469 23.6641C64.0469 22.25 65.0312 21.3047 66.8984 21.3047H69.125V20.2891C69.125 19.1797 68.4609 18.7188 67.3047 18.7188C66.1016 18.7188 65.5859 19.2734 65.4844 20.0781H64.3672C64.4453 18.6641 65.4062 17.6875 67.3672 17.6875C69.1562 17.6875 70.2891 18.4688 70.2891 20.2734V26H69.1719V24.8672H69.1406ZM66.9922 25.1328C68.2109 25.1328 69.125 24.3047 69.125 23.2031V22.2656H66.9375C65.7422 22.2656 65.2344 22.8438 65.2344 23.6406C65.2344 24.6562 66.0703 25.1328 66.9922 25.1328ZM70.75 15.2812H69.8906L67.7656 13.5H69.0312L70.75 15.2812ZM69.875 16.5625H68.7344L67.4062 15.4141H67.3672L66.0469 16.5625H64.9062L67.0938 14.7578H67.6797L69.875 16.5625ZM79.1641 17.8203V26H78.0156V24.8828H77.9688C77.6719 25.5469 76.8984 26.1328 75.5703 26.1328C73.8828 26.1328 72.6641 25.1719 72.6641 23.3047V17.8203H73.8203V22.9766C73.8203 24.5234 74.7188 25.0781 75.8672 25.0781C77.1562 25.0781 78.0078 24.2344 78.0078 22.8906V17.8203H79.1641ZM86.0234 22.9062V26H84.875V14.7734H86.0234V21.6094H86.0703L89.6562 17.8047H91.0078L87.6953 21.3516L91.2109 26H89.8203L86.8594 22.0859L86.0234 22.9062ZM92.8438 26V17.8203H93.9922V26H92.8438ZM92.6328 15.8125C92.6328 15.3672 92.9844 15.0312 93.4062 15.0312C93.8594 15.0312 94.2031 15.3672 94.2031 15.8125C94.2031 16.2656 93.8594 16.6016 93.4062 16.6016C92.9844 16.6016 92.6328 16.2656 92.6328 15.8125ZM97.0703 16.5625L99.2578 14.7578H99.8438L102.039 16.5625H100.898L99.5703 15.4141H99.5312L98.2109 16.5625H97.0703ZM101.062 15.2578L102.617 13.5H103.875L101.891 15.2812L101.062 15.2578ZM99.6797 26.1328C97.375 26.1328 96.2656 24.5469 96.2656 22.3438V21.5625C96.2656 19.3281 97.3516 17.6875 99.5781 17.6875C101.805 17.6875 102.891 19.2734 102.891 21.5469V22.1953H97.4219V22.4219C97.4219 23.8359 98.0938 25.1094 99.6719 25.1094C100.906 25.1094 101.414 24.4375 101.562 23.8281H102.773C102.594 24.8438 101.758 26.1328 99.6797 26.1328ZM97.4219 21.2031H101.734V21.1797C101.734 19.7266 100.93 18.6953 99.5781 18.6953C98.2344 18.6953 97.4219 19.7344 97.4219 21.1797V21.2031ZM104.914 26V17.8203H106.062V18.8438H106.125C106.383 18.2812 107.102 17.6875 108.211 17.6875C109.508 17.6875 110.273 18.2266 110.586 19.0391H110.641C110.938 18.3359 111.789 17.6875 113.148 17.6875C114.859 17.6875 115.898 18.7344 115.898 20.4375V26H114.758V20.6484C114.758 19.5469 114.117 18.7422 112.898 18.7422C111.656 18.7422 110.984 19.6172 110.984 20.7734V26H109.836V20.7734C109.836 19.4688 109.141 18.7422 107.961 18.7422C106.875 18.7422 106.062 19.5 106.062 20.7734V26H104.914ZM121.914 17.8203V15.7656H123.062V17.8203H124.758V18.7969H123.062V23.8281C123.062 24.8359 123.398 25.0859 124.438 25.0859C124.578 25.0859 124.711 25.0859 124.828 25.0703V26.0156C124.711 26.0391 124.43 26.0703 124.164 26.0703C122.281 26.0703 121.914 25.3438 121.914 23.7578V18.7969H120.766V17.8203H121.914ZM126.812 26V17.8203H127.961V26H126.812ZM126.602 15.8125C126.602 15.3672 126.953 15.0312 127.375 15.0312C127.828 15.0312 128.172 15.3672 128.172 15.8125C128.172 16.2656 127.828 16.6016 127.375 16.6016C126.953 16.6016 126.602 16.2656 126.602 15.8125ZM136.883 15.2812H136.023L133.898 13.5H135.164L136.883 15.2812ZM136.008 16.5625H134.867L133.539 15.4141H133.5L132.18 16.5625H131.039L133.227 14.7578H133.812L136.008 16.5625ZM133.648 26.1328C131.344 26.1328 130.234 24.5469 130.234 22.3438V21.5625C130.234 19.3281 131.32 17.6875 133.547 17.6875C135.773 17.6875 136.859 19.2734 136.859 21.5469V22.1953H131.391V22.4219C131.391 23.8359 132.062 25.1094 133.641 25.1094C134.875 25.1094 135.383 24.4375 135.531 23.8281H136.742C136.562 24.8438 135.727 26.1328 133.648 26.1328ZM131.391 21.2031H135.703V21.1797C135.703 19.7266 134.898 18.6953 133.547 18.6953C132.203 18.6953 131.391 19.7344 131.391 21.1797V21.2031ZM138.883 26V17.8203H140.031V18.9297H140.062C140.375 18.2812 141.219 17.6875 142.453 17.6875C144.078 17.6875 145.406 18.6953 145.406 20.5547V26H144.25V20.9844C144.25 19.5156 143.555 18.7422 142.18 18.7422C140.789 18.7422 140.031 19.6094 140.031 21.0859V26H138.883Z" fill="white"/>
<path d="M166.934 19.6562V18.3984C166.934 17.8242 167.645 17.5234 168.055 17.9336L170.406 20.3125C170.68 20.5586 170.68 20.9688 170.406 21.2148L168.055 23.5938C167.645 24.0039 166.934 23.7031 166.934 23.1289V21.8438H158.703C158.512 21.8438 158.375 21.707 158.375 21.5156V19.9844C158.375 19.8203 158.512 19.6562 158.703 19.6562H166.934Z" fill="#F2F2F2"/>
<defs>
<linearGradient id="paint0_linear_75_38" x1="93" y1="0" x2="93" y2="43" gradientUnits="userSpaceOnUse">
<stop stop-color="#26FDE6"/>
<stop offset="1" stop-color="#0591DF"/>
</linearGradient>
</defs>
</svg>
