<svg width="125" height="128" viewBox="0 0 125 128" fill="none" xmlns="http://www.w3.org/2000/svg">
<path d="M117 0H42.6903C38.3368 0 34.7949 3.54296 34.7949 7.89745V31.5702H32.3251C31.5537 31.5702 30.7939 31.4453 30.0663 31.2011L28.2597 30.5917C27.746 30.4199 27.2792 30.1249 26.9091 29.7372C26.9033 29.7314 26.8984 29.7246 26.8925 29.7187C26.2978 29.0888 25.9697 28.2665 25.9697 27.3974V23.9677L27.0468 23.3115C28.9589 22.1464 30.1464 20.0302 30.1464 17.789V12.126C30.1464 12.1191 30.1464 12.1123 30.1464 12.1064V7.16502C30.1464 3.21386 26.9365 0 22.9892 0H16.4511C12.5049 0 9.29393 3.21386 9.29393 7.16502V17.789C9.29393 20.0302 10.4814 22.1464 12.3935 23.3115L13.4697 23.9677V27.3974C13.4697 28.333 13.0771 29.2353 12.3935 29.872C12.0439 30.1962 11.6357 30.4394 11.1797 30.5927L7.98436 31.6679C3.20898 33.2763 0 37.747 0 42.7929V68.5594C0 73.1024 3.23828 76.9022 7.52733 77.7743V85.7498C7.52733 86.785 8.36717 87.6248 9.40233 87.6248C10.4385 87.6248 11.2773 86.785 11.2773 85.7498V70.3749H27.6191V117.719H21.3232V77.9998C21.3232 76.9647 20.4843 76.1248 19.4482 76.1248C18.4131 76.1248 17.5732 76.9647 17.5732 77.9998V117.719H11.2773V93.1668C11.2773 92.1307 10.4385 91.2918 9.40233 91.2918C8.36717 91.2918 7.52733 92.1307 7.52733 93.1668V119.594C7.52733 120.275 7.89256 120.871 8.43748 121.199C7.86034 122.207 7.52733 123.374 7.52733 124.617V125.674C7.52733 126.957 8.57127 128 9.8535 128H18.997C19.1513 128 19.3017 127.984 19.4482 127.955C19.5947 127.984 19.7451 128 19.8994 128H29.0429C30.3251 128 31.3691 126.957 31.3691 125.674V124.617C31.3691 123.374 31.0371 122.207 30.4589 121.199C31.0038 120.871 31.3691 120.276 31.3691 119.594V68.5194C31.3691 68.5126 31.3701 68.5067 31.3701 68.4999V44.6073C31.3701 44.2489 31.6601 43.9569 32.0175 43.9569H53.2548C58.5028 43.9569 62.7723 39.6894 62.7723 34.4423V33.6923C62.7723 32.5224 61.8212 31.5702 60.6532 31.5702H57.247L59.9296 29.0615C60.6376 29.4111 61.4305 29.6132 62.2733 29.6132C63.6063 29.6132 64.8221 29.1162 65.7557 28.3017L70.6883 30.9511C70.6581 31.1796 70.6366 31.4111 70.6366 31.6474C70.6366 34.5751 73.0194 36.957 75.9471 36.957C78.8748 36.957 81.2567 34.5751 81.2567 31.6474C81.2567 30.6796 80.992 29.7734 80.5379 28.9912L84.9276 23.6132C85.4578 23.7919 86.0233 23.8925 86.6141 23.8925C87.3426 23.8925 88.0369 23.7451 88.6688 23.4785L92.2498 27.2587C91.909 27.9589 91.7127 28.7421 91.7127 29.5712C91.7127 32.499 94.0946 34.8808 97.0233 34.8808C99.951 34.8808 102.333 32.499 102.333 29.5712C102.333 28.5908 102.061 27.6747 101.596 26.8857L108.316 18.5547C108.847 18.7334 109.414 18.8349 110.005 18.8349C112.932 18.8349 115.314 16.4531 115.314 13.5244C115.314 10.5967 112.932 8.21483 110.005 8.21483C107.076 8.21483 104.694 10.5967 104.694 13.5244C104.694 14.4931 104.959 15.3984 105.413 16.1806L98.6785 24.5292C98.157 24.3574 97.6014 24.2617 97.0223 24.2617C96.2938 24.2617 95.5994 24.4091 94.9676 24.6757L91.3865 20.8945C91.7264 20.1943 91.9237 19.4121 91.9237 18.583C91.9237 15.6552 89.5408 13.2734 86.6131 13.2734C83.6854 13.2734 81.3036 15.6552 81.3036 18.583C81.3036 19.5517 81.5682 20.458 82.0233 21.2412L77.6346 26.6171C77.1034 26.4384 76.537 26.3378 75.9471 26.3378C74.6141 26.3378 73.3983 26.8349 72.4647 27.6484L67.5321 24.999C67.5614 24.7714 67.5829 24.54 67.5829 24.3037C67.5829 21.3759 65.201 18.9941 62.2723 18.9941C59.3446 18.9941 56.9628 21.3759 56.9628 24.3037C56.9628 25.0195 57.1073 25.7021 57.3651 26.3251L51.7577 31.5702H38.5448V7.89745C38.5448 5.61034 40.4042 3.74999 42.6894 3.74999H117C119.287 3.74999 121.147 5.61034 121.147 7.89745V70.0653C121.147 72.3514 119.287 74.2127 117 74.2127H42.6894C40.4042 74.2127 38.5448 72.3514 38.5448 70.0653V49.7538C38.5448 48.7177 37.706 47.8788 36.6699 47.8788C35.6337 47.8788 34.7949 48.7177 34.7949 49.7538V70.0653C34.7949 74.4198 38.3368 77.9627 42.6894 77.9627H51.4657C50.8339 79.0301 50.4696 80.2743 50.4696 81.6024V92.2264C50.4696 94.4676 51.6581 96.5838 53.5702 97.7488L54.6474 98.4061V101.835C54.6474 102.771 54.2548 103.673 53.5702 104.309C53.2206 104.635 52.8124 104.877 52.3573 105.03L49.162 106.105C44.3857 107.714 41.1777 112.184 41.1777 117.23V126.125C41.1777 127.161 42.0165 128 43.0527 128C44.0878 128 44.9277 127.161 44.9277 126.125V117.23C44.9277 113.796 47.1093 110.753 50.3573 109.66L53.5536 108.585C54.1454 108.385 54.7001 108.113 55.2128 107.773C56.2118 108.073 57.2284 108.288 58.2577 108.414L54.9755 120.017C54.8007 120.636 54.954 121.301 55.3837 121.779L59.2948 126.14C59.6395 126.524 60.1268 126.75 60.6434 126.762C60.6591 126.762 60.6747 126.763 60.6903 126.763C61.1893 126.763 61.6688 126.564 62.0214 126.209L66.3465 121.847C66.8358 121.354 67.0126 120.631 66.8055 119.968L63.1727 108.355C64.244 108.199 65.3007 107.947 66.3348 107.602C66.9169 108.023 67.5614 108.356 68.2421 108.585L71.4364 109.659C74.6844 110.754 76.867 113.796 76.867 117.23V126.125C76.867 127.16 77.7069 128 78.742 128C79.7782 128 80.617 127.16 80.617 126.125V117.23C80.617 115.547 81.1356 113.934 82.117 112.567C82.7205 111.726 82.5282 110.554 81.6873 109.951C80.8456 109.347 79.6747 109.54 79.0702 110.381C78.9569 110.539 78.8485 110.701 78.743 110.863C77.3368 108.682 75.2147 106.974 72.6327 106.105L69.4344 105.029C68.9149 104.855 68.4598 104.567 68.0829 104.172C67.4794 103.541 67.1473 102.711 67.1473 101.835V98.4051L68.2245 97.7488C70.1366 96.5838 71.3231 94.4676 71.3231 92.2264V86.5623C71.3231 86.5565 71.3231 86.5496 71.3231 86.5438V81.6024C71.3231 80.2743 70.9588 79.0301 70.327 77.9618H87.1571C86.5252 79.0301 86.161 80.2743 86.161 81.6024V92.2264C86.161 94.4676 87.3494 96.5838 89.2606 97.7488L90.3367 98.4051V101.835C90.3367 102.77 89.9451 103.674 89.2635 104.309C88.9149 104.633 88.5057 104.876 88.0467 105.03L86.3426 105.604C85.3612 105.934 84.8338 106.998 85.1639 107.979C85.4276 108.762 86.158 109.257 86.9403 109.257C87.1395 109.257 87.3407 109.224 87.5399 109.158L89.243 108.584C89.8367 108.385 90.3914 108.112 90.9041 107.773C91.9031 108.073 92.9197 108.288 93.949 108.414L90.6658 120.016C90.491 120.636 90.6453 121.301 91.074 121.779L94.9861 126.14C95.3309 126.524 95.8182 126.75 96.3348 126.762C96.3504 126.762 96.366 126.763 96.3817 126.763C96.8807 126.763 97.3602 126.564 97.7127 126.209L102.038 121.847C102.527 121.354 102.704 120.631 102.496 119.968L98.8631 108.355C99.9344 108.199 100.991 107.946 102.026 107.602C102.606 108.022 103.251 108.355 103.934 108.584L107.126 109.659C108.273 110.045 109.292 110.669 110.155 111.514C110.993 112.334 111.651 113.346 112.059 114.443C112.391 115.337 112.56 116.274 112.56 117.229V126.124C112.56 127.16 113.399 127.999 114.435 127.999C115.47 127.999 116.31 127.16 116.31 126.124V117.229C116.31 115.826 116.062 114.449 115.574 113.136C114.975 111.525 114.008 110.037 112.778 108.834C111.508 107.591 110.01 106.673 108.323 106.105L105.127 105.028C104.612 104.856 104.146 104.561 103.774 104.17C103.172 103.541 102.841 102.712 102.841 101.834V98.4031L103.915 97.7479C105.827 96.5828 107.014 94.4666 107.014 92.2254V86.5614C107.014 86.5555 107.014 86.5487 107.014 86.5428V81.6014C107.014 80.2733 106.65 79.0291 106.018 77.9618H117C121.354 77.9618 124.897 74.4188 124.897 70.0643V7.89745C124.897 3.54296 121.354 0 117 0ZM110.005 11.9648C110.864 11.9648 111.564 12.665 111.564 13.5254C111.564 14.3847 110.864 15.0849 110.005 15.0849C109.631 15.0849 109.288 14.9531 109.019 14.7334C109.013 14.7285 109.009 14.7226 109.003 14.7177C109.001 14.7168 109 14.7158 108.999 14.7148C108.66 14.4287 108.445 14.0019 108.445 13.5244C108.444 12.665 109.144 11.9648 110.005 11.9648ZM98.5828 29.5712C98.5828 30.4316 97.8826 31.1308 97.0223 31.1308C96.1629 31.1308 95.4627 30.4316 95.4627 29.5712C95.4627 28.7109 96.1629 28.0117 97.0223 28.0117C97.8826 28.0117 98.5828 28.7109 98.5828 29.5712ZM86.6131 17.0224C87.4735 17.0224 88.1737 17.7226 88.1737 18.582C88.1737 19.4423 87.4735 20.1425 86.6131 20.1425C86.242 20.1425 85.9012 20.0117 85.6327 19.7939C85.6317 19.7929 85.6297 19.791 85.6278 19.79C85.6248 19.7871 85.6219 19.7851 85.618 19.7822C85.2733 19.4961 85.0536 19.0644 85.0536 18.582C85.0536 17.7226 85.7537 17.0224 86.6131 17.0224ZM75.9471 30.0878C76.8065 30.0878 77.5067 30.787 77.5067 31.6474C77.5067 32.5077 76.8065 33.207 75.9471 33.207C75.0868 33.207 74.3866 32.5077 74.3866 31.6474C74.3866 31.3837 74.453 31.1367 74.5692 30.9179C74.5702 30.915 74.5731 30.912 74.5741 30.9091C74.577 30.9042 74.579 30.8994 74.5809 30.8945C74.8475 30.414 75.3592 30.0878 75.9471 30.0878ZM62.2723 22.7431C63.1327 22.7431 63.8329 23.4433 63.8329 24.3037C63.8329 24.5644 63.7675 24.8105 63.6542 25.0263C63.6512 25.0312 63.6483 25.0361 63.6454 25.04C63.6425 25.0468 63.6395 25.0527 63.6366 25.0585C63.371 25.538 62.8593 25.8632 62.2723 25.8632C61.8241 25.8632 61.4198 25.6718 61.1346 25.3681C61.1346 25.3671 61.1337 25.3662 61.1337 25.3662C60.8729 25.0878 60.7128 24.7138 60.7128 24.3037C60.7128 23.4433 61.413 22.7431 62.2723 22.7431ZM19.6064 41.7362L21.7949 52.0526L19.582 54.2831L17.6191 52.0946L19.6064 41.7362ZM19.6455 30.3622C18.6455 30.3837 17.6523 30.2997 16.6757 30.1201C17.0293 29.2636 17.2197 28.3388 17.2197 27.3974V26.1689C18.0205 26.5068 18.8701 26.6777 19.7197 26.6777C20.5703 26.6777 21.4189 26.5068 22.2197 26.1689V27.3974C22.2197 28.29 22.3857 29.1591 22.6982 29.9706C21.6972 30.206 20.6767 30.3398 19.6455 30.3622ZM16.4511 3.74999H22.9892C24.8681 3.74999 26.3964 5.28222 26.3964 7.16502V9.52635L17.5039 6.66405C17.0263 6.51073 16.5068 6.55467 16.0615 6.7871L13.0439 8.36229V7.16502C13.0439 5.28222 14.5722 3.74999 16.4511 3.74999ZM13.0439 12.5927L17.1015 10.4736L26.3964 13.4658V17.789C26.3964 18.7314 25.8984 19.6201 25.0957 20.1093L21.1279 22.5283C20.2597 23.0576 19.1806 23.0576 18.3125 22.5283L14.3457 20.1093C13.542 19.6201 13.0439 18.7304 13.0439 17.7881V12.5927ZM11.2988 124.25C11.4814 122.686 12.8135 121.469 14.4258 121.469C16.0371 121.469 17.3701 122.686 17.5517 124.25H11.2988ZM21.3447 124.25C21.5273 122.686 22.8593 121.469 24.4707 121.469C26.083 121.469 27.416 122.686 27.5976 124.25H21.3447ZM53.2548 40.207H32.0175C29.5927 40.207 27.6201 42.1816 27.6201 44.6073V66.6249H11.2773V45.5302C11.2773 44.4941 10.4385 43.6552 9.40233 43.6552C8.36717 43.6552 7.52733 44.4941 7.52733 45.5302V73.8915C5.33007 73.1161 3.74999 71.0194 3.74999 68.5594V42.7929C3.74999 39.3583 5.93261 36.3163 9.18065 35.2216L12.376 34.1464C12.9687 33.9472 13.5234 33.6747 14.0351 33.3359C15.0967 33.6533 16.1777 33.874 17.2724 33.997L13.7617 52.3007C13.6513 52.8759 13.8164 53.4696 14.207 53.9061L18.1181 58.2665C18.4629 58.6513 18.9502 58.8759 19.4668 58.8895H19.5136C20.0127 58.8895 20.4921 58.6903 20.8447 58.3348L25.1699 53.9745C25.6152 53.5253 25.8046 52.8827 25.6738 52.2645L21.7871 33.9462C22.9296 33.7929 24.0566 33.5322 25.1582 33.165C25.7392 33.5859 26.3847 33.9189 27.0664 34.1464L28.8691 34.7548C29.9824 35.1298 31.1454 35.3202 32.3251 35.3202H58.9559C58.5321 38.0839 56.1366 40.207 53.2548 40.207ZM67.5731 83.9637L58.6806 81.1014C58.203 80.9481 57.6835 80.992 57.2382 81.2244L54.2206 82.7996V81.6024C54.2206 79.7196 55.7489 78.1873 57.6278 78.1873H64.1659C66.0448 78.1873 67.5731 79.7196 67.5731 81.6024V83.9637ZM63.3973 100.606V101.835C63.3973 102.727 63.5634 103.596 63.8759 104.407C62.8749 104.643 61.8534 104.777 60.8222 104.8C59.8241 104.82 58.8309 104.737 57.8524 104.557C58.2069 103.701 58.3974 102.776 58.3974 101.835V100.606C59.1981 100.944 60.0468 101.115 60.8973 101.115C61.747 101.115 62.5966 100.944 63.3973 100.606ZM60.7587 122.156L58.8651 120.045L60.7811 113.271L62.8886 120.009L60.7587 122.156ZM66.2723 94.5467L62.3046 96.9656C61.4364 97.4949 60.3573 97.4949 59.4891 96.9656L55.5224 94.5467C54.7186 94.0574 54.2206 93.1678 54.2206 92.2264V87.0301L58.2782 84.911L67.5731 87.9031V92.2264C67.5731 93.1688 67.0751 94.0574 66.2723 94.5467ZM103.264 83.9637L94.3719 81.1014C93.8934 80.9481 93.3738 80.992 92.9295 81.2244L89.9119 82.7996V81.6024C89.9119 79.7196 91.4403 78.1873 93.3192 78.1873H99.8572C101.736 78.1873 103.264 79.7196 103.264 81.6024V83.9637ZM99.0897 100.605V101.835C99.0897 102.727 99.2557 103.597 99.5672 104.407C98.5652 104.643 97.5447 104.777 96.5125 104.8C95.5115 104.821 94.5194 104.737 93.5428 104.557C93.8963 103.701 94.0867 102.776 94.0867 101.835V100.606C94.8885 100.944 95.7381 101.115 96.5877 101.115C97.4383 101.115 98.2889 100.944 99.0897 100.605ZM96.45 122.156L94.5555 120.045L96.4715 113.271L98.5799 120.009L96.45 122.156ZM101.963 94.5467L97.9959 96.9656C97.1277 97.4949 96.0486 97.4949 95.1805 96.9656L91.2127 94.5467C90.41 94.0574 89.9119 93.1688 89.9119 92.2264V87.0301L93.9696 84.9119L103.264 87.9031V92.2264C103.264 93.1688 102.766 94.0574 101.963 94.5467Z" fill="white"/>
<path d="M47.1396 53.4872H111.142C112.178 53.4872 113.017 52.6474 113.017 51.6122C113.017 50.5761 112.178 49.7372 111.142 49.7372H47.1396C46.1044 49.7372 45.2646 50.5761 45.2646 51.6122C45.2646 52.6474 46.1044 53.4872 47.1396 53.4872Z" fill="white"/>
<path d="M47.1396 62.0497H81.0389C82.0741 62.0497 82.9139 61.2108 82.9139 60.1747C82.9139 59.1395 82.0741 58.2997 81.0389 58.2997H47.1396C46.1044 58.2997 45.2646 59.1395 45.2646 60.1747C45.2646 61.2108 46.1044 62.0497 47.1396 62.0497Z" fill="white"/>
</svg>
