<svg width="275" height="45" viewBox="0 0 275 45" fill="none" xmlns="http://www.w3.org/2000/svg">
<path d="M11.6875 1.34375H12.6875V0.34375H11.6875V1.34375ZM25.6875 1.34375V0.34375H24.6875V1.34375H25.6875ZM36.9062 1.34375H37.9062V0.34375H36.9062V1.34375ZM0.5 1.34375V0.34375H-0.5V1.34375H0.5ZM10.6875 1.34375V27.8125H12.6875V1.34375H10.6875ZM10.6875 27.8125C10.6875 30.6017 11.4586 32.7972 12.9258 34.297C14.3943 35.798 16.4298 36.4688 18.6875 36.4688V34.4688C16.8202 34.4688 15.3557 33.9207 14.3554 32.8983C13.3539 31.8746 12.6875 30.242 12.6875 27.8125H10.6875ZM18.6875 36.4688C20.9519 36.4688 22.986 35.7785 24.4513 34.2713C25.9149 32.7661 26.6875 30.5735 26.6875 27.8125H24.6875C24.6875 30.2078 24.0226 31.8433 23.0174 32.8771C22.014 33.909 20.5481 34.4688 18.6875 34.4688V36.4688ZM26.6875 27.8125V1.34375H24.6875V27.8125H26.6875ZM25.6875 2.34375H36.9062V0.34375H25.6875V2.34375ZM35.9062 1.34375V29.25H37.9062V1.34375H35.9062ZM35.9062 29.25C35.9062 33.686 34.2579 37.2739 31.3422 39.7674C28.4103 42.2747 24.1067 43.75 18.6875 43.75V45.75C24.4558 45.75 29.2615 44.1784 32.6421 41.2873C36.039 38.3823 37.9062 34.2202 37.9062 29.25H35.9062ZM18.6875 43.75C13.2858 43.75 8.99019 42.2679 6.06164 39.7531C3.14871 37.2516 1.5 33.6551 1.5 29.2188H-0.5C-0.5 34.1886 1.36691 38.3578 4.75867 41.2704C8.13481 44.1696 12.933 45.75 18.6875 45.75V43.75ZM1.5 29.2188V1.34375H-0.5V29.2188H1.5ZM0.5 2.34375H11.6875V0.34375H0.5V2.34375ZM44.4062 1.34375V0.34375H43.4062V1.34375H44.4062ZM55.5938 31.3125V30.3125H54.5938V31.3125H55.5938ZM55.5938 44V45H56.5938V44H55.5938ZM44.4062 44H43.4062V45H44.4062V44ZM55.5312 9.8125V8.8125H54.5312V9.8125H55.5312ZM55.5312 23.0312H54.5312V24.0312H55.5312V23.0312ZM44.4062 2.34375H62.9062V0.34375H44.4062V2.34375ZM62.9062 2.34375C67.7069 2.34375 71.2159 3.9999 73.5318 6.53058C75.861 9.0758 77.0625 12.5932 77.0625 16.4375H79.0625C79.0625 12.188 77.7327 8.15858 75.0072 5.18036C72.2685 2.1876 68.1994 0.34375 62.9062 0.34375V2.34375ZM77.0625 16.4375C77.0625 20.341 75.8399 23.7962 73.4901 26.268C71.1495 28.7301 67.5997 30.3125 62.75 30.3125V32.3125C68.0565 32.3125 72.163 30.5668 74.9396 27.646C77.7069 24.7351 79.0625 20.7527 79.0625 16.4375H77.0625ZM62.75 30.3125H55.5938V32.3125H62.75V30.3125ZM54.5938 31.3125V44H56.5938V31.3125H54.5938ZM55.5938 43H44.4062V45H55.5938V43ZM45.4062 44V1.34375H43.4062V44H45.4062ZM54.5312 9.8125V23.0312H56.5312V9.8125H54.5312ZM55.5312 24.0312H59.3125V22.0312H55.5312V24.0312ZM59.3125 24.0312C61.7154 24.0312 63.842 23.5159 65.381 22.2381C66.9539 20.9321 67.75 18.9676 67.75 16.4375H65.75C65.75 18.5324 65.1086 19.8647 64.1034 20.6994C63.0642 21.5622 61.4721 22.0312 59.3125 22.0312V24.0312ZM67.75 16.4375C67.75 14.0817 67.0455 12.1405 65.6582 10.791C64.2757 9.44608 62.342 8.8125 60.125 8.8125V10.8125C61.9705 10.8125 63.3493 11.3352 64.2636 12.2246C65.1733 13.1095 65.75 14.4808 65.75 16.4375H67.75ZM60.125 8.8125H55.5312V10.8125H60.125V8.8125ZM111.094 34.7188H112.094V33.7188H111.094V34.7188ZM111.094 44V45H112.094V44H111.094ZM83.2188 44H82.2188V45H83.2188V44ZM83.2188 1.34375V0.34375H82.2188V1.34375H83.2188ZM94.4375 1.34375H95.4375V0.34375H94.4375V1.34375ZM94.4375 34.7188H93.4375V35.7188H94.4375V34.7188ZM110.094 34.7188V44H112.094V34.7188H110.094ZM111.094 43H83.2188V45H111.094V43ZM84.2188 44V1.34375H82.2188V44H84.2188ZM83.2188 2.34375H94.4375V0.34375H83.2188V2.34375ZM93.4375 1.34375V34.7188H95.4375V1.34375H93.4375ZM94.4375 35.7188H111.094V33.7188H94.4375V35.7188ZM127.125 44V45H128.125V44H127.125ZM115.906 44H114.906V45H115.906V44ZM115.906 1.34375V0.34375H114.906V1.34375H115.906ZM127.125 1.34375H128.125V0.34375H127.125V1.34375ZM127.125 43H115.906V45H127.125V43ZM116.906 44V1.34375H114.906V44H116.906ZM115.906 2.34375H127.125V0.34375H115.906V2.34375ZM126.125 1.34375V44H128.125V1.34375H126.125ZM158.688 44V45H159.428L159.644 44.2922L158.688 44ZM144.375 44L143.42 44.2966L143.638 45H144.375V44ZM131.125 1.34375V0.34375H129.767L130.17 1.64039L131.125 1.34375ZM144.188 1.34375L145.16 1.10911L144.975 0.34375H144.188V1.34375ZM151.625 32.1562L150.653 32.3909L150.838 33.1562H151.625V32.1562ZM152.125 32.1562V33.1562H152.916L153.098 32.3862L152.125 32.1562ZM159.406 1.34375V0.34375H158.615L158.433 1.11378L159.406 1.34375ZM171.719 1.34375L172.675 1.63592L173.07 0.34375H171.719V1.34375ZM158.688 43H144.375V45H158.688V43ZM145.33 43.7034L132.08 1.04711L130.17 1.64039L143.42 44.2966L145.33 43.7034ZM131.125 2.34375H144.188V0.34375H131.125V2.34375ZM143.215 1.57839L150.653 32.3909L152.597 31.9216L145.16 1.10911L143.215 1.57839ZM151.625 33.1562H152.125V31.1562H151.625V33.1562ZM153.098 32.3862L160.379 1.57372L158.433 1.11378L151.152 31.9263L153.098 32.3862ZM159.406 2.34375H171.719V0.34375H159.406V2.34375ZM170.762 1.05158L157.731 43.7078L159.644 44.2922L172.675 1.63592L170.762 1.05158ZM186.938 44V45H187.938V44H186.938ZM175.719 44H174.719V45H175.719V44ZM175.719 1.34375V0.34375H174.719V1.34375H175.719ZM186.938 1.34375H187.938V0.34375H186.938V1.34375ZM186.938 43H175.719V45H186.938V43ZM176.719 44V1.34375H174.719V44H176.719ZM175.719 2.34375H186.938V0.34375H175.719V2.34375ZM185.938 1.34375V44H187.938V1.34375H185.938ZM205.281 44V45H206.281V44H205.281ZM194.906 44H193.906V45H194.906V44ZM194.906 1.34375V0.34375H193.906V1.34375H194.906ZM203.594 1.34375L204.419 0.779338L204.121 0.34375H203.594V1.34375ZM219.875 25.1562L219.049 25.7207L219.347 26.1562H219.875V25.1562ZM220.312 25.1562V26.1562H221.312V25.1562H220.312ZM220.312 1.34375V0.34375H219.312V1.34375H220.312ZM230.656 1.34375H231.656V0.34375H230.656V1.34375ZM230.656 44V45H231.656V44H230.656ZM222.031 44L221.204 44.5614L221.501 45H222.031V44ZM205.688 19.9062L206.515 19.3449L206.218 18.9062H205.688V19.9062ZM205.281 19.9062V18.9062H204.281V19.9062H205.281ZM205.281 43H194.906V45H205.281V43ZM195.906 44V1.34375H193.906V44H195.906ZM194.906 2.34375H203.594V0.34375H194.906V2.34375ZM202.768 1.90816L219.049 25.7207L220.701 24.5918L204.419 0.779338L202.768 1.90816ZM219.875 26.1562H220.312V24.1562H219.875V26.1562ZM221.312 25.1562V1.34375H219.312V25.1562H221.312ZM220.312 2.34375H230.656V0.34375H220.312V2.34375ZM229.656 1.34375V44H231.656V1.34375H229.656ZM230.656 43H222.031V45H230.656V43ZM222.859 43.4386L206.515 19.3449L204.86 20.4676L221.204 44.5614L222.859 43.4386ZM205.688 18.9062H205.281V20.9062H205.688V18.9062ZM204.281 19.9062V44H206.281V19.9062H204.281ZM274 15.625V16.625H275.017L275 15.6082L274 15.625ZM263.188 15.625L262.194 15.7424L262.299 16.625H263.188V15.625ZM263.5 28.0625H264.5V27.0625H263.5V28.0625ZM256.75 28.0625H255.75V29.0625H256.75V28.0625ZM256.75 20.3438V19.3438H255.75V20.3438H256.75ZM274.031 20.3438H275.031V19.3438H274.031V20.3438ZM274 14.625H263.188V16.625H274V14.625ZM264.181 15.5076C263.951 13.5622 263.085 11.8416 261.657 10.61C260.229 9.37818 258.3 8.6875 256.031 8.6875V10.6875C257.887 10.6875 259.333 11.2468 260.351 12.1244C261.368 13.0021 262.018 14.2503 262.194 15.7424L264.181 15.5076ZM256.031 8.6875C253.345 8.6875 251.074 9.67217 249.503 11.6954C247.962 13.6811 247.188 16.5478 247.188 20.1562H249.188C249.188 16.7959 249.913 14.4282 251.083 12.9218C252.223 11.4528 253.874 10.6875 256.031 10.6875V8.6875ZM247.188 20.1562V24.9688H249.188V20.1562H247.188ZM247.188 24.9688C247.188 27.9656 247.662 30.8648 249.056 33.0429C250.498 35.2968 252.846 36.6562 256.25 36.6562V34.6562C253.466 34.6562 251.783 33.5938 250.741 31.9649C249.65 30.2602 249.188 27.8157 249.188 24.9688H247.188ZM256.25 36.6562C261.423 36.6562 264.5 33.3039 264.5 29.4688H262.5C262.5 32.0711 260.452 34.6562 256.25 34.6562V36.6562ZM264.5 29.4688V28.0625H262.5V29.4688H264.5ZM263.5 27.0625H256.75V29.0625H263.5V27.0625ZM257.75 28.0625V20.3438H255.75V28.0625H257.75ZM256.75 21.3438H274.031V19.3438H256.75V21.3438ZM273.031 20.3438V28.5625H275.031V20.3438H273.031ZM273.031 28.5625C273.031 32.1927 271.89 35.9795 269.238 38.8486C266.604 41.6991 262.381 43.75 256 43.75V45.75C262.837 45.75 267.63 43.5353 270.707 40.206C273.767 36.8955 275.031 32.5885 275.031 28.5625H273.031ZM256 43.75C249.436 43.75 244.955 41.6097 242.098 38.2927C239.219 34.9506 237.875 30.2813 237.875 25.0312H235.875C235.875 30.5937 237.297 35.7838 240.582 39.5979C243.889 43.4372 248.97 45.75 256 45.75V43.75ZM237.875 25.0312V20.0312H235.875V25.0312H237.875ZM237.875 20.0312C237.875 14.5092 239.525 9.91713 242.572 6.71258C245.613 3.51579 250.144 1.59375 256.125 1.59375V-0.40625C249.699 -0.40625 244.606 1.67171 241.123 5.3343C237.647 8.98912 235.875 14.1158 235.875 20.0312H237.875ZM256.125 1.59375C261.938 1.59375 266.115 3.41847 268.846 6.04162C271.586 8.67227 272.942 12.1702 273 15.6418L275 15.6082C274.933 11.6423 273.383 7.6246 270.232 4.599C267.073 1.5659 262.374 -0.40625 256.125 -0.40625V1.59375Z" fill="#26FDE6"/>
</svg>
