<svg width="158" height="1001" viewBox="0 0 158 1001" fill="none" xmlns="http://www.w3.org/2000/svg">
<path d="M3.03711 954.109L3.03711 953.109L2.03711 953.109L2.03711 954.109L3.03711 954.109ZM3.03711 913.141L2.03711 913.141L2.03711 914.141L3.03711 914.141L3.03711 913.141ZM3.0371 866.383L3.0371 865.383L2.0371 865.383L2.0371 866.383L3.0371 866.383ZM3.03711 1000.87L2.03711 1000.87L2.03711 1001.87L3.03711 1001.87L3.03711 1000.87ZM3.03711 955.109L95.8848 955.109L95.8848 953.109L3.03711 953.109L3.03711 955.109ZM95.8848 955.109C104.453 955.109 110.586 952.895 114.576 949.009C118.569 945.12 120.264 939.705 120.264 933.625L118.264 933.625C118.264 939.345 116.675 944.173 113.18 947.576C109.683 950.982 104.127 953.109 95.8848 953.109L95.8848 955.109ZM120.264 933.625C120.264 927.586 118.477 922.176 114.448 918.28C110.422 914.387 104.295 912.141 95.8848 912.141L95.8848 914.141C103.951 914.141 109.514 916.291 113.058 919.718C116.599 923.142 118.264 927.975 118.264 933.625L120.264 933.625ZM95.8848 912.141L3.03711 912.141L3.03711 914.141L95.8848 914.141L95.8848 912.141ZM4.03711 913.141L4.0371 866.383L2.0371 866.383L2.03711 913.141L4.03711 913.141ZM3.0371 867.383L102.453 867.383L102.453 865.383L3.0371 865.383L3.0371 867.383ZM102.453 867.383C118.932 867.383 132.418 873.668 141.802 885.027C151.203 896.407 156.561 912.97 156.561 933.625L158.561 933.625C158.561 912.643 153.119 895.585 143.344 883.753C133.552 871.901 119.484 865.383 102.453 865.383L102.453 867.383ZM156.561 933.625C156.561 954.28 151.203 970.843 141.802 982.223C132.418 993.582 118.932 999.867 102.453 999.867L102.453 1001.87C119.484 1001.87 133.552 995.349 143.344 983.497C153.119 971.665 158.561 954.607 158.561 933.625L156.561 933.625ZM102.453 999.867L3.03711 999.867L3.03711 1001.87L102.453 1001.87L102.453 999.867ZM4.03711 1000.87L4.03711 954.109L2.03711 954.109L2.03711 1000.87L4.03711 1000.87ZM3.0371 842.447L2.0371 842.447L2.0371 843.447L3.0371 843.447L3.0371 842.447ZM113.92 795.801L112.92 795.801L112.92 796.801L113.92 796.801L113.92 795.801ZM155 795.801L156 795.801L156 794.801L155 794.801L155 795.801ZM155 842.447L155 843.447L156 843.447L156 842.447L155 842.447ZM37.5488 796.023L36.5488 796.023L36.5488 797.023L37.5488 797.023L37.5488 796.023ZM80.2988 796.023L80.2988 797.023L81.2988 797.023L81.2988 796.023L80.2988 796.023ZM4.0371 842.447L4.0371 773.09L2.0371 773.09L2.0371 842.447L4.0371 842.447ZM4.0371 773.09C4.0371 754.136 10.6473 740.422 20.7489 731.435C30.8697 722.431 44.5881 718.092 58.9238 718.092L58.9238 716.092C44.2029 716.092 29.978 720.547 19.4195 729.941C8.84192 739.351 2.0371 753.635 2.0371 773.09L4.0371 773.09ZM58.9238 718.092C73.5322 718.092 87.0196 722.567 96.8455 731.712C106.658 740.845 112.92 754.729 112.92 773.758L114.92 773.758C114.92 754.267 108.49 739.818 98.2081 730.248C87.9393 720.69 73.9288 716.092 58.9238 716.092L58.9238 718.092ZM112.92 773.758L112.92 795.801L114.92 795.801L114.92 773.758L112.92 773.758ZM113.92 796.801L155 796.801L155 794.801L113.92 794.801L113.92 796.801ZM154 795.801L154 842.447L156 842.447L156 795.801L154 795.801ZM155 841.447L3.0371 841.447L3.0371 843.447L155 843.447L155 841.447ZM37.5488 797.023L80.2988 797.023L80.2988 795.023L37.5488 795.023L37.5488 797.023ZM81.2988 796.023L81.2988 785.781L79.2988 785.781L79.2988 796.023L81.2988 796.023ZM81.2988 785.781C81.2988 779.128 79.3172 773.485 75.4653 769.5C71.6083 765.51 65.9841 763.295 58.9238 763.295L58.9238 765.295C65.5569 765.295 70.6202 767.366 74.0273 770.89C77.4396 774.42 79.2988 779.521 79.2988 785.781L81.2988 785.781ZM58.9238 763.295C51.7023 763.295 46.0728 765.507 42.2531 769.504C38.4405 773.494 36.5488 779.139 36.5488 785.781L38.5488 785.781C38.5488 779.509 40.331 774.411 43.6991 770.886C47.0599 767.369 52.118 765.295 58.9238 765.295L58.9238 763.295ZM36.5488 785.781L36.5488 796.023L38.5488 796.023L38.5488 785.781L36.5488 785.781ZM116.703 598.082L116.703 597.082L115.703 597.082L115.703 598.082L116.703 598.082ZM155 598.082L156 598.082L156 597.082L155 597.082L155 598.082ZM155 700.615L155 701.615L156 701.615L156 700.615L155 700.615ZM3.0371 700.615L2.0371 700.615L2.0371 701.615L3.0371 701.615L3.0371 700.615ZM3.03709 653.857L3.03709 652.857L2.03709 652.857L2.03709 653.857L3.03709 653.857ZM116.703 653.857L116.703 654.857L117.703 654.857L117.703 653.857L116.703 653.857ZM116.703 599.082L155 599.082L155 597.082L116.703 597.082L116.703 599.082ZM154 598.082L154 700.615L156 700.615L156 598.082L154 598.082ZM155 699.615L3.0371 699.615L3.0371 701.615L155 701.615L155 699.615ZM4.0371 700.615L4.03709 653.857L2.03709 653.857L2.0371 700.615L4.0371 700.615ZM3.03709 654.857L116.703 654.857L116.703 652.857L3.03709 652.857L3.03709 654.857ZM117.703 653.857L117.703 598.082L115.703 598.082L115.703 653.857L117.703 653.857ZM155 535.182L156 535.182L156 534.182L155 534.182L155 535.182ZM155 581.939L155 582.939L156 582.939L156 581.939L155 581.939ZM3.03709 581.939L2.03709 581.939L2.03709 582.939L3.03709 582.939L3.03709 581.939ZM3.03709 535.182L3.03709 534.182L2.03709 534.182L2.03709 535.182L3.03709 535.182ZM154 535.182L154 581.939L156 581.939L156 535.182L154 535.182ZM155 580.939L3.03709 580.939L3.03709 582.939L155 582.939L155 580.939ZM4.03709 581.939L4.03709 535.182L2.03709 535.182L2.03709 581.939L4.03709 581.939ZM3.03709 536.182L155 536.182L155 534.182L3.03709 534.182L3.03709 536.182ZM155 416.951L156 416.951L156 416.198L155.276 415.99L155 416.951ZM155 478.293L155.282 479.252L156 479.041L156 478.293L155 478.293ZM3.03709 522.936L2.03709 522.936L2.03709 524.272L3.31895 523.895L3.03709 522.936ZM3.03709 468.385L2.83694 467.405L2.03709 467.568L2.03709 468.385L3.03709 468.385ZM107.129 447.121L107.329 448.101L108.129 447.937L108.129 447.121L107.129 447.121ZM107.129 445.006L108.129 445.006L108.129 444.184L107.323 444.025L107.129 445.006ZM3.03708 424.41L2.03708 424.41L2.03708 425.232L2.84299 425.391L3.03708 424.41ZM3.03708 373.311L3.3131 372.349L2.03708 371.983L2.03708 373.311L3.03708 373.311ZM154 416.951L154 478.293L156 478.293L156 416.951L154 416.951ZM154.718 477.333L2.75523 521.976L3.31895 523.895L155.282 479.252L154.718 477.333ZM4.03709 522.936L4.03709 468.385L2.03709 468.385L2.03709 522.936L4.03709 522.936ZM3.23723 469.365L107.329 448.101L106.929 446.141L2.83694 467.405L3.23723 469.365ZM108.129 447.121L108.129 445.006L106.129 445.006L106.129 447.121L108.129 447.121ZM107.323 444.025L3.23118 423.429L2.84299 425.391L106.935 445.987L107.323 444.025ZM4.03708 424.41L4.03708 373.311L2.03708 373.311L2.03708 424.41L4.03708 424.41ZM2.76106 374.272L154.724 417.912L155.276 415.99L3.3131 372.349L2.76106 374.272ZM155 314.307L156 314.307L156 313.307L155 313.307L155 314.307ZM155 361.064L155 362.064L156 362.064L156 361.064L155 361.064ZM3.03708 361.064L2.03708 361.064L2.03708 362.064L3.03708 362.064L3.03708 361.064ZM3.03708 314.307L3.03708 313.307L2.03708 313.307L2.03708 314.307L3.03708 314.307ZM154 314.307L154 361.064L156 361.064L156 314.307L154 314.307ZM155 360.064L3.03708 360.064L3.03708 362.064L155 362.064L155 360.064ZM4.03708 361.064L4.03708 314.307L2.03708 314.307L2.03708 361.064L4.03708 361.064ZM3.03708 315.307L155 315.307L155 313.307L3.03708 313.307L3.03708 315.307ZM155 245.84L156 245.84L156 244.84L155 244.84L155 245.84ZM155 288.701L155 289.701L156 289.701L156 288.701L155 288.701ZM3.03708 288.701L2.03708 288.701L2.03708 289.701L3.03708 289.701L3.03708 288.701ZM3.03708 253.633L2.46112 252.815L2.03708 253.114L2.03708 253.633L3.03708 253.633ZM76.5136 201.865L77.0896 202.683L77.5136 202.384L77.5136 201.865L76.5136 201.865ZM76.5136 200.084L77.5136 200.084L77.5136 199.084L76.5136 199.084L76.5136 200.084ZM3.03707 200.084L2.03707 200.084L2.03707 201.084L3.03707 201.084L3.03707 200.084ZM3.03707 157.223L3.03707 156.223L2.03707 156.223L2.03707 157.223L3.03707 157.223ZM155 157.223L156 157.223L156 156.223L155 156.223L155 157.223ZM155 191.957L155.571 192.778L156 192.479L156 191.957L155 191.957ZM80.1875 244.059L79.616 243.238L79.1875 243.536L79.1875 244.059L80.1875 244.059ZM80.1875 245.84L79.1875 245.84L79.1875 246.84L80.1875 246.84L80.1875 245.84ZM154 245.84L154 288.701L156 288.701L156 245.84L154 245.84ZM155 287.701L3.03708 287.701L3.03708 289.701L155 289.701L155 287.701ZM4.03708 288.701L4.03708 253.633L2.03708 253.633L2.03708 288.701L4.03708 288.701ZM3.61303 254.45L77.0896 202.683L75.9377 201.048L2.46112 252.815L3.61303 254.45ZM77.5136 201.865L77.5136 200.084L75.5136 200.084L75.5136 201.865L77.5136 201.865ZM76.5136 199.084L3.03707 199.084L3.03707 201.084L76.5136 201.084L76.5136 199.084ZM4.03707 200.084L4.03707 157.223L2.03707 157.223L2.03707 200.084L4.03707 200.084ZM3.03707 158.223L155 158.223L155 156.223L3.03707 156.223L3.03707 158.223ZM154 157.223L154 191.957L156 191.957L156 157.223L154 157.223ZM154.428 191.136L79.616 243.238L80.759 244.879L155.571 192.778L154.428 191.136ZM79.1875 244.059L79.1875 245.84L81.1875 245.84L81.1875 244.059L79.1875 244.059ZM80.1875 246.84L155 246.84L155 244.84L80.1875 244.84L80.1875 246.84ZM55.4726 0.249998L56.4726 0.249998L56.4726 -0.750002L55.4726 -0.750002L55.4726 0.249998ZM55.4726 45.3379L55.5721 46.3329L56.4726 46.2429L56.4726 45.3379L55.4726 45.3379ZM100.004 44.0019L100.004 43.0019L99.0039 43.0019L99.0039 44.0019L100.004 44.0019ZM100.004 62.9277L100.004 63.9277L101.004 63.9277L101.004 62.9277L100.004 62.9277ZM69.0546 62.9277L68.0546 62.9277L68.0546 63.9277L69.0546 63.9277L69.0546 62.9277ZM69.0546 0.249997L69.0546 -0.750003L68.0546 -0.750003L68.0546 0.249997L69.0546 0.249997ZM54.4726 0.249998L54.4726 45.3379L56.4726 45.3379L56.4726 0.249998L54.4726 0.249998ZM55.3731 44.3428C45.9611 45.2841 36.9941 52.8343 36.9941 66.8242L38.9941 66.8242C38.9941 53.8727 47.1716 47.173 55.5721 46.3329L55.3731 44.3428ZM36.9941 66.8242C36.9941 74.8984 40.0123 81.1202 45.8315 85.283C51.5961 89.4069 59.9914 91.4258 70.6132 91.4258L70.6132 89.4258C60.194 89.4258 52.2798 87.4369 46.9951 83.6564C41.765 79.9149 38.9941 74.336 38.9941 66.8242L36.9941 66.8242ZM70.6132 91.4258L86.6445 91.4258L86.6445 89.4258L70.6132 89.4258L70.6132 91.4258ZM86.6445 91.4258C95.2086 91.4258 103.807 90.3415 110.291 86.558C116.87 82.7192 121.154 76.1696 121.154 65.5996L119.154 65.5996C119.154 75.514 115.201 81.3774 109.283 84.8306C103.27 88.3392 95.1136 89.4258 86.6445 89.4258L86.6445 91.4258ZM121.154 65.5996C121.154 58.0248 118.681 52.3627 114.982 48.59C111.293 44.8276 106.44 43.0019 101.785 43.0019L101.785 45.0019C105.925 45.0019 110.257 46.6275 113.554 49.9901C116.84 53.3423 119.154 58.4791 119.154 65.5996L121.154 65.5996ZM101.785 43.0019L100.004 43.0019L100.004 45.0019L101.785 45.0019L101.785 43.0019ZM99.0039 44.0019L99.0039 62.9277L101.004 62.9277L101.004 44.0019L99.0039 44.0019ZM100.004 61.9277L69.0546 61.9277L69.0546 63.9277L100.004 63.9277L100.004 61.9277ZM70.0546 62.9277L70.0546 0.249997L68.0546 0.249997L68.0546 62.9277L70.0546 62.9277ZM69.0546 1.25L97.5546 1.25L97.5546 -0.750004L69.0546 -0.750003L69.0546 1.25ZM97.5546 1.25C112.278 1.25 127.013 5.75433 138.06 16.1603C149.093 26.5524 156.561 42.9385 156.561 66.9355L158.561 66.9355C158.561 42.5048 150.943 25.5482 139.432 14.7045C127.935 3.87457 112.668 -0.750005 97.5546 -0.750004L97.5546 1.25ZM156.561 66.9355C156.561 92.3082 148.269 109.711 135.502 120.787C122.711 131.883 105.297 136.74 86.8671 136.74L86.8671 138.74C105.62 138.74 123.554 133.8 136.813 122.297C150.097 110.773 158.561 92.7738 158.561 66.9355L156.561 66.9355ZM86.8671 136.74L70.0566 136.74L70.0566 138.74L86.8671 138.74L86.8671 136.74ZM70.0566 136.74C50.3316 136.74 33.2331 130.682 21.0713 118.93C8.91636 107.185 1.58785 89.6514 1.58785 66.4902L-0.412151 66.4902C-0.41215 90.0869 7.06598 108.178 19.6815 120.369C32.2903 132.552 49.9261 138.74 70.0566 138.74L70.0566 136.74ZM1.58785 66.4902C1.58785 43.9374 8.58594 27.6393 18.7751 16.9864C28.9713 6.32605 42.4265 1.25 55.4726 1.25L55.4726 -0.750002C41.9114 -0.750002 27.9241 4.52746 17.3298 15.6039C6.72843 26.6879 -0.412152 43.5099 -0.412151 66.4902L1.58785 66.4902Z" fill="white" fill-opacity="0.13"/>
</svg>
