<svg width="128" height="128" viewBox="0 0 128 128" fill="none" xmlns="http://www.w3.org/2000/svg">
<path d="M8.75665 58.1173C8.11766 58.7537 7.76541 59.601 7.76441 60.5027C7.76341 61.4055 8.11491 62.255 8.75415 62.8942L11.9344 66.0744C12.5729 66.7127 13.4206 67.0639 14.3221 67.0639H14.3258C15.2273 67.0629 16.0746 66.7104 16.7081 66.0742L39.1735 43.6087H80.6991C83.205 43.6087 85.5595 42.6329 87.3272 40.8622L106.731 21.4604L109.518 24.2474C110.164 24.8934 111.01 25.2389 111.889 25.2389C112.184 25.2389 112.482 25.2001 112.778 25.1206C113.957 24.8049 114.849 23.9127 115.165 22.7342L120.117 4.25164C120.433 3.07315 120.107 1.85442 119.244 0.991678C118.381 0.128688 117.162 -0.197558 115.984 0.117938L97.5008 5.07038C96.3224 5.38613 95.4304 6.27837 95.1146 7.4566C94.7986 8.63509 95.1251 9.85382 95.9879 10.7168L98.7771 13.506L79.9223 32.3586H70.4814C69.4457 32.3586 68.6064 33.1981 68.6064 34.2335C68.6064 35.269 69.4457 36.1085 70.4814 36.1085H80.0791C80.974 36.1085 81.8193 35.7593 82.4645 35.1193L101.429 16.1575L104.08 18.8085L84.6745 38.2112C83.614 39.2735 82.2023 39.8585 80.6991 39.8585H39.0195C38.1303 39.8585 37.2608 40.218 36.6338 40.8452L14.3211 63.1577L11.6701 60.507L34.4193 37.7555C35.4831 36.6933 36.8968 36.1085 38.3996 36.1085H61.7318C62.7673 36.1085 63.6068 35.269 63.6068 34.2335C63.6068 33.1981 62.7673 32.3586 61.7318 32.3586H38.3996C35.8961 32.3586 33.5419 33.3326 31.7686 35.1028L8.75665 58.1173ZM116.327 3.90839L111.71 21.1364L99.0988 8.52459L116.327 3.90839Z" fill="white"/>
<path d="M93.5237 66.1989C90.0775 66.1989 87.2737 69.0027 87.2737 72.4489C87.2737 75.8952 90.0775 78.6989 93.5237 78.6989C96.97 78.6989 99.7737 75.8952 99.7737 72.4489C99.7737 69.0027 96.9702 66.1989 93.5237 66.1989ZM93.5237 74.9489C92.1452 74.9489 91.0237 73.8274 91.0237 72.4489C91.0237 71.0704 92.1452 69.9489 93.5237 69.9489C94.9022 69.9489 96.0237 71.0704 96.0237 72.4489C96.0237 73.8274 94.9022 74.9489 93.5237 74.9489Z" fill="white"/>
<path d="M93.5237 49.0261C90.0775 49.0261 87.2737 51.8299 87.2737 55.2761C87.2737 58.7224 90.0775 61.5261 93.5237 61.5261C96.97 61.5261 99.7737 58.7224 99.7737 55.2761C99.7737 51.8299 96.9702 49.0261 93.5237 49.0261ZM93.5237 57.7761C92.1452 57.7761 91.0237 56.6546 91.0237 55.2761C91.0237 53.8976 92.1452 52.7761 93.5237 52.7761C94.9022 52.7761 96.0237 53.8976 96.0237 55.2761C96.0237 56.6546 94.9022 57.7761 93.5237 57.7761Z" fill="white"/>
<path d="M103.373 59.3242C103.373 60.3597 104.212 61.1992 105.248 61.1992H126.124C127.159 61.1992 127.998 60.3597 127.998 59.3242C127.998 58.2888 127.159 57.4493 126.124 57.4493H105.248C104.212 57.4493 103.373 58.2885 103.373 59.3242Z" fill="white"/>
<path d="M105.248 52.4494H117.748C118.784 52.4494 119.623 51.6099 119.623 50.5744C119.623 49.5389 118.784 48.6994 117.748 48.6994H105.248C104.212 48.6994 103.373 49.5389 103.373 50.5744C103.373 51.6099 104.212 52.4494 105.248 52.4494Z" fill="white"/>
<path d="M126.124 74.9488H105.248C104.212 74.9488 103.373 75.7883 103.373 76.8238C103.373 77.8593 104.212 78.6988 105.248 78.6988H126.124C127.159 78.6988 127.998 77.8593 127.998 76.8238C127.998 75.7883 127.159 74.9488 126.124 74.9488Z" fill="white"/>
<path d="M105.248 66.1989C104.212 66.1989 103.373 67.0384 103.373 68.0739C103.373 69.1094 104.212 69.9489 105.248 69.9489H117.748C118.784 69.9489 119.623 69.1094 119.623 68.0739C119.623 67.0384 118.784 66.1989 117.748 66.1989H105.248Z" fill="white"/>
<path d="M18.0888 36.1793C28.0629 36.1793 36.1776 28.0646 36.1776 18.0905C36.1776 8.11634 28.0632 0.00168771 18.0888 0.00168771C8.11441 0.00168771 0 8.11634 0 18.0905C0 28.0646 8.11466 36.1793 18.0888 36.1793ZM18.0888 3.75164C25.9952 3.75164 32.4276 10.1841 32.4276 18.0905C32.4276 25.9969 25.9952 32.4293 18.0888 32.4293C10.1824 32.4293 3.74996 25.9969 3.74996 18.0905C3.74996 10.1841 10.1824 3.75164 18.0888 3.75164Z" fill="white"/>
<path d="M12.9978 26.0511C14.1848 26.8276 15.0836 27.1791 16.1198 27.3276V27.7439C16.1198 28.7794 16.9593 29.6188 17.9948 29.6188C19.0303 29.6188 19.8698 28.7794 19.8698 27.7439V27.1286C22.1517 26.3871 23.6112 24.3659 23.9467 22.3702C24.4055 19.6412 22.927 17.1762 20.2678 16.236C18.8928 15.75 17.375 15.1653 16.5436 14.513C16.3698 14.3768 16.2966 13.9975 16.3693 13.6115C16.4093 13.4003 16.5936 12.6945 17.2963 12.4828C18.8718 12.0088 20.3395 13.1285 20.3953 13.1718C21.1933 13.8198 22.3662 13.7045 23.0225 12.9105C23.6822 12.1123 23.5697 10.9306 22.7717 10.2708C22.1772 9.77932 21.14 9.17358 19.8703 8.84909V8.43609C19.8703 7.4006 19.0308 6.56111 17.9953 6.56111C16.9598 6.56111 16.1203 7.4006 16.1203 8.43609V8.92408C14.3558 9.49483 13.0431 11.0143 12.6844 12.9165C12.3466 14.7085 12.9386 16.4507 14.2293 17.4632C15.4843 18.4475 17.2725 19.1542 19.0183 19.771C20.302 20.2247 20.3405 21.2042 20.249 21.7477C20.094 22.6697 19.3183 23.6657 17.9818 23.6747C16.5218 23.6869 16.1401 23.6242 15.0513 22.9122C14.1846 22.3449 13.0223 22.5882 12.4559 23.4547C11.8884 24.3222 12.1314 25.4841 12.9978 26.0511Z" fill="white"/>
<path d="M126.124 124.25H115.566V87.1657C115.566 85.3047 114.052 83.7907 112.191 83.7907H102.761C100.9 83.7907 99.3863 85.3047 99.3863 87.1657V99.003H90.3392C88.4782 99.003 86.9642 100.517 86.9642 102.378V124.25H78.2968V92.5281C78.2968 90.6671 76.7829 89.1531 74.9219 89.1531H65.4917C63.6308 89.1531 62.1168 90.6671 62.1168 92.5281V109.833H53.0669C51.2059 109.833 49.6919 111.347 49.6919 113.208V124.25H40.8973L40.9495 111.616C40.9538 110.58 40.1178 109.737 39.0823 109.733C39.0798 109.733 39.077 109.733 39.0745 109.733C38.0426 109.733 37.2041 110.567 37.1996 111.6L37.1473 124.25H28.4674L28.6382 82.7422L37.3206 82.779L37.2373 102.85C37.2331 103.885 38.0691 104.728 39.1045 104.733H39.1125C40.1443 104.733 40.983 103.898 40.9875 102.865L41.0725 82.4182C41.078 80.5615 39.5713 79.0415 37.7106 79.0303L28.2782 78.9903C28.2747 78.9903 28.2714 78.9903 28.2679 78.9903C26.4099 78.9903 24.8957 80.4975 24.8902 82.3525L24.8465 92.9998L15.8543 92.9626C14.9438 92.9661 14.1028 93.3041 13.4616 93.9393C12.8204 94.5748 12.4656 95.4221 12.4629 96.3221L12.3456 124.249H1.87498C0.839492 124.249 1.49535e-06 125.089 1.49535e-06 126.124C1.49535e-06 127.16 0.839492 127.999 1.87498 127.999H126.123C127.159 127.999 127.998 127.16 127.998 126.124C127.998 125.089 127.159 124.25 126.124 124.25ZM103.136 87.5407H111.816V124.25H103.136V87.5407ZM90.7139 102.753H99.3861V124.25H90.7139V102.753ZM65.8667 92.9029H74.5466V124.25H65.8667V92.9029ZM53.4419 113.583H62.1168V124.25H53.4419V113.583ZM16.2108 96.7146L24.8305 96.7501L24.7172 124.25H16.0951L16.2108 96.7146Z" fill="white"/>
</svg>
