<svg width="157" height="119" viewBox="0 0 157 119" fill="none" xmlns="http://www.w3.org/2000/svg">
<path d="M97.1614 83.1775L96.2531 84.0895L97.162 85.0009L98.0703 84.0889L97.1614 83.1775Z" fill="white"/>
<path d="M98.3834 84.4039L97.4751 85.3159L98.384 86.2273L99.2923 85.3153L98.3834 84.4039Z" fill="white"/>
<path d="M95.9148 84.403L95.0065 85.3151L95.9154 86.2265L96.8237 85.3144L95.9148 84.403Z" fill="white"/>
<path d="M97.1652 85.6737L96.2563 86.5851L97.1646 87.4972L98.0735 86.5858L97.1652 85.6737Z" fill="white"/>
<path d="M17.2595 97.104C17.242 99.1993 17.2157 100.574 17.1748 101.183C17.1339 101.875 16.9791 102.182 16.8594 102.32C16.69 102.514 16.3366 102.657 15.8402 102.736C14.7655 102.909 12.7563 102.997 9.86507 102.997C7.75071 102.997 6.11821 102.93 5.00846 102.795C4.33385 102.71 4.03013 102.537 3.8958 102.408C3.70889 102.229 3.58332 101.875 3.53367 101.382C3.48694 100.916 3.46358 99.4777 3.46358 97.107V88.4125H0V97.1128C0.0233631 99.4894 0.0671689 100.984 0.128497 101.681C0.192746 102.417 0.365048 103.067 0.639565 103.607C1.22364 104.761 2.17277 105.491 3.46066 105.769C4.13819 105.91 4.77483 105.998 5.35307 106.027C5.9167 106.056 7.60761 106.092 10.3966 106.13C13.5623 106.056 15.5919 105.974 16.4301 105.878C17.315 105.778 18.0918 105.532 18.7489 105.142C19.8207 104.477 20.4427 103.325 20.6033 101.705C20.6676 100.861 20.7085 99.3136 20.726 97.107V88.4125H17.2624V97.104H17.2595Z" fill="white"/>
<path d="M41.4432 89.2828C40.9263 88.9253 40.3481 88.6996 39.7173 88.6088C39.1186 88.5326 37.4715 88.4681 34.6767 88.4125H26.6281C24.9635 88.4125 23.6143 89.7663 23.6143 91.4366V106.083H27.0778V99.8615H34.6796C36.3588 99.8527 37.4014 99.844 37.781 99.8381C38.8499 99.8059 39.6326 99.715 40.1758 99.5626C40.7394 99.4044 41.2855 99.1026 41.8024 98.6659C42.3193 98.2234 42.6902 97.6256 42.9063 96.8901C43.1137 96.1897 43.2159 95.2755 43.2159 94.0974C43.2159 92.5854 43.0231 91.4542 42.6289 90.6454C42.369 90.1092 41.9718 89.652 41.4461 89.2887L41.4432 89.2828ZM39.7027 94.1648C39.7027 94.8828 39.6618 95.4103 39.5771 95.7355C39.507 96.0051 39.396 96.2073 39.2558 96.3275C39.0076 96.5267 38.701 96.644 38.3213 96.685C37.8774 96.7348 36.6479 96.7641 34.6738 96.7729H27.0749V91.4923H34.665C36.6888 91.5333 37.9417 91.5802 38.3914 91.633C38.774 91.6799 39.0806 91.7883 39.2967 91.9524C39.4398 92.0667 39.5362 92.2396 39.5946 92.4857C39.6443 92.6996 39.7027 93.1656 39.7027 94.1619V94.1648Z" fill="white"/>
<path d="M48.7237 88.4095H45.2602V103.015C45.2602 104.705 46.6269 106.077 48.312 106.077H61.7341V102.991H48.7208V88.4066L48.7237 88.4095Z" fill="white"/>
<path d="M67.9311 88.4095H64.4675V106.08H67.9311V88.4095Z" fill="white"/>
<path d="M81.7738 102.915L74.0931 88.4095H70.4719L78.9585 104.448C79.49 105.456 80.4946 106.08 81.581 106.08H81.9753C83.0704 106.08 84.0809 105.444 84.6095 104.424L92.9092 88.4125H89.2675L81.7708 102.918L81.7738 102.915Z" fill="white"/>
<path d="M98.9252 88.4095H95.4616V106.08H98.9252V88.4095Z" fill="white"/>
<path d="M120.481 102.487L106.454 88.4095H101.881V106.08H105.344V92.0637L119.31 106.08H123.944V88.4095H120.481V102.487Z" fill="white"/>
<path d="M137.474 96.556V99.6418H146.057C146.008 101.315 145.841 101.907 145.739 102.112C145.584 102.432 145.178 102.645 144.536 102.748C143.616 102.903 142.156 102.982 140.193 102.982C136.613 102.982 134.268 102.897 133.228 102.733C132.808 102.666 132.489 102.552 132.305 102.405C132.133 102.264 131.996 102.021 131.905 101.687C131.715 100.955 131.619 99.3546 131.619 96.937C131.619 95.3048 131.677 94.115 131.788 93.4C131.92 92.5648 132.133 92.2542 132.256 92.1399C132.381 92.0169 132.764 91.7912 133.92 91.6535C134.884 91.5392 136.525 91.4806 138.797 91.4806C140.523 91.4806 141.992 91.5216 143.157 91.6007C143.975 91.6623 144.565 91.7355 144.91 91.8205C145.199 91.8908 145.415 91.9905 145.537 92.1077C145.616 92.1898 145.873 92.5824 145.905 94.2821L145.914 94.7275H149.448L149.442 94.2674C149.425 93.1421 149.331 92.304 149.15 91.7092C148.966 91.0938 148.639 90.5399 148.178 90.0593C147.424 89.2857 146.437 88.811 145.237 88.644C144.696 88.5678 143.727 88.5004 142.278 88.4388C140.856 88.3773 139.559 88.348 138.426 88.348C134.869 88.348 132.521 88.5473 131.245 88.9575C129.875 89.3971 128.993 90.3407 128.623 91.7619C128.284 93.0747 128.114 94.9209 128.114 97.2505C128.114 100.688 128.439 102.868 129.102 103.917C129.735 104.934 130.766 105.561 132.168 105.784C133.576 106.004 135.997 106.115 139.358 106.115C143.014 106.115 145.321 105.942 146.414 105.585C147.278 105.3 147.935 104.899 148.367 104.389C148.794 103.882 149.103 103.158 149.287 102.229C149.448 101.418 149.533 99.7121 149.55 97.0132V96.559H137.48L137.474 96.556Z" fill="white"/>
<path d="M153.078 84.2835V85.5201H152.605V82.4315H154.477C154.821 82.4315 155.064 82.493 155.204 82.6132C155.356 82.7451 155.435 82.9824 155.435 83.3253C155.435 83.5802 155.405 83.7619 155.35 83.8762C155.274 84.0286 155.058 84.2689 154.795 84.2689C154.95 84.5092 155.622 85.5201 155.622 85.5201H155.032L154.208 84.2835H153.078ZM153.078 83.8615H154.427C154.655 83.8615 154.804 83.8147 154.874 83.7238C154.932 83.6506 154.962 83.5304 154.962 83.2901C154.962 83.1026 154.932 83.0059 154.877 82.9473C154.807 82.874 154.658 82.8388 154.427 82.8388H153.078V83.8615Z" fill="white"/>
<path d="M153.934 87.0703C152.243 87.0703 150.867 85.6901 150.867 83.9934C150.867 82.2967 152.243 80.9165 153.934 80.9165C155.625 80.9165 157 82.2967 157 83.9934C157 85.6901 155.625 87.0703 153.934 87.0703ZM153.934 81.4059C152.511 81.4059 151.355 82.5663 151.355 83.9934C151.355 85.4205 152.511 86.581 153.934 86.581C155.356 86.581 156.512 85.4205 156.512 83.9934C156.512 82.5663 155.356 81.4059 153.934 81.4059Z" fill="white"/>
<path d="M25.1212 118.997C24.8116 118.997 24.5137 118.947 24.2305 118.848C23.9472 118.748 23.7281 118.622 23.5734 118.467L23.7486 118.136C23.8946 118.276 24.0932 118.393 24.3414 118.487C24.5897 118.581 24.8496 118.631 25.1241 118.631C25.3986 118.631 25.6001 118.599 25.7666 118.534C25.933 118.47 26.0528 118.385 26.1316 118.276C26.2105 118.168 26.2484 118.048 26.2484 117.916C26.2484 117.758 26.2017 117.629 26.1112 117.532C26.0177 117.435 25.8951 117.359 25.7461 117.303C25.5943 117.248 25.4278 117.198 25.2467 117.154C25.0628 117.113 24.8817 117.066 24.6977 117.016C24.5137 116.966 24.3473 116.902 24.1954 116.82C24.0435 116.738 23.9209 116.629 23.8274 116.497C23.734 116.363 23.6873 116.187 23.6902 115.97C23.6902 115.768 23.7457 115.583 23.8566 115.413C23.9676 115.243 24.1341 115.108 24.3619 115.006C24.5897 114.903 24.8788 114.851 25.2321 114.851C25.4658 114.851 25.6994 114.883 25.9301 114.947C26.1608 115.012 26.3594 115.1 26.5259 115.211L26.3769 115.554C26.1988 115.437 26.009 115.352 25.8075 115.299C25.606 115.243 25.4132 115.217 25.2263 115.217C24.9752 115.217 24.7707 115.249 24.6072 115.316C24.4436 115.381 24.3239 115.472 24.2451 115.58C24.1662 115.692 24.1282 115.815 24.1282 115.955C24.1282 116.114 24.175 116.242 24.2655 116.339C24.3589 116.436 24.4816 116.512 24.6335 116.568C24.7853 116.623 24.9547 116.67 25.1358 116.714C25.3168 116.758 25.5008 116.802 25.6819 116.855C25.8629 116.905 26.0294 116.969 26.1813 117.051C26.3331 117.13 26.4558 117.236 26.5492 117.368C26.6427 117.5 26.6894 117.673 26.6865 117.886C26.6865 118.086 26.6281 118.267 26.5171 118.437C26.4061 118.607 26.2338 118.742 26.006 118.845C25.7783 118.947 25.4833 119 25.127 119L25.1212 118.997Z" fill="white"/>
<path d="M31.7242 118.997C31.4088 118.997 31.1196 118.944 30.851 118.842C30.5823 118.739 30.3516 118.593 30.1559 118.405C29.9603 118.218 29.8084 117.998 29.7003 117.749C29.5923 117.5 29.5397 117.224 29.5397 116.925C29.5397 116.626 29.5952 116.351 29.7062 116.102C29.8172 115.853 29.969 115.633 30.1676 115.445C30.3662 115.258 30.5969 115.111 30.8626 115.009C31.1284 114.906 31.4204 114.853 31.7388 114.853C32.0571 114.853 32.3433 114.906 32.609 115.009C32.8748 115.111 33.1055 115.255 33.3012 115.442C33.4968 115.63 33.6487 115.847 33.7568 116.099C33.8648 116.351 33.9174 116.626 33.9174 116.925C33.9174 117.224 33.8619 117.5 33.7509 117.752C33.6399 118.004 33.4881 118.223 33.2895 118.408C33.0909 118.596 32.8602 118.739 32.5944 118.842C32.3287 118.944 32.0366 118.997 31.7242 118.997ZM31.7242 118.613C31.9753 118.613 32.206 118.572 32.4192 118.487C32.6324 118.405 32.8164 118.285 32.9741 118.133C33.1318 117.98 33.2544 117.801 33.3421 117.596C33.4297 117.391 33.4764 117.169 33.4764 116.925C33.4764 116.682 33.4355 116.456 33.3479 116.254C33.2603 116.049 33.1406 115.873 32.9829 115.718C32.8252 115.566 32.6412 115.445 32.4309 115.363C32.2177 115.281 31.987 115.237 31.7358 115.237C31.4847 115.237 31.254 115.278 31.0379 115.363C30.8218 115.448 30.6349 115.566 30.4772 115.718C30.3165 115.87 30.1939 116.049 30.1063 116.254C30.0187 116.459 29.9719 116.682 29.9719 116.925C29.9719 117.166 30.0128 117.388 30.1004 117.593C30.188 117.799 30.3107 117.977 30.4684 118.133C30.6261 118.285 30.813 118.405 31.0262 118.487C31.2394 118.572 31.473 118.613 31.7242 118.613ZM30.7575 114.558L31.5343 114.01H31.952L32.7259 114.558H32.3199L31.5752 114.115H31.9082L31.1605 114.558H30.7546H30.7575ZM32.2849 114.074L33.0091 113.447H33.5231L32.6616 114.074H32.2849Z" fill="white"/>
<path d="M37.1648 118.962L37.1794 114.889H37.5416L40.4065 118.426H40.2167L40.2313 114.889H40.6664L40.6518 118.962H40.2867L37.4277 115.425H37.6175L37.6029 118.962H37.1619H37.1648Z" fill="white"/>
<path d="M46.1071 118.997C45.7888 118.997 45.4967 118.944 45.228 118.842C44.9594 118.739 44.7287 118.596 44.533 118.408C44.3373 118.221 44.1855 118.004 44.0774 117.752C43.9693 117.5 43.9168 117.224 43.9168 116.925C43.9168 116.626 43.9723 116.351 44.0832 116.099C44.1942 115.847 44.349 115.627 44.5476 115.442C44.7462 115.255 44.9798 115.111 45.2485 115.009C45.5172 114.906 45.8092 114.853 46.1275 114.853C46.4458 114.853 46.735 114.903 47.0007 115C47.2635 115.097 47.4884 115.243 47.6753 115.442L47.4008 115.715C47.2256 115.545 47.0358 115.422 46.8255 115.349C46.6152 115.275 46.3874 115.237 46.145 115.237C45.888 115.237 45.6486 115.278 45.4325 115.363C45.2164 115.448 45.0265 115.566 44.8659 115.718C44.7053 115.87 44.5797 116.049 44.4892 116.254C44.3986 116.459 44.3548 116.682 44.3519 116.925C44.3519 117.166 44.3957 117.388 44.4833 117.593C44.5709 117.799 44.6965 117.977 44.8571 118.133C45.0178 118.285 45.2047 118.405 45.4208 118.487C45.6369 118.572 45.8734 118.613 46.1275 118.613C46.367 118.613 46.5919 118.578 46.805 118.508C47.0182 118.437 47.2139 118.32 47.392 118.153L47.6403 118.478C47.4417 118.648 47.2081 118.777 46.9423 118.865C46.6765 118.953 46.3962 118.997 46.1071 118.997ZM47.2168 118.426L47.2227 116.925H47.6461L47.6403 118.478L47.2168 118.426Z" fill="white"/>
<path d="M56.159 118.962L54.328 114.889H54.804L56.5182 118.725H56.2554L58.0106 114.889H58.4574L56.5942 118.962H56.159Z" fill="white"/>
<path d="M63.0804 118.997C62.5489 118.997 62.1283 118.848 61.8246 118.549C61.5209 118.25 61.369 117.807 61.3719 117.221L61.3807 114.889H61.8217L61.8129 117.204C61.8129 117.684 61.921 118.039 62.1429 118.267C62.3649 118.496 62.6773 118.61 63.0833 118.61C63.4892 118.61 63.8075 118.496 64.0324 118.267C64.2573 118.039 64.3683 117.684 64.3712 117.204L64.3799 114.889H64.8092L64.8005 117.221C64.8005 117.807 64.6457 118.25 64.3391 118.549C64.0353 118.848 63.6148 118.997 63.0833 118.997H63.0804Z" fill="white"/>
<path d="M68.3838 118.962L68.3984 114.889H68.8394L68.8248 118.962H68.3838Z" fill="white"/>
<path d="M75.6964 118.962L77.4165 116.703V117.034L75.8132 114.886H76.3185L77.6648 116.679L77.4691 116.685L78.83 114.886H79.306L77.7057 117.004V116.703L79.4024 118.962H78.8913L77.4574 117.048H77.6414L76.2046 118.962H75.6964Z" fill="white"/>
<path d="M84.1889 118.997C83.6574 118.997 83.2369 118.848 82.9332 118.549C82.6294 118.25 82.4776 117.807 82.4805 117.221L82.4892 114.889H82.9302L82.9215 117.204C82.9215 117.684 83.0295 118.039 83.2515 118.267C83.4734 118.496 83.7859 118.61 84.1918 118.61C84.5978 118.61 84.9161 118.496 85.141 118.267C85.3629 118.039 85.4768 117.684 85.4797 117.204L85.4885 114.889H85.9178L85.909 117.221C85.909 117.807 85.7542 118.25 85.4476 118.549C85.141 118.848 84.7234 118.997 84.1918 118.997H84.1889ZM83.818 114.558L84.6357 113.837H85.2023L84.2327 114.558H83.8151H83.818ZM85.7104 115.202V114.889H85.801C85.9411 114.889 86.0404 114.851 86.1018 114.771C86.1631 114.692 86.1952 114.601 86.1952 114.493C86.1952 114.42 86.1835 114.352 86.1631 114.288C86.1427 114.226 86.1134 114.171 86.0784 114.118L86.3588 114.012C86.4055 114.077 86.4435 114.153 86.4697 114.235C86.496 114.317 86.5106 114.408 86.5106 114.499C86.5106 114.704 86.4493 114.871 86.3296 115.003C86.2098 115.135 86.0317 115.196 85.798 115.196H85.7075L85.7104 115.202Z" fill="white"/>
<path d="M89.5215 118.962L89.5361 114.889H89.8983L92.7632 118.426H92.5733L92.588 114.889H93.0231L93.0085 118.962H92.6434L89.7844 115.425H89.9742L89.9596 118.962H89.5186H89.5215Z" fill="white"/>
<path d="M98.3411 118.997C98.0228 118.997 97.7308 118.944 97.4621 118.842C97.1934 118.739 96.9627 118.596 96.767 118.408C96.5714 118.221 96.4195 118.004 96.3115 117.752C96.2034 117.5 96.1508 117.224 96.1508 116.925C96.1508 116.626 96.2063 116.351 96.3173 116.099C96.4283 115.847 96.5831 115.627 96.7816 115.442C96.9802 115.258 97.2139 115.111 97.4825 115.009C97.7512 114.906 98.0432 114.853 98.3616 114.853C98.6799 114.853 98.969 114.903 99.2348 115C99.4976 115.097 99.7225 115.243 99.9094 115.442L99.6349 115.715C99.4596 115.545 99.2698 115.422 99.0595 115.349C98.8493 115.275 98.6244 115.237 98.3791 115.237C98.1221 115.237 97.8826 115.278 97.6665 115.363C97.4504 115.448 97.2606 115.566 97.1 115.718C96.9393 115.87 96.8138 116.049 96.7232 116.254C96.6327 116.459 96.5889 116.682 96.586 116.925C96.586 117.166 96.6298 117.388 96.7174 117.593C96.805 117.799 96.9306 117.977 97.0912 118.133C97.2518 118.288 97.4387 118.405 97.6548 118.487C97.8709 118.572 98.1075 118.613 98.3616 118.613C98.601 118.613 98.8259 118.578 99.0391 118.508C99.2523 118.437 99.448 118.32 99.6261 118.153L99.8743 118.478C99.6757 118.648 99.4421 118.777 99.1764 118.865C98.9106 118.953 98.6302 118.997 98.3411 118.997ZM99.4509 118.426L99.4567 116.925H99.8802L99.8743 118.478L99.4509 118.426Z" fill="white"/>
<path d="M108.139 118.962L108.154 115.261H106.688V114.889H110.064V115.261H108.595L108.58 118.962H108.139Z" fill="white"/>
<path d="M112.376 118.962L114.298 114.889H114.733L116.626 118.962H116.161L114.424 115.138H114.602L112.835 118.962H112.376ZM113.133 117.875L113.264 117.526H115.691L115.82 117.875H113.133ZM113.539 114.558L114.316 114.01H114.733L115.507 114.558H115.101L114.357 114.115H114.689L113.942 114.558H113.536H113.539ZM115.422 114.074L114.561 113.447H115.081L115.793 114.074H115.422Z" fill="white"/>
<path d="M119.584 118.962L119.599 114.889H119.964L121.859 118.065H121.669L123.57 114.889H123.935L123.921 118.962H123.497L123.512 115.533H123.614L121.862 118.443H121.655L119.914 115.533H120.028L120.013 118.962H119.584Z" fill="white"/>
<path d="M71.605 38.2117C71.605 38.2117 69.1898 35.7883 69.1898 32.5004V3.49231L71.1611 1.51429C73.1732 -0.504762 76.4353 -0.504762 78.4474 1.51429L88.8236 12.0403L88.736 12.137L81.1459 19.6183C80.3282 20.6 80.2698 20.981 80.2522 22.3055V46.9121C77.3727 43.9641 71.6079 38.2088 71.6079 38.2088L71.605 38.2117Z" fill="white"/>
<path d="M107.727 39.7824C107.727 44.9194 105.94 49.6374 102.952 53.3473C102.596 53.7897 102.225 54.2176 101.837 54.6278C101.831 54.6337 101.828 54.6366 101.822 54.6425L100.984 55.4806L99.8831 56.5883L78.4504 78.0945C76.4353 80.1136 73.1732 80.1136 71.1611 78.0945L47.6052 54.4579C44.0511 50.6044 41.8754 45.4498 41.8754 39.7854C41.8754 34.1209 43.8847 29.359 47.2022 25.5582L54.4798 18.2557L55.0727 17.6579V38.5018C55.0727 41.7927 57.4849 44.2161 57.4849 44.2161C57.4849 44.2161 67.8932 54.6601 70.7697 57.6022C71.4473 58.2938 72.1189 58.792 72.776 59.1289C72.8082 59.1465 72.8432 59.1612 72.8753 59.1788C74.3501 59.8967 75.749 59.8059 76.9288 59.2813C76.9551 59.2696 76.9843 59.2579 77.0106 59.2432C77.4779 59.0234 77.9101 58.7392 78.3014 58.4081L78.7658 57.9392L80.1938 56.5004L92.3572 44.2718C92.3572 44.2718 94.3577 42.6894 94.3782 40.3919V18.0886L94.3665 17.3092L99.6407 22.789C99.6407 22.789 99.6436 22.789 99.6465 22.7919L102.336 25.4908C102.611 25.8015 102.876 26.1209 103.133 26.4491H103.136C106.007 30.1238 107.724 34.7538 107.724 39.7824H107.727Z" fill="white"/>
</svg>
