<svg width="128" height="128" viewBox="0 0 128 128" fill="none" xmlns="http://www.w3.org/2000/svg">
<path d="M44.4145 37.998C43.982 38.566 43.9095 39.3305 44.228 39.9695C47.9967 47.537 55.5728 52.2378 64 52.2378C72.4272 52.2378 80.0033 47.5368 83.772 39.9695C84.0903 39.3305 84.018 38.566 83.5855 37.998C80.4468 33.8753 76.2192 30.929 71.45 29.4252C74.2057 27.229 75.9768 23.8475 75.9768 20.058C75.9768 13.454 70.604 8.08125 64 8.08125C57.396 8.08125 52.0233 13.454 52.0233 20.058C52.0233 23.8475 53.7943 27.229 56.55 29.4252C51.7808 30.929 47.5533 33.8753 44.4145 37.998ZM55.7733 20.058C55.7733 15.5218 59.4637 11.8313 64 11.8313C68.5362 11.8313 72.2268 15.5218 72.2268 20.058C72.2268 24.5942 68.5362 28.2845 64 28.2845C59.4637 28.2845 55.7733 24.594 55.7733 20.058ZM64 32.0345C70.1677 32.0345 75.881 34.6828 79.854 39.3415C76.571 45.0125 70.5993 48.4878 64 48.4878C57.4007 48.4878 51.429 45.0125 48.146 39.3415C52.119 34.6828 57.8322 32.0345 64 32.0345Z" fill="white"/>
<path d="M123.272 81.6227C122.715 80.75 121.555 80.4952 120.683 81.0527C119.81 81.6103 119.555 82.7698 120.113 83.6423C122.819 87.877 124.25 92.7865 124.25 97.84C124.25 112.402 112.402 124.25 97.84 124.25C83.2775 124.25 71.43 112.402 71.43 97.84C71.43 83.2775 83.2775 71.43 97.84 71.43C104.001 71.43 109.995 73.5958 114.718 77.5285C115.514 78.191 116.696 78.0833 117.358 77.2875C118.021 76.4917 117.913 75.3092 117.118 74.6468C111.722 70.1543 104.876 67.6803 97.8402 67.6803C89.354 67.6803 81.6765 71.2048 76.1908 76.865L65.875 70.7598V60.26C81.635 59.2885 94.16 46.1605 94.16 30.16C94.16 27.948 93.9195 25.7482 93.445 23.6217C93.2195 22.6112 92.2175 21.9735 91.2067 22.2C90.1963 22.4255 89.5595 23.4275 89.785 24.4382C90.1998 26.2972 90.41 28.2222 90.41 30.16C90.41 44.7225 78.5625 56.57 64 56.57C49.4375 56.57 37.59 44.7225 37.59 30.16C37.59 15.5975 49.4375 3.75 64 3.75C73.3483 3.75 82.091 8.77025 86.8165 16.8515C87.3392 17.7455 88.4877 18.0463 89.3815 17.5235C90.2755 17.0007 90.5762 15.8525 90.0535 14.9585C84.6582 5.73175 74.675 0 64 0C47.3698 0 33.84 13.5297 33.84 30.16C33.84 46.1605 46.365 59.2882 62.125 60.26V70.7598L51.8095 76.8648C46.3238 71.2045 38.6462 67.68 30.16 67.68C19.1007 67.68 8.944 73.7202 3.653 83.4437C3.158 84.3532 3.49425 85.4917 4.40375 85.9867C5.3135 86.4818 6.45175 86.1455 6.94675 85.236C11.5805 76.7203 20.4753 71.43 30.1597 71.43C44.7223 71.43 56.5698 83.2775 56.5698 97.84C56.5698 112.402 44.7225 124.25 30.16 124.25C15.5975 124.25 3.75 112.402 3.75 97.84C3.75 96.1827 3.9055 94.523 4.21225 92.907C4.40525 91.8897 3.737 90.9085 2.7195 90.7152C1.70325 90.5228 0.721 91.1905 0.52775 92.208C0.1775 94.0537 0 95.9487 0 97.84C0 114.47 13.5297 128 30.16 128C46.7903 128 60.32 114.47 60.32 97.84C60.32 91.0622 58.0723 84.7998 54.2835 79.758L64 74.0075L73.7165 79.7582C69.9277 84.8 67.68 91.0622 67.68 97.8402C67.68 114.47 81.2097 128 97.84 128C114.47 128 128 114.47 128 97.84C128 92.0695 126.365 86.4617 123.272 81.6227Z" fill="white"/>
<path d="M78.255 105.679C77.8225 106.247 77.75 107.011 78.0685 107.65C81.8372 115.218 89.4133 119.919 97.8405 119.919C106.268 119.919 113.844 115.218 117.613 107.65C117.931 107.011 117.858 106.247 117.426 105.679C114.287 101.556 110.06 98.6098 105.29 97.106C108.046 94.9098 109.817 91.5282 109.817 87.7387C109.817 81.1348 104.445 75.7623 97.8408 75.7623C91.2368 75.7623 85.864 81.135 85.864 87.7387C85.864 91.5282 87.635 94.91 90.3907 97.106C85.6212 98.6098 81.3937 101.556 78.255 105.679ZM89.6137 87.7387C89.6137 83.2025 93.3043 79.5123 97.8405 79.5123C102.377 79.5123 106.067 83.2027 106.067 87.7387C106.067 92.275 102.377 95.9655 97.8405 95.9655C93.3043 95.9655 89.6137 92.275 89.6137 87.7387ZM97.8405 99.7155C104.008 99.7155 109.722 102.364 113.695 107.022C110.412 112.693 104.44 116.169 97.8405 116.169C91.2412 116.169 85.2695 112.693 81.9865 107.022C85.9593 102.364 91.6725 99.7155 97.8405 99.7155Z" fill="white"/>
<path d="M10.574 105.679C10.1415 106.247 10.069 107.011 10.3875 107.65C14.1562 115.218 21.7323 119.919 30.1595 119.919C38.5868 119.919 46.1628 115.218 49.9315 107.65C50.2498 107.011 50.1775 106.247 49.745 105.679C46.6063 101.556 42.3787 98.6098 37.6095 97.106C40.3652 94.9098 42.1362 91.5282 42.1362 87.7387C42.1362 81.1348 36.7635 75.7623 30.1595 75.7623C23.5555 75.7623 18.183 81.135 18.183 87.7387C18.183 91.5282 19.954 94.91 22.7097 97.106C17.9405 98.6098 13.713 101.556 10.574 105.679ZM21.933 87.7387C21.933 83.2025 25.6235 79.5123 30.1595 79.5123C34.6958 79.5123 38.3862 83.2027 38.3862 87.7387C38.3862 92.275 34.6958 95.9655 30.1595 95.9655C25.6235 95.9655 21.933 92.275 21.933 87.7387ZM30.1595 99.7155C36.3273 99.7155 42.0405 102.364 46.0135 107.022C42.7305 112.693 36.7588 116.169 30.1595 116.169C23.5602 116.169 17.5885 112.693 14.3055 107.022C18.2785 102.364 23.9918 99.7155 30.1595 99.7155Z" fill="white"/>
</svg>
