<svg width="45" height="50" viewBox="0 0 45 50" fill="none" xmlns="http://www.w3.org/2000/svg">
<path d="M44.3671 8.82054L20.9019 0.0609715C20.604 -0.0502589 20.2711 -0.00758313 20.0104 0.174936C19.7496 0.357456 19.5941 0.656967 19.5941 0.976596V12.9945L0.576372 21.4963C0.225891 21.6529 0 22.0028 0 22.3888V49.0234C0 49.5628 0.434414 50 0.970323 50H44.0297C44.5656 50 45 49.5628 45 49.0234V9.73616C45 9.32776 44.7475 8.96253 44.3671 8.82054ZM1.94065 44.2631H19.5941V48.0469H1.94065V44.2631ZM14.3419 42.31H7.19281V36.5279H14.3419V42.31ZM29.794 48.0469V39.0175H34.8001V48.0469H29.794ZM43.0594 48.0469H40.9369V42.365C40.9369 41.8257 40.5025 41.3885 39.9665 41.3885C39.4306 41.3885 38.9962 41.8257 38.9962 42.365V48.0469H36.7407V38.0409C36.7407 37.5016 36.3063 37.0644 35.7704 37.0644H28.8236C28.2877 37.0644 27.8533 37.5016 27.8533 38.0409V48.0469H25.5976V42.365C25.5976 41.8257 25.1632 41.3885 24.6273 41.3885C24.0914 41.3885 23.657 41.8257 23.657 42.365V48.0469H21.5348V33.2846C21.5348 32.7452 21.1004 32.308 20.5644 32.308C20.0285 32.308 19.5941 32.7452 19.5941 33.2846V42.31H16.2826V35.5514C16.2826 35.012 15.8482 34.5748 15.3123 34.5748H6.22249C5.68658 34.5748 5.25217 35.012 5.25217 35.5514V42.31H1.94065V23.0236L19.5941 15.1317V24.4553C19.5941 24.9946 20.0285 25.4319 20.5644 25.4319C21.1004 25.4319 21.5348 24.9946 21.5348 24.4553V2.3804L43.0594 10.4155V48.0469Z" fill="white"/>
<path d="M20.5642 29.8644C20.1596 29.8644 19.787 29.6004 19.6516 29.2167C19.5162 28.8333 19.6343 28.3916 19.9486 28.1331C20.2672 27.8711 20.7266 27.8414 21.0761 28.0591C21.423 28.2751 21.6004 28.7005 21.5107 29.101C21.4124 29.541 21.0131 29.8644 20.5642 29.8644Z" fill="white"/>
<path d="M15.3122 31.7842H6.22268C5.68677 31.7842 5.25236 31.347 5.25236 30.8076V25.3894C5.25236 24.9964 5.4864 24.6417 5.84639 24.4893L11.8973 21.9267C12.0165 21.8762 12.1444 21.8502 12.2736 21.8502H15.3121C15.848 21.8502 16.2824 22.2874 16.2824 22.8268V30.8076C16.2825 31.347 15.8481 31.7842 15.3122 31.7842ZM7.19301 29.8311H14.3418V23.8033H12.4694L7.19301 26.0379V29.8311Z" fill="white"/>
<path d="M39.9665 21.2359H34.6224C34.0865 21.2359 33.6521 20.7987 33.6521 20.2593V13.5797C33.6521 13.2601 33.8075 12.9606 34.0683 12.7781C34.3291 12.5954 34.6621 12.5529 34.96 12.6641L40.3041 14.6593C40.6846 14.8013 40.937 15.1665 40.937 15.5749V20.2593C40.9369 20.7987 40.5025 21.2359 39.9665 21.2359ZM35.5927 19.2827H38.9962V16.2542L35.5927 14.9835V19.2827Z" fill="white"/>
<path d="M29.9725 21.2359H24.6275C24.0916 21.2359 23.6572 20.7987 23.6572 20.2593V10.1907C23.6572 9.65139 24.0916 9.21419 24.6275 9.21419H25.5441C25.6592 9.21419 25.7734 9.23479 25.8814 9.27513L30.3099 10.9278C30.6904 11.0698 30.9428 11.435 30.9428 11.8434V20.2593C30.9428 20.7987 30.5084 21.2359 29.9725 21.2359ZM25.5978 19.2827H29.0022V12.5228L25.5978 11.2523V19.2827Z" fill="white"/>
<path d="M39.9667 33.8709H34.6219C34.086 33.8709 33.6516 33.4337 33.6516 32.8944V24.7732C33.6516 24.2338 34.086 23.7966 34.6219 23.7966H39.9667C40.5027 23.7966 40.9371 24.2338 40.9371 24.7732V32.8944C40.9371 33.4337 40.5027 33.8709 39.9667 33.8709ZM35.5923 31.9178H38.9965V25.7497H35.5923V31.9178Z" fill="white"/>
<path d="M29.9721 33.8709H24.6274C24.0915 33.8709 23.6571 33.4337 23.6571 32.8944V24.7732C23.6571 24.2338 24.0915 23.7966 24.6274 23.7966H29.9721C30.508 23.7966 30.9424 24.2338 30.9424 24.7732V32.8944C30.9424 33.4337 30.508 33.8709 29.9721 33.8709ZM25.5976 31.9178H29.0017V25.7497H25.5976V31.9178Z" fill="white"/>
</svg>
