<svg width="66" height="81" viewBox="0 0 66 81" fill="none" xmlns="http://www.w3.org/2000/svg">
<path d="M-2.83417e-05 0.915059C9.76812 0.145345 31.5587 14.111 41.6985 27.2134C52.6764 41.3903 56.1421 51.1623 58.1982 74.1466C59.2454 73.1792 60.0352 72.3785 60.8933 71.6669C61.8284 70.8941 62.7851 70.1168 63.8317 69.5207C64.1562 69.3309 65.0154 69.5865 65.2709 69.9129C65.5133 70.2308 65.5002 71.0772 65.234 71.3942C62.9753 74.1509 60.6539 76.8556 58.3028 79.5373C57.5191 80.4312 56.5907 80.4985 55.7042 79.5895C52.4485 76.2435 49.1423 72.9351 45.9508 69.5193C45.1992 68.7169 44.835 67.5427 44.1459 66.2682C47.2727 65.7539 48.2496 68.0859 49.838 69.2296C51.5176 70.4327 52.9801 71.9403 54.8873 73.6153C55.3281 66.6474 54.5038 60.371 52.7167 54.2546C46.1547 31.7848 31.5932 16.1555 10.8919 5.89972C8.19887 4.56345 5.34836 3.53703 2.58335 2.33965C1.83833 2.01732 1.14977 1.55712 0.00348855 0.921071L-2.83417e-05 0.915059Z" fill="white"/>
</svg>
