<svg width="81" height="71" viewBox="0 0 81 71" fill="none" xmlns="http://www.w3.org/2000/svg">
<path d="M80.6353 1.18662C68.2136 -2.97411 41.0744 5.25269 28.6861 16.4535C15.2735 28.5705 11.232 38.3088 9.4598 63.274C8.09596 61.8401 7.06473 60.6792 5.95014 59.5948C4.7355 58.416 3.49336 57.2248 2.14375 56.2056C1.72513 55.8841 0.644294 55.879 0.332066 56.1571C0.0360717 56.4301 0.0834134 57.3794 0.432721 57.8233C3.39891 61.6644 6.44276 65.4685 9.52333 69.257C10.5502 70.5198 11.7307 70.9087 12.8224 70.1936C16.8313 67.5583 20.9057 64.9822 24.8308 62.2474C25.7552 61.6056 26.1746 60.4179 27.0024 59.2278C23.0164 57.5969 21.8618 59.8702 19.8882 60.6101C17.8009 61.3857 16.0002 62.5745 13.6413 63.7999C12.8285 55.8718 13.6458 49.1433 15.6907 42.9189C23.1985 20.0509 41.1051 7.52352 66.9973 3.07038C70.3655 2.48872 73.9448 2.30621 77.4094 1.90394C78.343 1.79588 79.1999 1.51483 80.6311 1.19214L80.6353 1.18662Z" fill="white"/>
</svg>
