<svg width="30" height="26" viewBox="0 0 30 26" fill="none" xmlns="http://www.w3.org/2000/svg">
<path d="M17.0441 21.0757C16.6564 21.4996 15.9641 21.5652 15.5058 21.2214L8.21509 15.753C7.75674 15.4092 7.66232 14.7501 8.00515 14.288L8.94043 13.0283C9.28334 12.5664 9.93995 12.4683 10.3996 12.8105L15.0748 16.2904C15.5343 16.6325 16.2275 16.5655 16.615 16.1414L27.0691 4.76262C27.4566 4.33857 28.1152 4.31392 28.5325 4.70789L29.6705 5.78227C30.0878 6.17624 30.112 6.84542 29.7244 7.26939L17.0441 21.0757Z" fill="#26FDE6"/>
<path d="M24.6656 16.4856C24.6656 18.0323 24.6656 22.6721 24.6656 22.6721C24.6656 23.5611 23.9485 24.2884 23.0721 24.2884H3.28086C2.40438 24.2884 1.68734 23.5611 1.68734 22.6721V3.32795C1.68734 2.43889 2.40438 1.71147 3.28086 1.71147H23.0721C23.9485 1.71147 24.6656 2.43889 24.6656 3.32795C24.6656 3.32795 24.6656 4.05142 24.6656 4.29261C24.6656 4.86313 25.0802 4.42066 25.0802 4.42066C25.0802 4.42066 25.8746 3.66272 26.0852 3.46073C26.1709 3.37847 26.3528 3.20709 26.3528 2.87434V1.61639C26.3528 0.727421 25.6358 0 24.7593 0H1.59361C0.71713 0 0 0.727421 0 1.61639V24.3836C0 25.2726 0.71713 26 1.59361 26H24.7593C25.6358 26 26.3528 25.2726 26.3528 24.3836C26.3528 24.3836 26.3528 17.0764 26.3528 14.6406C26.3528 14.189 25.9888 14.5886 25.9888 14.5886C25.9888 14.5886 25.2733 15.4006 24.9208 15.743C24.7808 15.879 24.6656 16.043 24.6656 16.4856Z" fill="#26FDE6"/>
</svg>
