<svg width="121" height="145" viewBox="0 0 121 145" fill="none" xmlns="http://www.w3.org/2000/svg">
<path d="M113.778 2.50538C111.628 0.385534 107.101 3.0125 103.962 4.965C92.8178 11.8944 83.743 21.6649 75.2034 31.1028C58.0481 50.0504 42.1895 69.7685 27.8793 89.9321C20.6788 100.076 13.8646 110.344 7.48006 120.694C4.86821 124.928 1.53604 129.663 0.964291 133.932C0.910115 134.35 0.889668 134.761 0.897013 135.159C0.866284 135.109 0.783167 135.153 0.802832 135.209C0.836229 135.316 0.880958 135.422 0.914088 135.523C1.01825 137.015 1.57979 138.333 2.64096 139.166C4.26182 141.76 6.60246 143.843 9.75751 144.526C10.4403 144.676 10.9938 143.767 10.2674 143.414C8.29151 142.448 6.37902 141.382 4.73108 140.024C4.94257 140.054 5.16487 140.072 5.39229 140.079C9.25826 140.182 13.6529 136.912 16.9477 134.041C22.2716 129.401 27.2979 124.347 32.1853 119.357C42.6855 108.626 52.3775 97.3687 61.266 85.8076C61.7368 85.1933 60.808 85.123 60.3801 85.684C53.3605 94.9651 45.7673 104 37.6093 112.736C33.652 116.977 29.572 121.143 25.3804 125.229C21.5307 128.98 17.5686 133.118 13.1231 136.271C10.8369 137.887 8.12857 139.341 5.79419 139.206C2.86198 139.036 1.5936 136.692 1.847 133.987C2.26724 129.514 6.01132 124.362 8.7714 119.899C14.328 110.903 20.2054 101.966 26.3768 93.1231C38.9166 75.161 52.6835 57.5739 67.5671 40.5495C75.246 31.767 83.0996 22.7144 92.0333 14.7784C96.5301 10.7805 101.621 6.74337 106.908 3.98389C108.637 3.07703 111.218 1.93086 112.488 2.85634C113.664 3.71222 113.832 5.22473 113.353 6.88147C112.67 9.26529 110.986 11.7417 109.615 14.0952C97.251 35.3233 83.8217 56.3509 69.0987 77.035C68.9761 77.2059 69.2326 77.228 69.3444 77.069C84.3874 55.9428 98.5685 34.4813 111.234 12.7948C113.179 9.46915 116.118 4.81558 113.784 2.5108L113.778 2.50538Z" fill="url(#paint0_linear_13_3552)"/>
<path d="M120.587 7.11691C118.252 4.80077 115.397 2.27562 112.37 0.942916C112.306 0.911752 112.202 1.00203 112.24 1.06862C113.651 3.68434 116.053 6.09415 118.333 8.09397C117.83 8.02648 117.284 8.24573 117.057 8.85429C101.14 51.0335 74.8529 88.8139 41.7293 119.217C32.3991 127.781 22.2418 135.296 12.6396 143.508C12.5797 143.562 12.6247 143.674 12.7078 143.63C22.4893 138.268 31.2721 131.108 39.6789 123.8C48.1783 116.408 56.2035 108.469 63.7545 100.109C78.8948 83.3512 92.0293 64.7518 102.869 44.922C109.097 33.5314 114.55 21.7329 119.245 9.62845C119.362 9.32688 119.36 9.05362 119.287 8.82928C120.152 9.10187 121.331 7.85638 120.581 7.11718L120.587 7.11691Z" fill="url(#paint1_linear_13_3552)"/>
<path d="M112.714 2.70907C101.665 5.2551 92.7604 12.8481 85.0309 20.7958C75.9526 30.128 67.4254 40.0721 58.9935 49.9889C50.3569 60.1431 41.9568 70.4969 33.7984 81.0387C25.8595 91.2968 17.8161 101.628 10.7528 112.517C7.39045 117.697 4.35305 123.147 2.47899 129.066C1.44508 132.32 0.583851 136.592 1.95778 139.853C1.95392 140.012 1.97865 140.176 2.0711 140.331C2.25035 140.642 2.46225 140.922 2.70222 141.196C3.07344 141.725 3.52777 142.21 4.07602 142.64C4.12888 142.678 4.18853 142.618 4.17453 142.562C4.1608 142.511 4.15273 142.46 4.139 142.409C6.17061 143.715 8.95558 144.256 11.0665 144.106C11.0665 144.106 11.1634 143.993 11.094 143.968C9.6035 143.423 8.14268 142.785 6.82309 141.891C5.66181 141.102 4.72541 140.025 3.60325 139.223C2.71302 129.334 8.81459 119.851 14.2171 111.927C20.9694 102.032 28.2535 92.4599 35.5586 82.9718C50.2654 63.8772 65.7497 45.3782 82.0173 27.5997C90.7453 18.0619 100.123 8.70421 112.909 5.15987C114.383 4.749 114.411 2.32759 112.714 2.71475L112.714 2.70907Z" fill="url(#paint2_linear_13_3552)"/>
<path d="M11.5883 143.005C9.60444 141.629 7.45359 140.323 5.28022 139.264C5.14077 139.196 4.99228 139.42 5.12739 139.516C7.05669 140.94 9.20107 142.229 11.3202 143.342C11.5298 143.452 11.8113 143.16 11.5883 143.005Z" fill="url(#paint3_linear_13_3552)"/>
<path d="M13.2978 141.683C11.7727 140.645 10.0216 139.873 8.39124 139.01C8.28066 138.952 8.13489 139.113 8.25194 139.187C9.82509 140.161 11.3822 141.278 13.0604 142.07C13.2695 142.169 13.5033 141.827 13.2978 141.683Z" fill="url(#paint4_linear_13_3552)"/>
<path d="M16.2384 139.734C14.6805 138.965 13.0298 138.274 11.3898 137.69C11.2395 137.635 11.0579 137.877 11.221 137.966C12.7543 138.816 14.3699 139.606 15.9912 140.276C16.3154 140.408 16.5699 139.901 16.2384 139.734Z" fill="url(#paint5_linear_13_3552)"/>
<path d="M19.2314 136.604C17.8259 135.936 16.4053 135.308 14.9738 134.692C14.7999 134.614 14.6597 134.894 14.8399 134.983C16.2248 135.698 17.6093 136.402 19.0148 137.07C19.2877 137.2 19.5275 136.744 19.2314 136.604Z" fill="url(#paint6_linear_13_3552)"/>
<path d="M24.4781 133.704C22.8299 132.825 20.8726 132.376 19.1009 131.77C18.945 131.715 18.8146 131.96 18.9824 132.026C20.6843 132.721 22.449 133.663 24.2405 134.086C24.4358 134.134 24.7168 133.83 24.4778 133.699L24.4781 133.704Z" fill="url(#paint7_linear_13_3552)"/>
<path d="M27.3895 130.772C26.6932 130.332 25.9142 130.067 25.1503 129.761C24.3109 129.419 23.4742 129.014 22.6051 128.764C22.4095 128.711 22.1507 129.002 22.3729 129.14C23.0682 129.557 23.8375 129.857 24.5746 130.198C25.3986 130.575 26.2091 131.027 27.0887 131.259C27.3474 131.326 27.6708 130.958 27.3838 130.772L27.3895 130.772Z" fill="url(#paint8_linear_13_3552)"/>
<path d="M31.3754 127.504C29.7561 126.635 27.8715 125.801 26.1047 125.297C25.9493 125.253 25.7609 125.473 25.9308 125.585C27.4538 126.578 29.3173 127.447 31.0168 128.09C31.3346 128.206 31.7193 127.693 31.3757 127.51L31.3754 127.504Z" fill="url(#paint9_linear_13_3552)"/>
<path d="M36.1788 125.2C33.9696 124.102 31.6529 123.015 29.3262 122.196C29.1992 122.151 29.0493 122.346 29.1836 122.425C31.3156 123.692 33.6541 124.761 35.9263 125.747C36.2567 125.891 36.5216 125.366 36.1785 125.194L36.1788 125.2Z" fill="url(#paint10_linear_13_3552)"/>
<path d="M39.4502 121.106C37.9458 120.266 36.39 119.541 34.8335 118.8C34.7348 118.754 34.6122 118.924 34.7174 118.988C36.211 119.84 37.6879 120.699 39.2282 121.458C39.4144 121.552 39.6428 121.217 39.4445 121.106L39.4502 121.106Z" fill="url(#paint11_linear_13_3552)"/>
<path d="M44.6504 114.797C42.8 113.603 40.8438 112.573 38.9194 111.496C38.6802 111.359 38.3625 111.727 38.6192 111.875C40.5293 113.009 42.419 114.196 44.3917 115.214C44.6129 115.329 44.8785 114.94 44.6504 114.797Z" fill="url(#paint12_linear_13_3552)"/>
<path d="M50.844 109.814C48.8351 108.508 46.6884 107.413 44.5952 106.247C44.3153 106.089 43.9492 106.517 44.247 106.691C46.3366 107.902 48.4071 109.189 50.5751 110.254C50.8132 110.368 51.084 109.968 50.844 109.814Z" fill="url(#paint13_linear_13_3552)"/>
<path d="M56.527 103.147C54.9395 101.866 53.1748 100.805 51.4755 99.6831C51.1707 99.481 50.7672 99.9555 51.084 100.174C52.7623 101.331 54.4103 102.569 56.189 103.567C56.4515 103.714 56.7867 103.357 56.5214 103.147L56.527 103.147Z" fill="url(#paint14_linear_13_3552)"/>
<path d="M62.3851 97.5479C60.2381 96.0828 57.916 94.7569 55.6159 93.5381C55.2431 93.3392 54.7459 93.8751 55.1442 94.1354C57.3574 95.5575 59.6822 96.9403 62.0368 98.1109C62.3391 98.2619 62.6788 97.7562 62.3794 97.5482L62.3851 97.5479Z" fill="url(#paint15_linear_13_3552)"/>
<path d="M66.9032 91.9489C65.0727 90.8163 63.1575 89.8129 61.2801 88.7679C60.9945 88.6105 60.6173 89.0439 60.9208 89.2176C62.7774 90.3034 64.6135 91.4358 66.5117 92.4399C66.8203 92.602 67.2362 92.1497 66.9032 91.9489Z" fill="url(#paint16_linear_13_3552)"/>
<path d="M72.362 85.7079C70.6961 84.6928 68.9223 83.5575 67.1111 82.834C66.949 82.7676 66.7843 83.0088 66.9372 83.1212C68.5024 84.289 70.3961 85.1966 72.1298 86.0832C72.3278 86.1878 72.5667 85.8349 72.362 85.7079Z" fill="url(#paint17_linear_13_3552)"/>
<path d="M77.8293 80.8558C76.3528 79.8831 74.829 78.9923 73.3157 78.084C73.1404 77.9783 72.9144 78.2452 73.0959 78.3619C74.5722 79.329 76.0323 80.3139 77.5453 81.2165C77.7673 81.3485 78.0637 81.01 77.8293 80.8558Z" fill="url(#paint18_linear_13_3552)"/>
<path d="M79.3335 75.5237C77.5916 74.2218 75.6938 72.9841 73.814 71.888C73.7323 71.8406 73.624 71.9538 73.7068 72.024C75.4001 73.3794 77.2336 74.6998 79.0765 75.8546C79.2812 75.9817 79.5452 75.6789 79.3391 75.5234L79.3335 75.5237Z" fill="url(#paint19_linear_13_3552)"/>
<path d="M83.2915 71.4201C81.4426 70.0151 79.5554 68.5207 77.5313 67.3743C77.4846 67.3481 77.4363 67.4073 77.4721 67.4455C79.1488 69.0522 81.1159 70.4347 82.9859 71.8046C83.2151 71.9704 83.5215 71.6029 83.2861 71.4261L83.2915 71.4201Z" fill="url(#paint20_linear_13_3552)"/>
<path d="M80.5268 66.2315C80.3919 66.141 80.22 66.3484 80.3551 66.4446C81.4999 67.2449 82.6552 68.0277 83.8271 68.7984C83.9384 68.8729 84.0891 68.695 83.9718 68.6151C82.8321 67.8031 81.6875 67.0084 80.5268 66.2315Z" fill="url(#paint21_linear_13_3552)"/>
<path d="M87.2275 66.1218C85.3651 64.6718 83.4333 63.3162 81.507 61.9546C81.4072 61.8853 81.2781 62.0394 81.3785 62.1201C83.2408 63.5701 85.1032 65.0201 87.0239 66.3819C87.1766 66.4886 87.3866 66.2453 87.2277 66.1275L87.2275 66.1218Z" fill="url(#paint22_linear_13_3552)"/>
<path d="M88.9591 62.2481C87.3269 61.1062 85.5879 60.1059 83.8869 59.0697C83.8109 59.022 83.7085 59.1407 83.7905 59.1938C85.4167 60.3303 87.0224 61.5134 88.7231 62.5439C88.91 62.6547 89.1527 62.3814 88.9591 62.2481Z" fill="url(#paint23_linear_13_3552)"/>
<path d="M92.951 57.2945C90.3649 56.1518 88.3479 54.7945 86.4 52.7335C86.197 52.521 85.807 52.8012 85.9947 53.0487C87.6422 55.2433 90.0499 57.0606 92.6474 57.9636C93.0571 58.1038 93.3801 57.4851 92.951 57.2945Z" fill="url(#paint24_linear_13_3552)"/>
<path d="M96.0601 52.4052C94.0952 51.5522 92.4221 50.8677 90.921 49.2527C90.6641 48.98 90.1594 49.3568 90.4115 49.6468C91.7749 51.2341 93.7263 52.7653 95.8477 53.0814C96.2251 53.1377 96.4313 52.57 96.0601 52.4052Z" fill="url(#paint25_linear_13_3552)"/>
<path d="M100.365 45.535C98.0698 44.5381 96.4033 43.6312 94.7505 41.6874C94.5702 41.4738 94.2533 41.7392 94.3832 41.9665C95.5457 43.9904 97.8229 45.8081 100.177 46.1133C100.502 46.1549 100.678 45.674 100.36 45.5353L100.365 45.535Z" fill="url(#paint26_linear_13_3552)"/>
<path d="M103.883 37.7508C101.765 37.0075 99.9539 35.9309 98.4983 34.1942C98.2999 33.9587 97.8831 34.2743 98.0818 34.5155C99.5175 36.3102 101.352 37.7615 103.543 38.4899C103.993 38.6396 104.374 37.9214 103.883 37.7508Z" fill="url(#paint27_linear_13_3552)"/>
<path d="M107.521 31.3048C106.688 30.598 105.648 30.1059 104.708 29.5578C103.856 29.0626 103.02 28.5495 102.136 28.1127C101.892 27.9932 101.644 28.3807 101.867 28.5524C103.44 29.7541 105.306 31.1697 107.126 31.9555C107.503 32.12 107.835 31.5691 107.527 31.3046L107.521 31.3048Z" fill="url(#paint28_linear_13_3552)"/>
<path d="M110.89 23.4821C110.261 22.891 109.344 22.5867 108.571 22.2187C107.688 21.7989 106.815 21.3388 105.881 21.0467C105.662 20.9773 105.443 21.2723 105.644 21.4337C106.405 22.03 107.283 22.4785 108.123 22.9515C108.875 23.3774 109.646 23.9449 110.495 24.1327C110.879 24.2172 111.217 23.7857 110.896 23.4818L110.89 23.4821Z" fill="url(#paint29_linear_13_3552)"/>
<path d="M110.967 17.4995C110.441 17.1712 109.92 16.8369 109.393 16.5029C109.048 16.2856 108.622 16.7782 108.953 17.0588C109.421 17.4582 109.894 17.8631 110.361 18.2625C110.787 18.624 111.203 19.1341 111.76 19.2617C112.196 19.3608 112.568 18.9504 112.339 18.5398C112.06 18.0461 111.435 17.7907 110.967 17.4995Z" fill="url(#paint30_linear_13_3552)"/>
<path d="M115.063 15.6046C113.74 14.6303 112.14 13.9367 110.69 13.1678C110.335 12.9794 109.864 13.4799 110.24 13.7356C111.629 14.6668 113.015 15.7577 114.525 16.4783C115.001 16.7065 115.505 15.9426 115.057 15.6105L115.063 15.6046Z" fill="url(#paint31_linear_13_3552)"/>
<path d="M114.34 11.5785C113.727 11.0891 113.113 10.594 112.499 10.099C112.192 9.85146 111.795 10.3484 112.086 10.6252C112.645 11.157 113.204 11.6888 113.763 12.2206C114.25 12.6931 114.731 13.257 115.32 13.5938C115.688 13.8043 116.241 13.374 115.945 12.9779C115.52 12.4113 114.894 12.0137 114.34 11.5728L114.34 11.5785Z" fill="url(#paint32_linear_13_3552)"/>
<path d="M115.17 6.14701C114.742 5.87667 114.204 6.49986 114.623 6.83324C115.809 7.78544 117.077 9.03557 118.495 9.61811C118.86 9.76612 119.319 9.26056 119.042 8.93757C118.045 7.77152 116.446 6.96401 115.17 6.14701Z" fill="url(#paint33_linear_13_3552)"/>
<path d="M117.668 6.01832C117.445 5.74408 116.979 6.10192 117.185 6.38832C117.507 6.84013 117.829 7.28625 118.179 7.714C118.42 8.01017 118.913 7.62828 118.688 7.31994C118.366 6.87382 118.011 6.44634 117.662 6.01859L117.668 6.01832Z" fill="url(#paint34_linear_13_3552)"/>
<path d="M106.559 11.2833C106.634 10.8413 106.61 10.4552 106.547 10.0653C97.7251 12.0455 91.0218 19.7173 85.1131 26.0535C77.1287 34.6169 69.3224 43.3484 61.7414 52.28C46.5849 70.1429 32.3567 88.788 19.0267 108.063C13.348 116.273 6.10514 125.513 6.04057 135.988C6.03718 136.279 6.49423 136.217 6.53348 135.965C6.5768 135.678 6.63198 135.402 6.67529 135.116C8.10896 137.11 10.7363 135.261 12.2648 133.953C16.4354 130.387 20.5871 126.781 24.6258 123.066C24.8763 122.838 24.5973 122.458 24.3295 122.682C21.7263 124.803 19.1536 126.968 16.6052 129.166C14.8478 130.677 9.63154 136.765 6.73727 134.743C8.42105 125.376 13.5405 117.71 18.8358 109.922C25.0181 100.829 31.4294 91.8951 38.0642 83.1275C51.2162 65.7458 65.1548 48.9138 79.9501 32.9127C87.5802 24.6621 95.1619 15.1383 106.074 11.494C102.576 21.8682 96.4973 31.0025 90.4019 40.0124C83.9561 49.5399 77.2465 58.8918 70.3249 68.0829C56.4656 86.4828 41.4193 103.788 26.5026 121.315C26.465 121.363 26.5352 121.405 26.5729 121.363C39.3586 108.515 51.0533 94.4414 62.269 80.2028C73.4739 65.9762 84.1362 51.3194 94.1947 36.2583C99.1127 28.8981 103.748 21.3177 106.925 13.0371C106.578 12.5466 106.44 11.8925 106.547 11.2839L106.559 11.2833Z" fill="url(#paint35_linear_13_3552)"/>
<path d="M87.219 32.3265C73.1052 41.0752 61.8032 53.7177 54.7315 68.781C53.9729 70.3996 56.05 71.3441 57.2241 70.3494C58.6466 69.9296 59.1838 70.8496 58.847 73.109C58.4958 73.9739 58.0397 74.7811 57.4782 75.5193C56.6822 76.7069 55.7288 77.8051 54.8622 78.9391L48.9051 86.6613C45.2014 91.4647 41.4861 96.263 37.7945 101.083C36.5642 102.695 33.7085 107.903 31.5539 108.209C27.8141 108.738 30.8849 104.363 31.3845 103.514C32.0469 102.383 32.7206 101.253 33.3889 100.128C36.4609 94.933 39.9701 89.6149 42.1171 83.945C42.233 83.6321 41.7315 83.4734 41.5482 83.6813C38.019 87.6053 35.2205 92.3377 32.3851 96.7701C30.5124 99.6938 26.5681 103.848 26.7032 107.571C26.7995 110.226 29.1828 111.646 31.6201 111.07C35.2875 110.209 37.5712 106.121 39.7023 103.379C46.3473 94.8275 53.1319 86.349 59.5709 77.6418C61.2901 75.3175 63.3425 71.9868 61.2315 69.2331C60.5359 68.3262 59.6349 67.7592 58.6762 67.5366C64.5185 55.9192 72.9325 45.8608 83.3116 38.1132C80.4601 42.5634 77.6377 47.0293 74.6869 51.4215C73.9123 52.5797 75.9622 53.4287 76.6726 52.3532C80.7474 46.143 85.0518 40.1042 89.1738 33.9316C89.9644 32.75 88.1959 31.7283 87.2249 32.332L87.219 32.3265Z" fill="url(#paint36_linear_13_3552)"/>
<path d="M80.9236 35.8679C75.6856 41.8537 70.9908 48.4063 66.0721 54.6618C61.143 60.9406 56.1968 67.2146 51.2796 73.5042C46.4961 79.6167 41.7422 85.7563 36.9708 91.8854C32.2153 97.9909 27.1219 104.033 22.9071 110.528C22.7853 110.716 23.0936 110.873 23.2289 110.73C28.6815 104.962 33.4793 98.427 38.4229 92.2158C43.3988 85.969 48.3869 79.7386 53.3394 73.4758C58.1523 67.3847 62.9593 61.2881 67.7722 55.197C72.6062 49.0707 77.7706 43.0883 82.2694 36.7158C82.8072 35.956 81.4678 35.2445 80.9236 35.8679Z" fill="url(#paint37_linear_13_3552)"/>
<path d="M86.8183 33.5867C83.8524 36.4479 81.4631 40.1019 78.9006 43.3313C76.2949 46.6083 73.6949 49.8851 71.0895 53.1678C65.7445 59.8989 60.3933 66.6189 55.0896 73.3822C50.15 79.6786 45.2282 85.9912 40.3302 92.3255C35.1803 98.9792 29.2437 105.567 25.0388 112.877C24.9864 112.97 25.1259 113.038 25.1909 112.972C31.1923 107.281 36.1563 100.175 41.3449 93.7413C46.7433 87.059 52.118 80.3549 57.4749 73.6347C62.6922 67.0861 67.8623 60.4998 73.0383 53.919C75.6265 50.6314 78.2143 47.3382 80.8082 44.0504C83.2675 40.9226 86.1626 37.8825 88.1818 34.4509C88.6762 33.6134 87.4105 33.018 86.8185 33.5924L86.8183 33.5867Z" fill="url(#paint38_linear_13_3552)"/>
<defs>
<linearGradient id="paint0_linear_13_3552" x1="267" y1="-127" x2="-57.6764" y2="214.053" gradientUnits="userSpaceOnUse">
<stop stop-color="#FFFBF1"/>
<stop offset="1" stop-color="#F8B500"/>
</linearGradient>
<linearGradient id="paint1_linear_13_3552" x1="267" y1="-127" x2="-57.6764" y2="214.053" gradientUnits="userSpaceOnUse">
<stop stop-color="#FFFBF1"/>
<stop offset="1" stop-color="#F8B500"/>
</linearGradient>
<linearGradient id="paint2_linear_13_3552" x1="267" y1="-127" x2="-57.6764" y2="214.053" gradientUnits="userSpaceOnUse">
<stop stop-color="#FFFBF1"/>
<stop offset="1" stop-color="#F8B500"/>
</linearGradient>
<linearGradient id="paint3_linear_13_3552" x1="267" y1="-127" x2="-57.6764" y2="214.053" gradientUnits="userSpaceOnUse">
<stop stop-color="#FFFBF1"/>
<stop offset="1" stop-color="#F8B500"/>
</linearGradient>
<linearGradient id="paint4_linear_13_3552" x1="267" y1="-127" x2="-57.6764" y2="214.053" gradientUnits="userSpaceOnUse">
<stop stop-color="#FFFBF1"/>
<stop offset="1" stop-color="#F8B500"/>
</linearGradient>
<linearGradient id="paint5_linear_13_3552" x1="267" y1="-127" x2="-57.6764" y2="214.053" gradientUnits="userSpaceOnUse">
<stop stop-color="#FFFBF1"/>
<stop offset="1" stop-color="#F8B500"/>
</linearGradient>
<linearGradient id="paint6_linear_13_3552" x1="267" y1="-127" x2="-57.6764" y2="214.053" gradientUnits="userSpaceOnUse">
<stop stop-color="#FFFBF1"/>
<stop offset="1" stop-color="#F8B500"/>
</linearGradient>
<linearGradient id="paint7_linear_13_3552" x1="267" y1="-127" x2="-57.6764" y2="214.053" gradientUnits="userSpaceOnUse">
<stop stop-color="#FFFBF1"/>
<stop offset="1" stop-color="#F8B500"/>
</linearGradient>
<linearGradient id="paint8_linear_13_3552" x1="267" y1="-127" x2="-57.6764" y2="214.053" gradientUnits="userSpaceOnUse">
<stop stop-color="#FFFBF1"/>
<stop offset="1" stop-color="#F8B500"/>
</linearGradient>
<linearGradient id="paint9_linear_13_3552" x1="267" y1="-127" x2="-57.6764" y2="214.053" gradientUnits="userSpaceOnUse">
<stop stop-color="#FFFBF1"/>
<stop offset="1" stop-color="#F8B500"/>
</linearGradient>
<linearGradient id="paint10_linear_13_3552" x1="267" y1="-127" x2="-57.6764" y2="214.053" gradientUnits="userSpaceOnUse">
<stop stop-color="#FFFBF1"/>
<stop offset="1" stop-color="#F8B500"/>
</linearGradient>
<linearGradient id="paint11_linear_13_3552" x1="267" y1="-127" x2="-57.6764" y2="214.053" gradientUnits="userSpaceOnUse">
<stop stop-color="#FFFBF1"/>
<stop offset="1" stop-color="#F8B500"/>
</linearGradient>
<linearGradient id="paint12_linear_13_3552" x1="267" y1="-127" x2="-57.6764" y2="214.053" gradientUnits="userSpaceOnUse">
<stop stop-color="#FFFBF1"/>
<stop offset="1" stop-color="#F8B500"/>
</linearGradient>
<linearGradient id="paint13_linear_13_3552" x1="267" y1="-127" x2="-57.6764" y2="214.053" gradientUnits="userSpaceOnUse">
<stop stop-color="#FFFBF1"/>
<stop offset="1" stop-color="#F8B500"/>
</linearGradient>
<linearGradient id="paint14_linear_13_3552" x1="267" y1="-127" x2="-57.6764" y2="214.053" gradientUnits="userSpaceOnUse">
<stop stop-color="#FFFBF1"/>
<stop offset="1" stop-color="#F8B500"/>
</linearGradient>
<linearGradient id="paint15_linear_13_3552" x1="267" y1="-127" x2="-57.6764" y2="214.053" gradientUnits="userSpaceOnUse">
<stop stop-color="#FFFBF1"/>
<stop offset="1" stop-color="#F8B500"/>
</linearGradient>
<linearGradient id="paint16_linear_13_3552" x1="267" y1="-127" x2="-57.6764" y2="214.053" gradientUnits="userSpaceOnUse">
<stop stop-color="#FFFBF1"/>
<stop offset="1" stop-color="#F8B500"/>
</linearGradient>
<linearGradient id="paint17_linear_13_3552" x1="267" y1="-127" x2="-57.6764" y2="214.053" gradientUnits="userSpaceOnUse">
<stop stop-color="#FFFBF1"/>
<stop offset="1" stop-color="#F8B500"/>
</linearGradient>
<linearGradient id="paint18_linear_13_3552" x1="267" y1="-127" x2="-57.6764" y2="214.053" gradientUnits="userSpaceOnUse">
<stop stop-color="#FFFBF1"/>
<stop offset="1" stop-color="#F8B500"/>
</linearGradient>
<linearGradient id="paint19_linear_13_3552" x1="267" y1="-127" x2="-57.6764" y2="214.053" gradientUnits="userSpaceOnUse">
<stop stop-color="#FFFBF1"/>
<stop offset="1" stop-color="#F8B500"/>
</linearGradient>
<linearGradient id="paint20_linear_13_3552" x1="267" y1="-127" x2="-57.6764" y2="214.053" gradientUnits="userSpaceOnUse">
<stop stop-color="#FFFBF1"/>
<stop offset="1" stop-color="#F8B500"/>
</linearGradient>
<linearGradient id="paint21_linear_13_3552" x1="267" y1="-127" x2="-57.6764" y2="214.053" gradientUnits="userSpaceOnUse">
<stop stop-color="#FFFBF1"/>
<stop offset="1" stop-color="#F8B500"/>
</linearGradient>
<linearGradient id="paint22_linear_13_3552" x1="267" y1="-127" x2="-57.6764" y2="214.053" gradientUnits="userSpaceOnUse">
<stop stop-color="#FFFBF1"/>
<stop offset="1" stop-color="#F8B500"/>
</linearGradient>
<linearGradient id="paint23_linear_13_3552" x1="267" y1="-127" x2="-57.6764" y2="214.053" gradientUnits="userSpaceOnUse">
<stop stop-color="#FFFBF1"/>
<stop offset="1" stop-color="#F8B500"/>
</linearGradient>
<linearGradient id="paint24_linear_13_3552" x1="267" y1="-127" x2="-57.6764" y2="214.053" gradientUnits="userSpaceOnUse">
<stop stop-color="#FFFBF1"/>
<stop offset="1" stop-color="#F8B500"/>
</linearGradient>
<linearGradient id="paint25_linear_13_3552" x1="267" y1="-127" x2="-57.6764" y2="214.053" gradientUnits="userSpaceOnUse">
<stop stop-color="#FFFBF1"/>
<stop offset="1" stop-color="#F8B500"/>
</linearGradient>
<linearGradient id="paint26_linear_13_3552" x1="267" y1="-127" x2="-57.6764" y2="214.053" gradientUnits="userSpaceOnUse">
<stop stop-color="#FFFBF1"/>
<stop offset="1" stop-color="#F8B500"/>
</linearGradient>
<linearGradient id="paint27_linear_13_3552" x1="267" y1="-127" x2="-57.6764" y2="214.053" gradientUnits="userSpaceOnUse">
<stop stop-color="#FFFBF1"/>
<stop offset="1" stop-color="#F8B500"/>
</linearGradient>
<linearGradient id="paint28_linear_13_3552" x1="267" y1="-127" x2="-57.6764" y2="214.053" gradientUnits="userSpaceOnUse">
<stop stop-color="#FFFBF1"/>
<stop offset="1" stop-color="#F8B500"/>
</linearGradient>
<linearGradient id="paint29_linear_13_3552" x1="267" y1="-127" x2="-57.6764" y2="214.053" gradientUnits="userSpaceOnUse">
<stop stop-color="#FFFBF1"/>
<stop offset="1" stop-color="#F8B500"/>
</linearGradient>
<linearGradient id="paint30_linear_13_3552" x1="267" y1="-127" x2="-57.6764" y2="214.053" gradientUnits="userSpaceOnUse">
<stop stop-color="#FFFBF1"/>
<stop offset="1" stop-color="#F8B500"/>
</linearGradient>
<linearGradient id="paint31_linear_13_3552" x1="267" y1="-127" x2="-57.6764" y2="214.053" gradientUnits="userSpaceOnUse">
<stop stop-color="#FFFBF1"/>
<stop offset="1" stop-color="#F8B500"/>
</linearGradient>
<linearGradient id="paint32_linear_13_3552" x1="267" y1="-127" x2="-57.6764" y2="214.053" gradientUnits="userSpaceOnUse">
<stop stop-color="#FFFBF1"/>
<stop offset="1" stop-color="#F8B500"/>
</linearGradient>
<linearGradient id="paint33_linear_13_3552" x1="267" y1="-127" x2="-57.6764" y2="214.053" gradientUnits="userSpaceOnUse">
<stop stop-color="#FFFBF1"/>
<stop offset="1" stop-color="#F8B500"/>
</linearGradient>
<linearGradient id="paint34_linear_13_3552" x1="267" y1="-127" x2="-57.6764" y2="214.053" gradientUnits="userSpaceOnUse">
<stop stop-color="#FFFBF1"/>
<stop offset="1" stop-color="#F8B500"/>
</linearGradient>
<linearGradient id="paint35_linear_13_3552" x1="267" y1="-127" x2="-57.6764" y2="214.053" gradientUnits="userSpaceOnUse">
<stop stop-color="#FFFBF1"/>
<stop offset="1" stop-color="#F8B500"/>
</linearGradient>
<linearGradient id="paint36_linear_13_3552" x1="267" y1="-127" x2="-57.6764" y2="214.053" gradientUnits="userSpaceOnUse">
<stop stop-color="#FFFBF1"/>
<stop offset="1" stop-color="#F8B500"/>
</linearGradient>
<linearGradient id="paint37_linear_13_3552" x1="267" y1="-127" x2="-57.6764" y2="214.053" gradientUnits="userSpaceOnUse">
<stop stop-color="#FFFBF1"/>
<stop offset="1" stop-color="#F8B500"/>
</linearGradient>
<linearGradient id="paint38_linear_13_3552" x1="267" y1="-127" x2="-57.6764" y2="214.053" gradientUnits="userSpaceOnUse">
<stop stop-color="#FFFBF1"/>
<stop offset="1" stop-color="#F8B500"/>
</linearGradient>
</defs>
</svg>
