<svg width="44" height="61" viewBox="0 0 44 61" fill="none" xmlns="http://www.w3.org/2000/svg">
<path d="M27.7066 60.7385C28.1948 60.844 28.683 60.9266 29.176 61C29.3211 60.9817 29.4612 60.9679 29.6063 60.9495C29.6063 60.9495 29.5724 60.9495 29.5531 60.945C29.5773 60.945 29.6063 60.945 29.6304 60.945C31.3175 60.7706 33.019 60.6697 34.7205 60.5551C36.277 60.1193 37.7948 59.5321 39.2643 58.8303C41.8408 56.1652 43.2958 52.5505 43.7695 48.9588C44.074 46.6744 44.045 44.3671 43.8662 42.0735C43.8662 42.0185 43.8662 41.9634 43.8662 41.9084C43.726 34.0598 42.3097 25.9864 39.5399 18.5782C37.1858 12.2938 33.8359 5.54159 27.4117 2.17922C22.9065 -0.173975 17.3234 -0.632688 12.4267 0.85813C12.3397 0.885653 12.2575 0.908588 12.1705 0.940698C10.9379 1.33519 9.74874 1.85354 8.63695 2.50032C8.33242 2.67922 8.03755 2.86729 7.74752 3.05995C6.52938 3.84435 5.44176 4.7893 4.49916 5.86269C4.45565 5.91315 4.40732 5.95902 4.36381 6.00948C4.36381 6.00948 4.35414 6.01865 4.35414 6.02324C1.48766 9.26634 -0.0833463 13.4865 0.0278326 17.7296C-0.122017 20.9773 0.346868 24.2708 1.10578 27.4451C1.40548 28.6974 1.73419 29.9451 2.09189 31.1882C3.70157 38.5827 6.16684 45.7386 11.4599 51.6698C15.6316 56.3395 21.4467 59.7798 27.7017 60.7385H27.7066ZM26.1162 2.53702C28.6153 3.6838 30.6649 5.35811 32.3712 7.33516C30.7036 5.64251 28.7748 4.15628 26.5319 2.95904C25.2413 2.27097 23.8588 1.71592 22.428 1.31684C23.6993 1.59666 24.9416 2.00033 26.1162 2.53702ZM11.3632 50.0092C11.049 49.6239 10.7445 49.2294 10.4448 48.8349C9.89376 48.0781 9.36686 47.3028 8.87381 46.5138C6.046 41.9955 4.12212 37.0185 2.58978 31.9864C2.50761 31.7112 2.42543 31.4359 2.34325 31.1607C1.69552 28.702 1.16863 26.225 0.738411 23.7754C0.738411 23.7571 0.694906 23.7571 0.69974 23.7754C0.91243 25.0369 1.12995 26.2984 1.36681 27.5552C0.752913 25.0277 0.313031 22.4589 0.230855 19.8855C0.284028 20.2021 0.342034 20.514 0.409708 20.8259C0.438711 20.9589 0.685239 20.9635 0.661069 20.8167C-0.155854 15.4452 1.71485 9.79386 5.66412 5.86728C2.80247 9.94524 2.4351 15.225 2.84114 19.9773C3.73541 30.3717 7.81036 40.4634 14.4376 48.7707C14.5681 48.9313 14.8775 48.7845 14.7421 48.601C8.95598 40.8763 5.06956 31.9359 3.71124 22.5323C2.97166 17.3947 2.7058 11.7067 5.34992 6.99112C5.83331 6.13333 6.41337 5.33058 7.07561 4.60582C7.14812 4.54618 7.22063 4.48655 7.29797 4.42692C10.6188 1.88106 14.9306 0.702167 19.1699 0.894827C20.6829 1.07373 22.1766 1.41317 23.5929 1.90858C28.1996 3.51867 31.7428 6.48195 34.4498 10.1195C35.9725 12.4636 37.1664 15.0324 38.1574 17.5461C40.7435 24.1011 42.4305 30.8671 42.9381 37.8579C43.4408 44.7753 44.1562 55.2661 36.9054 59.2661C35.4987 59.5046 34.1018 59.7018 32.6274 59.656C30.3942 59.5918 28.1754 59.1514 26.1162 58.3257C22.486 56.8716 19.315 54.2478 17.2026 51.101C17.1929 51.0872 17.1687 51.101 17.1736 51.1102C19.2134 54.6927 22.3168 57.4404 26.3241 58.9679C27.7307 59.5046 29.3162 59.9083 30.9501 60.1285C23.3029 59.9954 16.1149 55.8028 11.3584 50.0138L11.3632 50.0092Z" fill="url(#paint0_linear_13_3511)"/>
<path d="M29.5723 58.2845C25.0574 57.0918 20.9052 54.312 18.8314 50.2295C18.8218 50.2111 18.7831 50.2203 18.7976 50.2386C20.8858 54.4588 24.5741 57.679 29.5191 58.5414C29.7125 58.5735 29.7608 58.3349 29.5771 58.2845H29.5723Z" fill="url(#paint1_linear_13_3511)"/>
<path d="M39.3464 54.9863C37.814 57.8074 34.9475 59.1698 31.6557 58.4634C31.6412 58.4634 31.6315 58.4817 31.646 58.4863C34.8074 59.6147 38.4666 58.1652 39.6992 55.1469C39.7814 54.9405 39.4527 54.7937 39.3464 54.9863Z" fill="url(#paint2_linear_13_3511)"/>
<path d="M41.8696 35.0461C41.2026 29.1057 39.8974 22.7663 37.1034 17.3673C37.0116 17.1884 36.6732 17.248 36.7506 17.4636C38.805 23.2801 40.7917 28.9222 41.5216 35.0598C42.237 41.0919 42.063 47.2524 41.0672 53.2478C41.0672 53.2616 41.0866 53.2661 41.0914 53.2524C42.2902 47.2295 42.5609 41.1469 41.8745 35.0461H41.8696Z" fill="url(#paint3_linear_13_3511)"/>
<path d="M26.643 3.8077C26.4931 3.72972 26.3046 3.93155 26.4641 4.03706C30.5487 6.73429 33.7584 10.1746 35.663 14.5875C35.6678 14.6012 35.6871 14.5966 35.6823 14.5829C34.1645 10.1196 31.0079 6.12879 26.643 3.81229V3.8077Z" fill="url(#paint4_linear_13_3511)"/>
<path d="M25.6762 3.19303C17.9758 -2.03172 6.54857 3.44073 5.63497 12.0921C5.63497 12.1058 5.65431 12.1104 5.65914 12.0921C6.60174 8.12878 9.11535 4.66549 13.0018 2.83523C17.1637 0.876524 21.4804 1.53707 25.4973 3.41321C25.6472 3.48201 25.8357 3.29394 25.6762 3.18385V3.19303Z" fill="url(#paint5_linear_13_3511)"/>
<path d="M18.4737 49.9038C10.8604 38.9314 6.34071 26.8076 5.30627 13.6792C5.30627 13.6654 5.2821 13.6654 5.2821 13.6792C5.62047 26.5232 10.1498 39.6745 18.1305 50.0919C18.2707 50.2753 18.6187 50.1148 18.4689 49.9038H18.4737Z" fill="url(#paint6_linear_13_3511)"/>
<path d="M4.3685 8.11502C3.77393 8.37648 3.08752 8.60125 2.55096 8.95905C2.48812 9.00033 2.54129 9.09208 2.6138 9.06455C3.23737 8.85355 3.82227 8.45446 4.39267 8.13795C4.41684 8.12419 4.39267 8.10126 4.37333 8.11043L4.3685 8.11502Z" fill="url(#paint7_linear_13_3511)"/>
<path d="M3.20353 11.2113C2.53163 11.6792 1.72437 12.0141 1.11047 12.5554C1.00896 12.6425 1.16848 12.7664 1.26515 12.7113C1.98057 12.3214 2.5558 11.7022 3.22287 11.2389C3.24221 11.2251 3.22287 11.1976 3.20353 11.2113Z" fill="url(#paint8_linear_13_3511)"/>
<path d="M2.83133 14.7388C2.46879 14.9407 2.13525 15.1746 1.79688 15.4131C1.49718 15.6241 1.13947 15.826 0.89778 16.0966C0.767266 16.2388 0.975122 16.4269 1.13464 16.3352C1.45851 16.1517 1.72437 15.8581 1.99507 15.6104C2.29477 15.3352 2.58963 15.0645 2.8555 14.7618C2.86516 14.748 2.85066 14.7342 2.83616 14.7434L2.83133 14.7388Z" fill="url(#paint9_linear_13_3511)"/>
<path d="M2.64764 18.6654C2.27543 18.9085 1.89839 19.1517 1.52618 19.3948C1.18781 19.6104 0.796269 19.8076 0.520739 20.0966C0.395058 20.2296 0.593247 20.3902 0.738263 20.3122C1.09597 20.1287 1.39083 19.8168 1.69537 19.5645C2.02891 19.2847 2.36728 19.0003 2.70081 18.7205C2.73465 18.6929 2.68148 18.6471 2.64764 18.67V18.6654Z" fill="url(#paint10_linear_13_3511)"/>
<path d="M3.22287 22.4681C2.78782 22.6012 2.41078 22.9406 2.05307 23.2021C1.6857 23.4681 1.22648 23.7158 0.941285 24.0599C0.810771 24.2158 1.01379 24.381 1.18298 24.303C1.60352 24.1012 1.95156 23.7388 2.30444 23.4498C2.63797 23.1792 3.07302 22.8993 3.28571 22.5278C3.30505 22.4957 3.26154 22.4636 3.2277 22.4727L3.22287 22.4681Z" fill="url(#paint11_linear_13_3511)"/>
<path d="M3.83677 27.9177C3.4839 28.069 3.1697 28.2525 2.84583 28.4498C2.55096 28.6287 2.23676 28.7938 1.97573 29.0094C1.83072 29.1287 2.05307 29.2984 2.19326 29.225C2.49779 29.0644 2.76365 28.8397 3.03918 28.6378C3.33405 28.4222 3.61925 28.2112 3.87544 27.9498C3.89961 27.9268 3.86094 27.9039 3.84161 27.9131L3.83677 27.9177Z" fill="url(#paint12_linear_13_3511)"/>
<path d="M5.21926 31.7066C4.33466 32.3121 3.35338 33.014 2.63797 33.7984C2.52679 33.9222 2.71048 34.0965 2.84583 34.0048C3.72559 33.3947 4.55218 32.5323 5.25793 31.7479C5.27726 31.725 5.24343 31.6883 5.21926 31.7066Z" fill="url(#paint13_linear_13_3511)"/>
<path d="M7.95039 37.0782C7.54435 37.2341 7.14797 37.4084 6.75643 37.5919C6.36972 37.7708 5.925 37.9314 5.59147 38.1928C5.45612 38.2983 5.64464 38.4727 5.77515 38.4314C6.16186 38.3075 6.51957 38.0598 6.86277 37.8534C7.24465 37.624 7.62169 37.3947 7.98906 37.147C8.02773 37.124 7.9939 37.0644 7.95039 37.0827V37.0782Z" fill="url(#paint14_linear_13_3511)"/>
<path d="M9.4924 41.9268C8.37577 41.9176 7.18181 42.2937 6.09902 42.5185C6.06518 42.5277 6.07969 42.5735 6.11352 42.569C7.22048 42.4635 8.48695 42.4726 9.54557 42.1332C9.68092 42.0873 9.62291 41.9268 9.4924 41.9268Z" fill="url(#paint15_linear_13_3511)"/>
<path d="M12.1462 46.491C11.0489 46.5689 9.89361 46.8166 8.84949 47.1286C8.79632 47.1469 8.81565 47.2157 8.86883 47.2111C9.96611 47.1699 11.1504 47.0277 12.209 46.7433C12.3782 46.6974 12.3057 46.4726 12.1462 46.4864V46.491Z" fill="url(#paint16_linear_13_3511)"/>
<path d="M16.3807 50.4634C15.8054 50.5001 15.235 50.6469 14.6743 50.7799C14.1426 50.9038 13.5528 50.9955 13.0791 51.257C13.0695 51.2616 13.0743 51.2799 13.0743 51.2799C13.6399 51.3304 14.2151 51.1974 14.7613 51.1102C15.3269 51.0185 15.9166 50.9451 16.458 50.7616C16.6417 50.6974 16.5788 50.4542 16.3855 50.468L16.3807 50.4634Z" fill="url(#paint17_linear_13_3511)"/>
<path d="M19.9577 54.1377C18.5366 54.0872 16.8834 54.2432 15.5057 54.5689C15.4574 54.5781 15.4671 54.6469 15.5154 54.6515C16.9511 54.7937 18.6284 54.7386 20.0496 54.5047C20.3106 54.4634 20.1704 54.1423 19.9577 54.1377Z" fill="url(#paint18_linear_13_3511)"/>
<path d="M23.0466 56.7615C21.5916 56.4313 20.0012 56.6193 18.5946 57.0689C18.377 57.1377 18.5124 57.3946 18.7106 57.3533C20.1704 57.0505 21.5432 57.0597 23.0272 57.101C23.2592 57.1102 23.2544 56.8074 23.0466 56.7615Z" fill="url(#paint19_linear_13_3511)"/>
<path d="M25.6713 58.9358C24.6514 58.8258 23.6121 58.6927 22.5825 58.7065C22.4037 58.7065 22.394 58.945 22.568 58.9725C23.5831 59.1331 24.6321 59.1514 25.6568 59.1881C25.826 59.1927 25.8357 58.9496 25.6713 58.9358Z" fill="url(#paint20_linear_13_3511)"/>
<path d="M29.2484 60.2294C28.8134 60.2202 28.3783 60.2294 27.9433 60.2432C27.7161 60.2523 27.7547 60.5505 27.9723 60.5459C28.4073 60.5368 28.8424 60.523 29.2774 60.4909C29.4756 60.4771 29.4418 60.2294 29.2532 60.2294H29.2484Z" fill="url(#paint21_linear_13_3511)"/>
<path d="M37.553 33.3534C36.4509 30.28 34.6575 27.3901 31.7379 25.5874C28.3783 23.5094 25.4248 24.0003 21.7317 24.7342C18.4012 25.3993 16.1631 24.2892 15.1577 21.2205C14.4278 18.9865 14.6888 16.2893 15.8199 14.2159C18.7348 8.87648 26.7348 8.78015 28.504 14.9682C28.6007 15.3031 29.2339 15.248 29.2194 14.8856C28.9535 8.64254 20.7698 7.17007 16.3468 10.6655C11.8658 14.2021 10.9957 22.9039 16.4338 26.1149C19.8369 28.1241 23.0369 25.7663 26.5801 25.936C32.2019 26.2021 34.9524 31.8488 36.0738 36.335C36.7119 38.8717 37.1228 41.7295 36.0013 44.2066C34.6865 47.1102 31.6267 48.5368 28.475 47.2111C23.7426 45.2249 22.6792 39.9451 21.5287 35.6837C21.2484 34.6378 19.4888 35.0552 19.6677 36.1195C20.6586 42.046 23.9747 50.6974 32.0569 49.5827C40.173 48.4634 39.4962 38.7846 37.553 33.3534Z" fill="url(#paint22_linear_13_3511)"/>
<path d="M31.2835 50.8579C30.7953 47.3717 29.1614 43.9038 28.0158 40.5644L24.2164 29.5186C22.9499 25.8351 21.6834 22.1516 20.3638 18.4819C19.194 15.2251 18.261 11.3856 16.0568 8.60125C15.9746 8.49575 15.7619 8.51868 15.7619 8.67006C15.6604 12.1012 17.3136 15.7067 18.377 18.9498C19.5903 22.647 20.852 26.3305 22.1136 30.014C23.3753 33.6974 24.6417 37.3809 25.9034 41.0644C27.0538 44.413 27.8901 48.1377 29.6545 51.2386C30.0025 51.8533 31.3995 51.6423 31.2883 50.8625L31.2835 50.8579Z" fill="url(#paint23_linear_13_3511)"/>
<path d="M36.9101 50.2616C34.4545 42.9038 31.7282 35.624 29.1082 28.3167C26.614 21.3718 24.3565 14.0875 20.7988 7.54621C20.7408 7.44071 20.5668 7.5141 20.5861 7.61961C21.9009 14.9865 24.8061 22.2113 27.2617 29.2892C29.7511 36.4497 32.1439 43.6469 34.7929 50.757C35.2134 51.8808 37.3161 51.4634 36.9101 50.257V50.2616Z" fill="url(#paint24_linear_13_3511)"/>
<defs>
<linearGradient id="paint0_linear_13_3511" x1="-11.7754" y1="-21.9125" x2="84.5653" y2="137.211" gradientUnits="userSpaceOnUse">
<stop stop-color="#FCEABB"/>
<stop offset="1" stop-color="#F8B500"/>
</linearGradient>
<linearGradient id="paint1_linear_13_3511" x1="-11.7754" y1="-21.9125" x2="84.5653" y2="137.211" gradientUnits="userSpaceOnUse">
<stop stop-color="#FCEABB"/>
<stop offset="1" stop-color="#F8B500"/>
</linearGradient>
<linearGradient id="paint2_linear_13_3511" x1="-11.7754" y1="-21.9125" x2="84.5653" y2="137.211" gradientUnits="userSpaceOnUse">
<stop stop-color="#FCEABB"/>
<stop offset="1" stop-color="#F8B500"/>
</linearGradient>
<linearGradient id="paint3_linear_13_3511" x1="-11.7754" y1="-21.9125" x2="84.5653" y2="137.211" gradientUnits="userSpaceOnUse">
<stop stop-color="#FCEABB"/>
<stop offset="1" stop-color="#F8B500"/>
</linearGradient>
<linearGradient id="paint4_linear_13_3511" x1="-11.7754" y1="-21.9125" x2="84.5653" y2="137.211" gradientUnits="userSpaceOnUse">
<stop stop-color="#FCEABB"/>
<stop offset="1" stop-color="#F8B500"/>
</linearGradient>
<linearGradient id="paint5_linear_13_3511" x1="-11.7754" y1="-21.9125" x2="84.5653" y2="137.211" gradientUnits="userSpaceOnUse">
<stop stop-color="#FCEABB"/>
<stop offset="1" stop-color="#F8B500"/>
</linearGradient>
<linearGradient id="paint6_linear_13_3511" x1="-11.7754" y1="-21.9125" x2="84.5653" y2="137.211" gradientUnits="userSpaceOnUse">
<stop stop-color="#FCEABB"/>
<stop offset="1" stop-color="#F8B500"/>
</linearGradient>
<linearGradient id="paint7_linear_13_3511" x1="-11.7754" y1="-21.9125" x2="84.5653" y2="137.211" gradientUnits="userSpaceOnUse">
<stop stop-color="#FCEABB"/>
<stop offset="1" stop-color="#F8B500"/>
</linearGradient>
<linearGradient id="paint8_linear_13_3511" x1="-11.7754" y1="-21.9125" x2="84.5653" y2="137.211" gradientUnits="userSpaceOnUse">
<stop stop-color="#FCEABB"/>
<stop offset="1" stop-color="#F8B500"/>
</linearGradient>
<linearGradient id="paint9_linear_13_3511" x1="-11.7754" y1="-21.9125" x2="84.5653" y2="137.211" gradientUnits="userSpaceOnUse">
<stop stop-color="#FCEABB"/>
<stop offset="1" stop-color="#F8B500"/>
</linearGradient>
<linearGradient id="paint10_linear_13_3511" x1="-11.7754" y1="-21.9125" x2="84.5653" y2="137.211" gradientUnits="userSpaceOnUse">
<stop stop-color="#FCEABB"/>
<stop offset="1" stop-color="#F8B500"/>
</linearGradient>
<linearGradient id="paint11_linear_13_3511" x1="-11.7754" y1="-21.9125" x2="84.5653" y2="137.211" gradientUnits="userSpaceOnUse">
<stop stop-color="#FCEABB"/>
<stop offset="1" stop-color="#F8B500"/>
</linearGradient>
<linearGradient id="paint12_linear_13_3511" x1="-11.7754" y1="-21.9125" x2="84.5653" y2="137.211" gradientUnits="userSpaceOnUse">
<stop stop-color="#FCEABB"/>
<stop offset="1" stop-color="#F8B500"/>
</linearGradient>
<linearGradient id="paint13_linear_13_3511" x1="-11.7754" y1="-21.9125" x2="84.5653" y2="137.211" gradientUnits="userSpaceOnUse">
<stop stop-color="#FCEABB"/>
<stop offset="1" stop-color="#F8B500"/>
</linearGradient>
<linearGradient id="paint14_linear_13_3511" x1="-11.7754" y1="-21.9125" x2="84.5653" y2="137.211" gradientUnits="userSpaceOnUse">
<stop stop-color="#FCEABB"/>
<stop offset="1" stop-color="#F8B500"/>
</linearGradient>
<linearGradient id="paint15_linear_13_3511" x1="-11.7754" y1="-21.9125" x2="84.5653" y2="137.211" gradientUnits="userSpaceOnUse">
<stop stop-color="#FCEABB"/>
<stop offset="1" stop-color="#F8B500"/>
</linearGradient>
<linearGradient id="paint16_linear_13_3511" x1="-11.7754" y1="-21.9125" x2="84.5653" y2="137.211" gradientUnits="userSpaceOnUse">
<stop stop-color="#FCEABB"/>
<stop offset="1" stop-color="#F8B500"/>
</linearGradient>
<linearGradient id="paint17_linear_13_3511" x1="-11.7754" y1="-21.9125" x2="84.5653" y2="137.211" gradientUnits="userSpaceOnUse">
<stop stop-color="#FCEABB"/>
<stop offset="1" stop-color="#F8B500"/>
</linearGradient>
<linearGradient id="paint18_linear_13_3511" x1="-11.7754" y1="-21.9125" x2="84.5653" y2="137.211" gradientUnits="userSpaceOnUse">
<stop stop-color="#FCEABB"/>
<stop offset="1" stop-color="#F8B500"/>
</linearGradient>
<linearGradient id="paint19_linear_13_3511" x1="-11.7754" y1="-21.9125" x2="84.5653" y2="137.211" gradientUnits="userSpaceOnUse">
<stop stop-color="#FCEABB"/>
<stop offset="1" stop-color="#F8B500"/>
</linearGradient>
<linearGradient id="paint20_linear_13_3511" x1="-11.7754" y1="-21.9125" x2="84.5653" y2="137.211" gradientUnits="userSpaceOnUse">
<stop stop-color="#FCEABB"/>
<stop offset="1" stop-color="#F8B500"/>
</linearGradient>
<linearGradient id="paint21_linear_13_3511" x1="-11.7754" y1="-21.9125" x2="84.5653" y2="137.211" gradientUnits="userSpaceOnUse">
<stop stop-color="#FCEABB"/>
<stop offset="1" stop-color="#F8B500"/>
</linearGradient>
<linearGradient id="paint22_linear_13_3511" x1="-11.7754" y1="-21.9125" x2="84.5653" y2="137.211" gradientUnits="userSpaceOnUse">
<stop stop-color="#FCEABB"/>
<stop offset="1" stop-color="#F8B500"/>
</linearGradient>
<linearGradient id="paint23_linear_13_3511" x1="-11.7754" y1="-21.9125" x2="84.5653" y2="137.211" gradientUnits="userSpaceOnUse">
<stop stop-color="#FCEABB"/>
<stop offset="1" stop-color="#F8B500"/>
</linearGradient>
<linearGradient id="paint24_linear_13_3511" x1="-11.7754" y1="-21.9125" x2="84.5653" y2="137.211" gradientUnits="userSpaceOnUse">
<stop stop-color="#FCEABB"/>
<stop offset="1" stop-color="#F8B500"/>
</linearGradient>
</defs>
</svg>
