<svg width="41" height="41" viewBox="0 0 41 41" fill="none" xmlns="http://www.w3.org/2000/svg">
<path d="M40.5898 17.1892L33.793 11.2408V8.48215C33.793 7.81866 33.2552 7.28076 32.5918 7.28076H29.312C29.2702 7.23919 22.9228 0.927681 22.8784 0.888756C21.3819 -0.420848 19.1928 -0.180248 18.0659 0.940817L11.688 7.28076H8.4082C7.74484 7.28076 7.20703 7.81866 7.20703 8.48215V11.2408L0.41024 17.1892C0.149506 17.4173 0 17.7469 0 18.0933V37.3958C0 39.3821 1.6171 41 3.60352 41H37.3965C39.3842 41 41 39.3805 41 37.3958V18.0933C41 17.7469 40.8505 17.4174 40.5898 17.1892ZM33.793 14.4336L37.9747 18.0933L33.793 21.753V14.4336ZM19.7276 2.67652C20.1734 2.30649 20.8266 2.30649 21.2724 2.67652L25.9042 7.28068H15.0958L19.7276 2.67652ZM9.60938 9.68355H31.3906V23.8556L27.4023 27.3459L22.8729 23.3793C21.52 22.1954 19.4798 22.1954 18.1266 23.3795L13.5975 27.3459L9.60938 23.8555V9.68355ZM7.20703 14.4336V21.753L3.02527 18.0933L7.20703 14.4336ZM2.40234 37.1502V20.7409L11.7742 28.9428L2.40234 37.1502ZM4.39693 38.5972L19.709 25.1875C20.1599 24.7929 20.8401 24.7928 21.2907 25.1873L36.6031 38.5972H4.39693ZM38.5977 37.1502L29.2258 28.9428L38.5977 20.7409V37.1502Z" fill="white"/>
<path d="M27.7871 12.0863H13.2129C12.5495 12.0863 12.0117 12.6243 12.0117 13.2877C12.0117 13.9512 12.5495 14.4891 13.2129 14.4891H27.7871C28.4505 14.4891 28.9883 13.9512 28.9883 13.2877C28.9883 12.6243 28.4505 12.0863 27.7871 12.0863Z" fill="white"/>
<path d="M27.7871 16.8919H13.2129C12.5495 16.8919 12.0117 17.4298 12.0117 18.0933C12.0117 18.7568 12.5495 19.2947 13.2129 19.2947H27.7871C28.4505 19.2947 28.9883 18.7568 28.9883 18.0933C28.9883 17.4298 28.4505 16.8919 27.7871 16.8919Z" fill="white"/>
</svg>
