<svg width="41" height="41" viewBox="0 0 41 41" fill="none" xmlns="http://www.w3.org/2000/svg">
<path d="M41 18.0256H38.5973C38.5973 9.41158 31.5915 2.40343 22.9803 2.40343V0C32.9162 0 41 8.08611 41 18.0256Z" fill="white"/>
<path d="M36.1947 18.0256H33.792C33.792 12.0619 28.942 7.21029 22.9803 7.21029V4.80686C30.2667 4.80686 36.1947 10.7367 36.1947 18.0256Z" fill="white"/>
<path d="M31.3894 18.0256H28.9867C28.9867 14.7125 26.2922 12.0171 22.9803 12.0171V9.61371C27.617 9.61371 31.3894 13.387 31.3894 18.0256Z" fill="white"/>
<path d="M26.5841 18.0256H24.1818C24.1818 17.3628 23.6428 16.8237 22.9803 16.8237V14.4203C24.9675 14.4203 26.5841 16.0377 26.5841 18.0256Z" fill="white"/>
<path d="M23.7601 40.2991C13.284 35.5633 5.40505 27.348 0.753647 17.288C-0.700581 14.1427 -0.00928286 10.3612 2.47345 7.87771L7.85775 2.49229L15.2434 12.7944L11.8057 18.2975C11.4118 19.0919 12.0406 19.6824 12.1181 19.8679C14.4007 23.4416 17.4953 26.5375 21.0681 28.8205C21.2567 28.8993 21.8423 29.5277 22.6378 29.1331L28.139 25.6942L38.4381 33.0826L33.0119 38.5102C30.552 40.9709 26.8337 41.6887 23.7601 40.2991ZM7.55495 6.19397L4.1726 9.5771C2.399 11.3513 1.90133 14.0445 2.93452 16.2789C6.12606 23.1816 12.5013 32.5722 24.7498 38.1091C26.9188 39.0897 29.5564 38.5681 31.3131 36.8108L34.7377 33.3855L28.0474 28.5858L23.7976 31.2386C21.6737 32.3701 19.8522 30.8731 19.7743 30.8459C13.3318 26.7287 9.95072 20.9055 9.845 20.7726C9.14557 19.6774 9.0902 18.2846 9.70079 17.1372L12.3531 12.8864L7.55495 6.19397Z" fill="white"/>
</svg>
