<svg width="35" height="38" viewBox="0 0 35 38" fill="none" xmlns="http://www.w3.org/2000/svg">
<rect x="0.5" y="0.5" width="34" height="37" stroke="#26FDE6"/>
<path d="M8.92969 18.3984V19.6406C8.92969 23.5547 10.3594 25.793 12.6914 25.793C15.0234 25.793 16.4531 23.5547 16.4531 19.6406V18.3984C16.4531 14.4727 15.0234 12.2109 12.6914 12.2109C10.3594 12.2109 8.92969 14.4727 8.92969 18.3984ZM7.18359 19.6523V18.3867C7.18359 13.6523 9.15234 10.6641 12.6914 10.6641C16.2305 10.6641 18.1758 13.6406 18.1758 18.3867V19.6523C18.1758 24.3984 16.2305 27.3398 12.6914 27.3398C9.15234 27.3398 7.18359 24.3984 7.18359 19.6523ZM24.0938 19.5352V17.9766H25.6055C27.5508 17.9766 28.875 16.7227 28.8633 15.0234C28.8516 13.3711 27.6562 12.2109 25.7227 12.2109C23.5781 12.2109 22.7227 13.6992 22.6289 14.9297H20.9414C20.9766 12.9609 22.5117 10.6641 25.7227 10.6641C28.6875 10.6641 30.5859 12.4453 30.6445 14.7305C30.7031 17.0156 28.9688 18.4688 27.6797 18.668V18.6914C29.0977 18.8086 31.207 19.9922 31.2656 22.5938C31.3125 25.3125 28.957 27.3516 25.6758 27.3516C22.3008 27.3516 20.6367 25.3242 20.5312 22.9219H22.1953C22.3945 24.4805 23.4609 25.8164 25.7344 25.8164C28.125 25.8164 29.5078 24.457 29.4844 22.6172C29.4609 20.7422 28.043 19.5352 25.7109 19.5352H24.0938Z" fill="#26FDE6"/>
</svg>
