<svg width="35" height="38" viewBox="0 0 35 38" fill="none" xmlns="http://www.w3.org/2000/svg">
<rect x="0.5" y="0.5" width="34" height="37" stroke="#26FDE6"/>
<path d="M8.92969 18.3984V19.6406C8.92969 23.5547 10.3594 25.793 12.6914 25.793C15.0234 25.793 16.4531 23.5547 16.4531 19.6406V18.3984C16.4531 14.4727 15.0234 12.2109 12.6914 12.2109C10.3594 12.2109 8.92969 14.4727 8.92969 18.3984ZM7.18359 19.6523V18.3867C7.18359 13.6523 9.15234 10.6641 12.6914 10.6641C16.2305 10.6641 18.1758 13.6406 18.1758 18.3867V19.6523C18.1758 24.3984 16.2305 27.3398 12.6914 27.3398C9.15234 27.3398 7.18359 24.3984 7.18359 19.6523ZM26.2617 27H24.5391V12.9961H24.5156C23.7539 13.4062 21.7148 14.6602 20.707 15.3633V13.4414C21.7969 12.668 23.5547 11.6016 24.668 11.0156H26.2617V27Z" fill="#26FDE6"/>
</svg>
