<svg width="35" height="38" viewBox="0 0 35 38" fill="none" xmlns="http://www.w3.org/2000/svg">
<rect x="0.5" y="0.5" width="34" height="37" stroke="#26FDE6"/>
<path d="M8.92969 18.3984V19.6406C8.92969 23.5547 10.3594 25.793 12.6914 25.793C15.0234 25.793 16.4531 23.5547 16.4531 19.6406V18.3984C16.4531 14.4727 15.0234 12.2109 12.6914 12.2109C10.3594 12.2109 8.92969 14.4727 8.92969 18.3984ZM7.18359 19.6523V18.3867C7.18359 13.6523 9.15234 10.6641 12.6914 10.6641C16.2305 10.6641 18.1758 13.6406 18.1758 18.3867V19.6523C18.1758 24.3984 16.2305 27.3398 12.6914 27.3398C9.15234 27.3398 7.18359 24.3984 7.18359 19.6523ZM22.5234 15.3164H20.8125V15.2578C20.8125 12.8789 22.5352 10.6641 25.7461 10.6641C28.7109 10.6641 30.5977 12.5391 30.5977 15.0117C30.5977 16.957 29.3906 18.3047 27.9375 20.0273L23.3438 25.418V25.4414H30.9141V27H20.8945V25.875L26.9414 18.8203C27.832 17.7891 28.8047 16.6406 28.8047 15.1055C28.8047 13.3477 27.5273 12.2109 25.7109 12.2109C23.6836 12.2109 22.5234 13.6523 22.5234 15.2578V15.3164Z" fill="#26FDE6"/>
</svg>
